<svg xmlns:xlink="http://www.w3.org/1999/xlink" xmlns="http://www.w3.org/2000/svg" width="234" height="192" viewBox="0 0 234 192" fill="none">
<path d="M50.0204 95.9983C61.3475 95.9983 70.53 86.7882 70.53 75.4269C70.53 64.0656 61.3475 54.8555 50.0204 54.8555C38.6932 54.8555 29.5107 64.0656 29.5107 75.4269C29.5107 86.7882 38.6932 95.9983 50.0204 95.9983Z" fill="#F4F4F4"/>
<path fill-rule="evenodd" clip-rule="evenodd" d="M116.59 24C116.59 24 125.198 35.2449 145.303 37.7416V63.0452C145.303 75.8545 139.742 84.2834 116.589 97.7143C93.4368 84.2803 87.8765 75.8461 87.8765 63.041V37.7374C107.983 35.2449 116.59 24 116.59 24ZM105.933 48.219H96.5964V70.3318H101.588V64.2348H105.933C107.639 64.2755 109.335 63.9471 110.909 63.271C112.236 62.6955 113.365 61.7281 114.155 60.4918C114.932 59.2206 115.328 57.7431 115.295 56.2426C115.352 54.7491 114.963 53.2734 114.179 52.014C113.395 50.7546 112.254 49.7721 110.909 49.1986C109.337 48.512 107.641 48.178 105.933 48.219ZM105.656 60.0655H101.588V52.3883H105.656C106.874 52.3015 108.083 52.6534 109.076 53.3837C109.472 53.7358 109.784 54.1769 109.987 54.6727C110.19 55.1686 110.279 55.7058 110.247 56.2426C110.276 56.7743 110.186 57.3058 109.983 57.7958C109.78 58.2858 109.47 58.7212 109.076 59.068C108.084 59.799 106.874 60.1517 105.656 60.0655ZM133.244 58.8339C134.121 58.3846 134.855 57.6889 135.362 56.8278C135.869 55.9667 136.127 54.9755 136.107 53.9695C136.129 53.1435 135.947 52.3252 135.578 51.5909C135.209 50.8566 134.665 50.2301 133.997 49.7698C132.182 48.6251 130.067 48.0845 127.941 48.2221H117.405V70.3318H128.56C130.805 70.4804 133.043 69.9359 134.984 68.7685C135.694 68.2804 136.27 67.6129 136.656 66.83C137.042 66.0472 137.225 65.1754 137.188 64.2989C137.227 63.0574 136.857 61.8386 136.139 60.8393C135.402 59.8752 134.389 59.1732 133.243 58.8329L133.244 58.8339ZM122.367 52.0733H127.328C128.303 52.0096 129.276 52.2344 130.131 52.7211C130.443 52.9302 130.695 53.2198 130.863 53.5608C131.03 53.9018 131.108 54.2822 131.086 54.6635C131.106 55.047 131.029 55.4291 130.861 55.7725C130.694 56.1158 130.442 56.4085 130.131 56.6217C129.28 57.1196 128.305 57.3503 127.328 57.2852H122.367V52.0733ZM128.195 66.4785H122.367V61.0125H128.195C130.844 61.0125 132.169 61.9288 132.169 63.7613C132.195 64.1642 132.116 64.5668 131.94 64.9278C131.764 65.2888 131.497 65.595 131.167 65.815C130.255 66.3173 129.223 66.5468 128.19 66.4775L128.195 66.4785Z" fill="#FFD700"/>
<path d="M183.333 95.9983C194.66 95.9983 203.842 86.7882 203.842 75.4269C203.842 64.0656 194.66 54.8555 183.333 54.8555C172.006 54.8555 162.823 64.0656 162.823 75.4269C162.823 86.7882 172.006 95.9983 183.333 95.9983Z" fill="#F4F4F4"/>
<path d="M188.802 106.286H173.078C161.711 106.286 151.825 100.19 146.508 90.9495C145.476 89.1565 143.028 88.5789 141.464 89.9333C138.588 92.4247 136.35 94.3025 135.354 95.1513C133.82 96.4541 132.192 97.8453 130.535 99.2688C129.444 100.206 129.171 101.795 129.939 103.01C143.204 123.971 164.139 126.38 170.926 126.889C172.22 126.986 173.078 127.951 173.078 129.248V165C173.078 166.657 174.421 168 176.078 168H201.185C202.841 168 204.185 166.657 204.185 165V121.714C204.185 113.207 197.284 106.286 188.802 106.286Z" fill="#F4F4F4"/>
<path d="M60.2752 129.249C60.2752 127.952 61.1329 126.982 62.427 126.888C69.2113 126.391 90.088 124.092 103.415 103.01C104.183 101.794 103.91 100.207 102.815 99.2738C100.083 96.9442 95.5353 93.0769 91.8914 89.9271C90.3264 88.5742 87.8769 89.1569 86.8452 90.95C81.5281 100.191 71.6421 106.287 60.2752 106.287H44.5512C36.0691 106.287 29.1689 113.207 29.1689 121.715V165.001C29.1689 166.658 30.5121 168.001 32.1689 168.001H57.2752C58.9321 168.001 60.2752 166.658 60.2752 165.001V129.249Z" fill="#F4F4F4"/>
</svg>