<svg xmlns:xlink="http://www.w3.org/1999/xlink" xmlns="http://www.w3.org/2000/svg" width="192" height="192" viewBox="0 0 192 192" fill="none">
<path d="M154.999 105.64L115.198 145.49L104.019 134.298C107.88 134.439 111.729 133.78 115.324 132.36C118.918 130.941 122.181 128.793 124.906 126.05L150.154 100.789L154.999 105.64Z" fill="#FFD700"/>
<path d="M114.471 52.7095C114.131 52.7081 113.799 52.6063 113.516 52.417C113.234 52.2276 113.013 51.9589 112.882 51.6446C112.751 51.3304 112.715 50.9844 112.779 50.6499C112.843 50.3154 113.005 50.0073 113.243 49.7641L120.061 42.9377C120.216 42.7563 120.407 42.609 120.622 42.505C120.836 42.401 121.07 42.3425 121.308 42.3333C121.547 42.3241 121.784 42.3643 122.007 42.4514C122.229 42.5385 122.43 42.6706 122.599 42.8395C122.768 43.0083 122.9 43.2103 122.987 43.4326C123.074 43.655 123.114 43.8929 123.104 44.1315C123.095 44.3701 123.037 44.6042 122.933 44.8192C122.829 45.0342 122.682 45.2253 122.501 45.3806L115.7 52.2764C115.362 52.5755 114.922 52.7309 114.471 52.7095Z" fill="#112152"/>
<path d="M122.275 71.7663C121.932 71.7683 121.595 71.6678 121.309 71.4775C121.022 71.2873 120.799 71.0159 120.667 70.6981C120.535 70.3803 120.501 70.0303 120.568 69.6929C120.636 69.3555 120.803 69.0459 121.047 68.8035L127.813 62.0291C127.974 61.8675 128.166 61.7394 128.377 61.652C128.587 61.5645 128.813 61.5195 129.041 61.5195C129.27 61.5195 129.496 61.5645 129.706 61.652C129.917 61.7394 130.109 61.8675 130.27 62.0291C130.431 62.1906 130.559 62.3824 130.647 62.5935C130.734 62.8045 130.779 63.0308 130.779 63.2592C130.779 63.4877 130.734 63.7139 130.647 63.925C130.559 64.136 130.431 64.3278 130.27 64.4894L123.452 71.3158C123.13 71.6087 122.71 71.7695 122.275 71.7663Z" fill="#112152"/>
<path d="M129.544 91.4189C129.202 91.4174 128.868 91.3144 128.584 91.1229C128.3 90.9313 128.079 90.6598 127.95 90.3427C127.82 90.0256 127.787 89.6771 127.855 89.3413C127.924 89.0055 128.09 88.6974 128.333 88.4561L135.134 81.6297C135.294 81.4673 135.486 81.3384 135.697 81.2504C135.908 81.1625 136.134 81.1172 136.362 81.1172C136.591 81.1172 136.817 81.1625 137.028 81.2504C137.239 81.3384 137.43 81.4673 137.591 81.6297C137.913 81.9543 138.094 82.3934 138.094 82.8512C138.094 83.3089 137.913 83.748 137.591 84.0726L130.755 90.8298C130.603 91.0041 130.417 91.146 130.209 91.2472C130.001 91.3483 129.775 91.4067 129.544 91.4189Z" fill="#112152"/>
<path d="M149.462 96.5775L122.501 123.554C119.835 126.246 116.587 128.289 113.007 129.523C109.427 130.758 105.612 131.152 101.856 130.675L96.9931 130.034C94.8942 129.761 92.7608 129.974 90.7568 130.656C88.7529 131.338 86.9317 132.47 85.4334 133.967L78.1653 141.244C78.0096 141.071 37.9658 100.892 37.8274 100.892L37.9485 100.77C39.7811 102.519 42.0854 103.691 44.5763 104.141C47.0672 104.592 49.6355 104.301 51.9632 103.306C54.291 102.31 56.2761 100.653 57.6729 98.5395C59.0697 96.4259 59.8169 93.9487 59.822 91.4144C59.8307 91.247 59.8307 91.0793 59.822 90.9119C59.9831 90.9291 60.1455 90.9291 60.3066 90.9119C62.048 90.9109 63.7714 90.5581 65.3734 89.8745C66.9755 89.191 68.4233 88.1908 69.6302 86.9339C70.8372 85.677 71.7784 84.1892 72.3975 82.5595C73.0166 80.9299 73.3009 79.1919 73.2334 77.4496C73.3944 77.4668 73.5569 77.4668 73.7179 77.4496C75.4616 77.4511 77.1876 77.0994 78.7919 76.4157C80.3963 75.7319 81.8459 74.7302 83.0536 73.4709C84.2612 72.2117 85.2019 70.7208 85.8191 69.088C86.4363 67.4552 86.7171 65.7143 86.6447 63.97C86.8058 63.9872 86.9682 63.9872 87.1293 63.97C89.6606 63.9695 92.1361 63.2249 94.2486 61.8287C96.3611 60.4324 98.0177 58.4459 99.0128 56.1155C100.008 53.7852 100.298 51.2136 99.8465 48.7198C99.3952 46.226 98.2225 43.9198 96.474 42.0872L110.508 28.1225C111.444 27.1858 112.566 26.4557 113.801 25.9791C115.036 25.5025 116.357 25.29 117.679 25.3553C119.001 25.4206 120.294 25.7622 121.477 26.3581C122.659 26.954 123.703 27.7911 124.543 28.8155C126.019 30.7194 126.741 33.1016 126.572 35.5056C126.403 37.9097 125.353 40.1668 123.625 41.8447L121.289 44.2183C122.228 43.2837 123.352 42.5554 124.588 42.0802C125.824 41.605 127.145 41.3932 128.468 41.4585C129.79 41.5237 131.085 41.8645 132.268 42.459C133.452 43.0536 134.498 43.8888 135.341 44.9114C136.805 46.8148 137.519 49.1907 137.346 51.5869C137.174 53.983 136.128 56.2321 134.406 57.9059L129.094 63.225C130.029 62.2858 131.15 61.5535 132.385 61.0754C133.62 60.5972 134.942 60.3839 136.265 60.4493C137.588 60.5146 138.882 60.8571 140.064 61.4546C141.246 62.0521 142.29 62.8913 143.128 63.918C144.613 65.8217 145.34 68.2083 145.171 70.6175C145.002 73.0267 143.947 75.2877 142.211 76.9645L136.362 82.8207C137.299 81.8893 138.42 81.1637 139.653 80.6904C140.886 80.217 142.204 80.0062 143.523 80.0714C144.842 80.1366 146.133 80.4764 147.313 81.0691C148.494 81.6618 149.538 82.4944 150.379 83.5137C151.865 85.4202 152.593 87.8097 152.424 90.2218C152.254 92.6339 151.199 94.8979 149.462 96.5775Z" fill="#112152"/>
<path d="M75.6261 143.577L35.4721 103.374C34.2356 102.136 32.2307 102.136 30.9942 103.374L16.2393 118.147C15.0027 119.385 15.0027 121.393 16.2393 122.631L56.3933 162.833C57.6298 164.071 59.6346 164.071 60.8712 162.833L75.6261 148.061C76.8626 146.823 76.8627 144.815 75.6261 143.577Z" fill="#112152"/>
<path d="M177.098 122.446L162.423 107.684C162.131 107.387 161.782 107.151 161.397 106.99C161.012 106.829 160.599 106.746 160.182 106.746C159.766 106.746 159.353 106.829 158.968 106.99C158.583 107.151 158.234 107.387 157.942 107.684L117.794 147.88C117.497 148.173 117.262 148.523 117.101 148.908C116.94 149.293 116.857 149.706 116.857 150.124C116.857 150.541 116.94 150.955 117.101 151.34C117.262 151.725 117.497 152.074 117.794 152.368L132.469 167.06C132.762 167.357 133.11 167.593 133.495 167.754C133.88 167.915 134.293 167.998 134.71 167.998C135.126 167.998 135.539 167.915 135.924 167.754C136.309 167.593 136.658 167.357 136.951 167.06L177.098 126.864C177.676 126.274 178 125.481 178 124.655C178 123.828 177.676 123.035 177.098 122.446ZM135.549 154.932C134.44 154.932 133.356 154.603 132.434 153.986C131.512 153.369 130.793 152.492 130.369 151.466C129.944 150.441 129.833 149.312 130.05 148.223C130.266 147.134 130.8 146.134 131.584 145.349C132.368 144.564 133.367 144.029 134.455 143.812C135.543 143.596 136.67 143.707 137.694 144.132C138.719 144.557 139.595 145.276 140.211 146.199C140.827 147.123 141.156 148.208 141.156 149.318C141.156 150.807 140.565 152.235 139.513 153.288C138.462 154.34 137.036 154.932 135.549 154.932Z" fill="#FFD700"/>
<path d="M93.8606 57.9072C92.98 58.7889 91.9345 59.4883 90.784 59.9654C89.6334 60.4426 88.4002 60.6882 87.1549 60.6882C85.9095 60.6882 84.6763 60.4426 83.5258 59.9654C82.3752 59.4883 81.3298 58.7889 80.4492 57.9072L62.8154 40.1827C61.9382 39.2976 61.2437 38.2482 60.7716 37.0944C60.2995 35.9406 60.059 34.705 60.0638 33.4581C60.0735 30.9399 61.082 28.5288 62.8673 26.755C64.6527 24.9813 67.0686 23.9903 69.5838 24.0001C72.0989 24.0098 74.5071 25.0195 76.2787 26.807C76.2028 26.9029 76.1389 27.0076 76.0883 27.1189C75.2977 28.7311 75.0392 30.5532 75.3503 32.3221C75.6613 34.091 76.5258 35.7151 77.8188 36.9601L83.3391 42.5217C84.8563 44.0326 86.7324 45.1322 88.7909 45.7171C90.8495 46.3021 93.0228 46.3532 95.1065 45.8656C96.3276 47.7054 96.8712 49.9133 96.6438 52.1105C96.4165 54.3077 95.4324 56.3571 93.8606 57.9072Z" fill="#FFD700"/>
<path d="M80.4496 71.2669C79.5713 72.1527 78.5266 72.8558 77.3758 73.3356C76.2249 73.8153 74.9906 74.0623 73.7439 74.0623C72.4972 74.0623 71.2629 73.8153 70.112 73.3356C68.9612 72.8558 67.9165 72.1527 67.0382 71.2669C54.9247 59.1387 57.434 61.6856 52.0348 56.2452C50.3771 54.4239 49.4915 52.0286 49.5653 49.5655C49.6391 47.1025 50.6664 44.7646 52.4301 43.046C54.1938 41.3274 56.5559 40.3626 59.017 40.3555C61.4782 40.3485 63.8457 41.2997 65.6192 43.0082L80.4496 57.9085C82.1987 59.6906 83.1788 62.0892 83.1788 64.5877C83.1788 67.0862 82.1987 69.4848 80.4496 71.2669Z" fill="#FFD700"/>
<path d="M67.0382 84.6936C65.2568 86.4753 62.8418 87.4761 60.3239 87.4761C57.8059 87.4761 55.3909 86.4753 53.6095 84.6936L41.496 72.4788C39.7268 70.689 38.7401 68.2688 38.7531 65.7506C38.766 63.2324 39.7776 60.8225 41.5652 59.0511C43.3529 57.2797 45.7701 56.2918 48.2853 56.3048C50.8004 56.3178 53.2073 57.3306 54.9766 59.1204L67.0901 71.2486C67.9699 72.134 68.6666 73.1845 69.1403 74.3399C69.614 75.4953 69.8553 76.733 69.8505 77.9819C69.8457 79.2308 69.5948 80.4666 69.1122 81.6183C68.6296 82.77 67.9248 83.815 67.0382 84.6936Z" fill="#FFD700"/>
<path d="M53.6097 98.1165C52.7291 98.9982 51.6837 99.6976 50.5331 100.175C49.3826 100.652 48.1494 100.898 46.904 100.898C45.6587 100.898 44.4255 100.652 43.2749 100.175C42.1244 99.6976 41.0789 98.9982 40.1983 98.1165L35.0068 92.9187C33.2261 91.1381 32.2248 88.7221 32.2231 86.2023C32.2215 83.6825 33.2197 81.2653 34.9982 79.4824C36.7767 77.6995 39.1897 76.6969 41.7064 76.6953C44.2232 76.6937 46.6375 77.6931 48.4182 79.4737L53.6097 84.6715C54.4971 85.5512 55.2015 86.5982 55.6822 87.7521C56.163 88.9059 56.4105 90.1438 56.4105 91.394C56.4105 92.6443 56.163 93.8821 55.6822 95.036C55.2015 96.1899 54.4971 97.2369 53.6097 98.1165Z" fill="#FFD700"/>
<path d="M105.456 28.3319L91.1271 42.6605C89.0811 42.4288 87.1728 41.5131 85.7106 40.0616L80.2076 34.5173C79.552 33.7856 79.117 32.8828 78.9532 31.9136C78.7893 30.9444 78.9033 29.9485 79.282 29.0416C79.6606 28.1346 80.2884 27.3538 81.0924 26.7896C81.8964 26.2255 82.8437 25.9011 83.8244 25.8543H101.129C102.009 25.8245 102.88 26.0405 103.644 26.4781C104.408 26.9157 105.035 27.5576 105.456 28.3319Z" fill="#FFD700"/>
</svg>