<svg xmlns:xlink="http://www.w3.org/1999/xlink" xmlns="http://www.w3.org/2000/svg" width="192" height="192" viewBox="0 0 192 192" fill="none">
<g clip-path="url(#clip0_1180_18316)">
<path d="M172.693 53.919L168.102 52.5059C167.143 52.2106 166.545 51.2566 166.697 50.2648L167.424 45.5108C167.593 44.4065 166.835 43.3733 165.731 43.2037L160.983 42.4742C159.991 42.3217 159.261 41.4653 159.267 40.4615L159.295 35.6516C159.301 34.5342 158.401 33.6227 157.284 33.6156L152.481 33.5851C151.478 33.5787 150.63 32.8374 150.49 31.8438L149.817 27.0806C149.661 25.9741 148.638 25.2033 147.531 25.3589L142.776 26.0283C141.782 26.1681 140.836 25.5583 140.552 24.5951L139.194 19.9805C138.878 18.9086 137.754 18.2948 136.682 18.6099L132.075 19.9647C131.112 20.2475 130.087 19.7818 129.667 18.8708L127.652 14.5027C127.184 13.4879 125.982 13.0444 124.967 13.5121L120.607 15.5235C119.696 15.9438 118.614 15.6323 118.065 14.7917L115.436 10.7638C114.825 9.8281 113.571 9.56405 112.636 10.1748L108.615 12.7999C107.775 13.3483 106.66 13.1978 105.995 12.4461L102.807 8.84356C102.066 8.00646 100.788 7.9282 99.9516 8.66891L96.3558 11.8522C95.6045 12.5171 94.4796 12.5308 93.7117 11.8836L90.0337 8.78368C89.1794 8.06335 87.9031 8.17194 87.1835 9.02639L84.09 12.6995C83.4437 13.4669 82.3324 13.644 81.4793 13.1157L77.3896 10.5839C76.4392 9.99571 75.1929 10.289 74.6052 11.2392L72.0793 15.3243C71.5518 16.1776 70.4783 16.5147 69.5568 16.1165L65.1426 14.2074C64.1171 13.7636 62.9268 14.2354 62.4837 15.2612L60.5796 19.6708C60.1818 20.592 59.1688 21.0822 58.1998 20.8218L53.555 19.5754C52.4757 19.2858 51.3669 19.9259 51.078 21.0055L49.8361 25.6459C49.5766 26.6156 48.6461 27.2475 47.6494 27.1314L42.8732 26.5746C41.7634 26.4454 40.7597 27.2403 40.6312 28.3504L40.078 33.1227C39.9626 34.1195 39.1339 34.8807 38.1307 34.9112L33.3248 35.0562C32.2081 35.0901 31.3309 36.0227 31.3651 37.1399L31.5125 41.942C31.5434 42.945 30.8344 43.8188 29.8467 43.9948L25.1136 44.8381C24.0138 45.0341 23.2821 46.0848 23.4783 47.185L24.3232 51.9149C24.4994 52.903 23.9254 53.8709 22.9739 54.1891L18.4144 55.7131C17.3551 56.0668 16.7836 57.2132 17.1379 58.2733L18.6622 62.8303C18.9807 63.7822 18.5537 64.8237 17.6585 65.2766L13.3697 67.4485C12.3731 67.9531 11.9751 69.1705 12.4799 70.1675L14.6512 74.4544C15.1048 75.3497 14.8338 76.4422 14.0143 77.021L10.0873 79.7946C9.17506 80.4391 8.95795 81.7014 9.60301 82.6145L12.3749 86.5396C12.954 87.3596 12.8448 88.4799 12.1183 89.1717L8.63754 92.4878C7.82883 93.2584 7.79824 94.5389 8.56864 95.3483L11.882 98.8284C12.574 99.5553 12.6291 100.68 12.0115 101.47L9.05062 105.259C8.36271 106.139 8.51856 107.41 9.39907 108.099L13.1834 111.059C13.9741 111.677 14.192 112.782 13.6962 113.654L11.3189 117.833C10.7664 118.804 11.1057 120.04 12.0766 120.593L16.251 122.971C17.1232 123.468 17.4998 124.528 17.1358 125.464L15.392 129.945C14.9868 130.986 15.5026 132.159 16.5435 132.565L21.0197 134.31C21.9546 134.674 22.4816 135.669 22.2578 136.647L21.185 141.335C20.9359 142.425 21.6165 143.51 22.7057 143.76L27.3877 144.835C28.3656 145.059 29.032 145.967 28.9528 146.967L28.574 151.762C28.486 152.876 29.3173 153.851 30.431 153.94L35.219 154.321C36.2191 154.401 37.0101 155.202 37.0779 156.203L37.4011 161.002C37.4764 162.117 38.4405 162.96 39.5548 162.886L44.3466 162.565C45.3478 162.498 46.247 163.176 46.4593 164.157L47.4775 168.858C47.7139 169.95 48.7909 170.644 49.883 170.409L54.577 169.394C55.5577 169.182 56.5456 169.721 56.8989 170.661L58.5903 175.165C58.9836 176.211 60.1495 176.741 61.1952 176.349L65.6911 174.661C66.6304 174.309 67.6862 174.698 68.1724 175.577L70.5011 179.786C71.0419 180.764 72.2732 181.118 73.2505 180.577L77.4524 178.253C78.3303 177.767 79.4317 177.999 80.0401 178.798L82.9565 182.623C83.6339 183.512 84.9035 183.683 85.7915 183.006L89.6102 180.094C90.4079 179.485 91.5312 179.554 92.2496 180.256L95.6919 183.616C96.4916 184.397 97.7724 184.381 98.5521 183.582L101.905 180.144C102.606 179.426 103.727 179.33 104.54 179.92L108.434 182.743C109.338 183.399 110.603 183.198 111.258 182.293L114.075 178.404C114.664 177.591 115.759 177.334 116.649 177.798L120.912 180.025C121.903 180.542 123.125 180.159 123.641 179.168L125.862 174.909C126.326 174.019 127.372 173.605 128.319 173.935L132.861 175.517C133.916 175.884 135.069 175.327 135.436 174.271L137.013 169.734C137.343 168.786 138.317 168.224 139.303 168.412L144.026 169.316C145.123 169.526 146.183 168.806 146.392 167.709L147.292 162.99C147.48 162.004 148.362 161.306 149.364 161.349L154.168 161.555C155.284 161.603 156.227 160.737 156.275 159.621L156.478 154.82C156.52 153.818 157.291 152.998 158.289 152.894L163.072 152.399C164.183 152.284 164.989 151.29 164.874 150.178L164.376 145.399C164.272 144.401 164.916 143.478 165.888 143.23L170.547 142.043C171.629 141.767 172.282 140.666 172.006 139.583L170.819 134.927C170.571 133.955 171.073 132.948 171.998 132.561L176.434 130.708C177.465 130.277 177.951 129.092 177.521 128.061L175.668 123.628C175.281 122.702 175.631 121.632 176.491 121.114L180.609 118.634C181.566 118.058 181.875 116.815 181.298 115.858L178.821 111.741C178.303 110.881 178.494 109.771 179.268 109.134L182.982 106.081C183.845 105.372 183.969 104.097 183.259 103.234L180.208 99.5213C179.571 98.7458 179.598 97.6203 180.272 96.8774L183.501 93.3157C184.252 92.4883 184.189 91.2088 183.361 90.4574L179.803 87.2286C179.059 86.5541 178.923 85.4367 179.481 84.603L182.157 80.6087C182.779 79.6805 182.531 78.4235 181.603 77.8015L177.612 75.1252C176.778 74.566 176.48 73.4805 176.912 72.5742L178.978 68.2323C179.458 67.2235 179.029 66.016 178.021 65.5352L173.684 63.4683C172.778 63.0367 172.325 62.0057 172.619 61.0466L174.032 56.4495C174.36 55.3816 173.76 54.249 172.692 53.9202L172.693 53.919Z" fill="#112152"/>
<path d="M144.889 58.5633L149.719 62.9116L155.347 59.6624L152.704 65.599L157.533 69.9471L151.07 69.2679L148.427 75.2045L147.076 68.8482L140.613 68.1689L146.241 64.9197L144.889 58.5633Z" fill="#F4F4F4"/>
<path d="M39.1341 119.622L43.9637 123.97L49.5915 120.721L46.9483 126.657L51.7773 131.005L45.3144 130.326L42.6713 136.263L41.3202 129.907L34.8574 129.228L40.4855 125.978L39.1341 119.622Z" fill="#F4F4F4"/>
<path d="M72.5418 151.793L77.6146 153.929L74.9754 160.202C74.5926 160.239 74.1643 160.234 73.689 160.189C73.2136 160.145 72.7266 160.077 72.2284 159.987C71.7294 159.897 71.2469 159.785 70.7812 159.653C70.3147 159.519 69.9134 159.382 69.578 159.241C69.1701 159.07 68.7551 158.849 68.3318 158.579C67.9088 158.309 67.5142 157.989 67.1492 157.616C66.7837 157.243 66.4666 156.814 66.1984 156.327C65.9297 155.841 65.7411 155.292 65.6308 154.681C65.5205 154.071 65.5157 153.395 65.6152 152.654C65.7154 151.913 65.9492 151.105 66.3168 150.23C66.8763 148.901 67.5258 147.893 68.2649 147.21C69.0039 146.527 69.7907 146.083 70.6259 145.877C71.4606 145.671 72.3192 145.652 73.2017 145.819C74.0843 145.986 74.9574 146.251 75.8207 146.615C76.2282 146.787 76.6385 146.994 77.0513 147.239C77.4636 147.483 77.8377 147.718 78.1732 147.944C78.5087 148.17 78.8847 148.441 79.3027 148.758L78.4027 150.897C78.019 150.566 77.667 150.287 77.3461 150.06C77.0248 149.834 76.6576 149.591 76.2444 149.332C75.8308 149.073 75.402 148.85 74.9587 148.664C74.3352 148.401 73.7383 148.235 73.1679 148.164C72.5975 148.093 72.058 148.151 71.5484 148.339C71.0388 148.526 70.5657 148.863 70.1285 149.349C69.6909 149.835 69.2958 150.497 68.9433 151.336C68.6255 152.091 68.4392 152.778 68.3839 153.396C68.3282 154.015 68.3758 154.564 68.5274 155.044C68.6783 155.524 68.9256 155.935 69.2687 156.277C69.6118 156.618 70.0171 156.888 70.4851 157.085C70.9767 157.292 71.3931 157.443 71.7349 157.537C72.0762 157.631 72.3612 157.692 72.5906 157.718C72.8434 157.753 73.0623 157.754 73.2467 157.719L74.4036 154.969L71.6874 153.825L72.5416 151.794L72.5418 151.793Z" fill="#F4F4F4"/>
<path d="M85.8283 163.698C84.9783 163.576 84.2307 163.334 83.5859 162.972C82.941 162.611 82.4134 162.163 82.0037 161.632C81.5932 161.1 81.3042 160.504 81.1363 159.842C80.9678 159.181 80.9358 158.49 81.0387 157.769L82.2666 149.197L84.9712 149.585L83.6993 158.466C83.6479 158.827 83.6367 159.176 83.6672 159.516C83.6975 159.855 83.8013 160.162 83.9787 160.437C84.1561 160.712 84.415 160.947 84.7556 161.14C85.0954 161.334 85.5556 161.472 86.1356 161.555C86.7151 161.639 87.1959 161.629 87.579 161.526C87.9617 161.424 88.2747 161.259 88.5176 161.031C88.7601 160.803 88.9447 160.528 89.0697 160.204C89.1947 159.88 89.283 159.538 89.335 159.178L90.5933 150.393L93.298 150.782L92.0702 159.354C91.9668 160.075 91.7447 160.729 91.4045 161.317C91.0638 161.906 90.622 162.397 90.0791 162.792C89.536 163.187 88.9081 163.468 88.194 163.634C87.4801 163.801 86.6914 163.822 85.8289 163.698L85.8283 163.698Z" fill="#F4F4F4"/>
<path d="M105.131 160.265L99.9938 160.856L99.1995 164.187L96.2526 164.526L99.6713 150.408L103.064 150.019L109.609 162.99L106.662 163.329L105.13 160.265L105.131 160.265ZM103.958 157.926C103.651 157.307 103.382 156.769 103.152 156.311C102.923 155.853 102.68 155.371 102.426 154.863C102.171 154.356 101.949 153.916 101.763 153.545L101.173 155.93C101.103 156.226 101.032 156.519 100.961 156.808C100.889 157.098 100.827 157.354 100.774 157.576C100.722 157.798 100.665 158.043 100.604 158.312L103.958 157.926Z" fill="#F4F4F4"/>
<path d="M123.279 158.484L120.39 159.504L117.501 155.662C117.367 155.516 117.227 155.393 117.081 155.293C116.944 155.217 116.794 155.153 116.63 155.1C116.467 155.048 116.281 155.058 116.072 155.131L114.563 155.664L116.415 160.906L113.858 161.809L109.315 148.952L112.977 147.66C113.64 147.426 114.288 147.26 114.922 147.16C115.556 147.06 116.146 147.073 116.693 147.197C117.241 147.321 117.729 147.579 118.158 147.973C118.586 148.366 118.935 148.943 119.204 149.704C119.343 150.096 119.403 150.454 119.387 150.777C119.369 151.1 119.308 151.394 119.202 151.659C119.095 151.925 118.96 152.158 118.798 152.361C118.634 152.563 118.477 152.732 118.325 152.869C118.173 153.005 117.992 153.145 117.78 153.288C118.086 153.18 118.369 153.16 118.628 153.227C118.886 153.294 119.11 153.391 119.299 153.517C119.489 153.644 119.682 153.83 119.88 154.078L123.279 158.485L123.279 158.484ZM114.858 153.16C115.153 153.056 115.431 152.934 115.691 152.794C115.952 152.654 116.168 152.484 116.34 152.286C116.511 152.088 116.624 151.851 116.679 151.577C116.733 151.302 116.698 150.987 116.573 150.632C116.447 150.276 116.286 150.006 116.089 149.82C115.892 149.634 115.667 149.514 115.413 149.458C115.159 149.403 114.884 149.404 114.586 149.46C114.289 149.517 113.975 149.604 113.644 149.72L112.595 150.09L113.81 153.53L114.859 153.159L114.858 153.16Z" fill="#F4F4F4"/>
<path d="M132.616 149.293L128.271 152.095L129.033 155.434L126.541 157.041L123.361 142.865L126.23 141.015L137.838 149.755L135.346 151.362L132.617 149.292L132.616 149.293ZM130.529 147.714C129.98 147.294 129.501 146.93 129.092 146.621C128.684 146.312 128.253 145.986 127.8 145.644C127.347 145.301 126.954 145.005 126.622 144.755L127.149 147.155C127.217 147.452 127.283 147.746 127.347 148.037C127.411 148.329 127.468 148.585 127.519 148.808C127.57 149.03 127.627 149.276 127.692 149.544L130.528 147.714L130.529 147.714Z" fill="#F4F4F4"/>
<path d="M149.003 138.364L146.565 140.999L135.642 137.721L143.159 144.678L141.397 146.582L131.388 137.319L133.826 134.685L144.735 137.949L137.232 131.005L138.995 129.101L149.004 138.364L149.003 138.364Z" fill="#F4F4F4"/>
<path d="M145.071 118.776L146.915 119.835L144.972 123.219L154.952 128.954L153.601 131.305L143.621 125.571L141.667 128.971L139.824 127.912L145.071 118.776Z" fill="#F4F4F4"/>
<path d="M157.385 118.203L159.065 113.169L161.118 113.855L158.575 121.48L145.64 117.16L148.184 109.535L150.096 110.647L148.559 115.255L151.723 116.312L153.26 111.703L155.314 112.39L153.777 116.998L157.385 118.203Z" fill="#F4F4F4"/>
<path d="M160.464 105.545L161.108 100.276L163.257 100.54L162.281 108.52L148.747 106.859L149.723 98.8794L151.817 99.5886L151.228 104.411L154.538 104.818L155.128 99.995L157.277 100.259L156.688 105.081L160.463 105.544L160.464 105.545Z" fill="#F4F4F4"/>
<path d="M29.2297 84.142L42.6336 85.0317L42.4647 87.5824L31.6303 86.8629L42.2174 91.3216L42.0577 93.7382L30.9762 96.7585L41.8106 97.4779L41.6418 100.029L28.2379 99.139L28.5068 95.0731L38.8012 92.3087L28.9605 88.2075L29.2294 84.1416L29.2297 84.142Z" fill="#F4F4F4"/>
<path d="M32.8437 71.9313C33.0868 71.2974 33.4388 70.657 33.8988 70.0105C34.3595 69.3642 34.9473 68.8315 35.6638 68.4132C36.3799 67.9951 37.2362 67.7475 38.2334 67.6705C39.2302 67.5938 40.3811 67.8049 41.6847 68.3059C43.0005 68.8109 44.0007 69.4249 44.684 70.1469C45.3677 70.8694 45.8301 71.6232 46.071 72.4085C46.3122 73.1942 46.3848 73.9797 46.2892 74.7665C46.1936 75.5533 46.0242 76.2637 45.7811 76.8976C45.5382 77.5319 45.1894 78.1728 44.735 78.8219C44.2806 79.471 43.7004 80.0098 42.9937 80.4381C42.2872 80.8669 41.4387 81.121 40.4475 81.2003C39.4565 81.2801 38.3033 81.0668 36.9871 80.5621C35.6833 80.0618 34.6864 79.4494 33.9967 78.7246C33.3069 78.0005 32.8371 77.2399 32.5858 76.4438C32.3353 75.6478 32.2546 74.8553 32.3442 74.0662C32.4341 73.2775 32.6004 72.5659 32.8433 71.9316L32.8437 71.9313ZM43.8253 76.146C44.0177 75.6436 44.1071 75.1426 44.0926 74.6429C44.0782 74.1432 43.9485 73.6682 43.7024 73.2168C43.4566 72.7659 43.0833 72.3445 42.5815 71.9531C42.0797 71.5617 41.4404 71.2166 40.6623 70.918C39.9087 70.6284 39.2145 70.4619 38.5797 70.4174C37.9448 70.3728 37.3827 70.4349 36.8924 70.6036C36.4024 70.7727 35.9823 71.0367 35.6317 71.3959C35.2814 71.7555 35.0098 72.1863 34.8174 72.6888C34.625 73.1912 34.5387 73.6934 34.5591 74.1955C34.5796 74.6975 34.717 75.179 34.9725 75.6406C35.228 76.1022 35.6032 76.5278 36.099 76.9169C36.595 77.3064 37.2258 77.6477 37.9911 77.9414C38.7689 78.2397 39.4719 78.4104 40.1008 78.4526C40.7299 78.4953 41.2872 78.4278 41.7731 78.2506C42.2597 78.0736 42.675 77.8043 43.0196 77.4427C43.3639 77.0807 43.6325 76.6487 43.8253 76.146Z" fill="#F4F4F4"/>
<path d="M55.5193 59.9656L53.4499 62.832L42.3801 60.9235L50.5592 66.8352L49.0631 68.9073L38.1733 61.0361L40.2427 58.1697L51.2967 60.067L43.1332 54.1661L44.6293 52.094L55.519 59.9652L55.5193 59.9656Z" fill="#F4F4F4"/>
<path d="M58.1929 54.6021L62.1173 51.1512L63.5258 52.7541L57.5813 57.9809L48.7122 47.8851L54.6567 42.6583L55.7333 44.5532L52.1408 47.712L54.3106 50.1818L57.9031 47.023L59.3112 48.6261L55.7186 51.7849L58.1931 54.6014L58.1929 54.6021Z" fill="#F4F4F4"/>
<path d="M66.062 45.01L58.1022 40.3711L60.5204 39.0272L66.095 42.2201L66.3135 35.808L68.7485 34.4549L68.3457 43.7409L70.866 48.2792L68.5823 49.5483L66.062 45.01Z" fill="#F4F4F4"/>
<path d="M90.5737 38.0775C90.7091 38.8088 90.6688 39.4551 90.4533 40.0161C90.2381 40.5776 89.907 41.0591 89.46 41.4606C89.0133 41.8625 88.4751 42.1935 87.8461 42.4527C87.2169 42.7126 86.5621 42.9049 85.882 43.0304L82.0472 43.7389L79.605 30.523L83.7044 29.7658C84.3466 29.6471 84.9656 29.598 85.5625 29.618C86.1589 29.6383 86.6978 29.754 87.1795 29.9648C87.6612 30.1756 88.0754 30.4967 88.4218 30.9279C88.7685 31.3594 89.0122 31.9202 89.1528 32.6113L89.1562 32.6302C89.2701 33.2479 89.2214 33.759 89.0098 34.1628C88.7977 34.5669 88.5446 34.8878 88.2497 35.1243C87.899 35.4109 87.49 35.6297 87.0232 35.7807C87.6015 35.7394 88.1318 35.791 88.6148 35.9366C89.0275 36.056 89.4255 36.2727 89.809 36.586C90.1924 36.9001 90.4447 37.3844 90.5658 38.0397L90.5726 38.0776L90.5737 38.0775ZM86.1178 40.8168C86.3947 40.7655 86.6557 40.6816 86.9017 40.5645C87.1468 40.448 87.3561 40.2946 87.5302 40.1064C87.7037 39.918 87.8249 39.6936 87.894 39.433C87.9631 39.1725 87.9662 38.8723 87.9032 38.5318C87.8402 38.1913 87.7262 37.9094 87.5611 37.6859C87.3961 37.4624 87.1954 37.2938 86.9602 37.181C86.7243 37.0681 86.4613 37.0028 86.172 36.9846C85.8824 36.9666 85.5861 36.9855 85.2837 37.041L83.6215 37.3481L84.3239 41.1482L86.1182 40.8166L86.1178 40.8168ZM83.2579 35.3817L84.9391 35.0713C85.1657 35.0293 85.387 34.9591 85.6037 34.8607C85.8197 34.7621 86.0037 34.6303 86.1558 34.4653C86.3074 34.3005 86.4175 34.104 86.4863 33.8761C86.5546 33.6485 86.5625 33.3897 86.5088 33.0996C86.453 32.7967 86.3523 32.5518 86.2069 32.3634C86.0611 32.1753 85.8887 32.0345 85.6895 31.941C85.49 31.8477 85.2622 31.7952 85.006 31.784C84.7499 31.7728 84.4895 31.7913 84.2252 31.8405L82.6575 32.1302L83.2582 35.3822L83.2579 35.3817Z" fill="#F4F4F4"/>
<path d="M101.41 39.0649L96.3249 38.8235L95.024 41.9378L92.1072 41.7997L97.6718 28.6093L101.03 28.7684L105.328 42.4268L102.411 42.2888L101.41 39.0651L101.41 39.0649ZM100.641 36.6031C100.442 35.9521 100.266 35.3857 100.116 34.9033C99.9655 34.4217 99.8069 33.9135 99.6396 33.3794C99.4724 32.8454 99.3275 32.3833 99.2051 31.9923L98.2538 34.2185C98.1379 34.4955 98.0223 34.769 97.9072 35.0393C97.7917 35.3098 97.6909 35.5486 97.6042 35.7565C97.5173 35.964 97.423 36.1939 97.3216 36.4457L100.641 36.6031Z" fill="#F4F4F4"/>
<path d="M116.095 31.4088C116.564 31.5414 116.994 31.6998 117.388 31.8841C117.781 32.0686 118.126 32.2498 118.423 32.4264C118.765 32.6296 119.074 32.8303 119.351 33.0285L118.782 35.045C118.341 34.7207 117.869 34.4273 117.363 34.1646C116.859 33.902 116.348 33.7076 115.831 33.5818C115.314 33.4558 114.805 33.4089 114.304 33.4398C113.803 33.4715 113.329 33.6173 112.883 33.8775C112.437 34.1379 112.031 34.5288 111.664 35.0512C111.297 35.5738 110.995 36.2543 110.759 37.0928C110.519 37.9439 110.418 38.6882 110.458 39.3251C110.498 39.9623 110.639 40.5117 110.882 40.9732C111.124 41.4349 111.451 41.81 111.862 42.0994C112.272 42.3886 112.733 42.6085 113.243 42.7595C113.752 42.91 114.293 42.9997 114.864 43.0278C115.435 43.0564 115.996 43.0349 116.548 42.9646L115.974 44.9998C115.627 45.0483 115.255 45.0697 114.858 45.0641C114.509 45.0719 114.119 45.0517 113.687 45.003C113.255 44.9542 112.805 44.8634 112.337 44.7313C111.917 44.6127 111.485 44.4472 111.039 44.2349C110.593 44.0219 110.169 43.7563 109.767 43.4362C109.365 43.1164 109.004 42.7343 108.683 42.2906C108.362 41.8471 108.111 41.3334 107.93 40.7493C107.749 40.1654 107.662 39.5079 107.668 38.7774C107.675 38.0466 107.805 37.2311 108.059 36.3307C108.31 35.4427 108.623 34.6858 108.999 34.0592C109.375 33.4333 109.793 32.9185 110.253 32.516C110.713 32.1131 111.195 31.8068 111.7 31.5963C112.205 31.3862 112.714 31.2468 113.226 31.1785C113.737 31.1102 114.238 31.1019 114.73 31.1538C115.221 31.2058 115.675 31.2912 116.095 31.4095L116.095 31.4088Z" fill="#F4F4F4"/>
<path d="M127.043 51.3669L124.404 49.9463L123.645 43.1199L122.477 42.4916L119.802 47.4698L117.552 46.2587L123.913 34.4231L126.164 35.6341L123.488 40.6122L124.672 41.2495L130.596 38.0197L133.269 39.4585L125.997 43.2072L127.043 51.3669Z" fill="#F4F4F4"/>
<path fill-rule="evenodd" clip-rule="evenodd" d="M73.0293 56.2103C51.0164 68.9195 43.4796 97.0798 56.1981 119.109C68.9166 141.138 97.0726 148.691 119.085 135.982C141.098 123.273 148.635 95.1125 135.917 73.0834C123.198 51.0543 95.0422 43.5012 73.0293 56.2103ZM53.6 120.609C40.054 97.1465 48.0799 67.1507 71.5293 53.6122C94.9786 40.0737 124.969 48.121 138.515 71.5834C152.061 95.0458 144.035 125.042 120.585 138.58C97.1361 152.119 67.1461 144.071 53.6 120.609Z" fill="#FFD700"/>
<path d="M58.7371 31.4578C63.1215 28.9264 67.7576 26.8391 72.5163 25.2535C77.1525 23.7085 81.9625 22.6211 86.8122 22.02C91.5743 21.4301 96.4234 21.3037 101.224 21.6447C105.981 21.9824 110.731 22.7811 115.344 24.0186C119.957 25.2561 124.47 26.9432 128.758 29.032C133.086 31.1406 137.223 33.6773 141.053 36.5728C144.952 39.5209 148.575 42.8711 151.819 46.5306C155.149 50.2864 158.121 54.4154 160.655 58.8033C163.188 63.1913 165.277 67.8298 166.865 72.5917C168.413 77.2307 169.503 82.0432 170.106 86.8946C170.698 91.6588 170.827 96.5098 170.489 101.312C170.155 106.07 169.358 110.822 168.124 115.436C166.889 120.05 165.205 124.564 163.12 128.851C161.014 133.179 158.481 137.315 155.589 141.145C152.644 145.044 149.297 148.666 145.641 151.908C141.888 155.237 137.762 158.208 133.378 160.739C128.993 163.271 124.357 165.358 119.599 166.944C114.962 168.488 110.152 169.576 105.303 170.177C100.541 170.767 95.6915 170.894 90.8907 170.552C86.1342 170.215 81.3838 169.416 76.7709 168.179C72.158 166.941 67.645 165.254 63.357 163.165C59.029 161.057 54.8923 158.52 51.0623 155.624C47.1623 152.676 43.5398 149.326 40.2959 145.667C36.9662 141.911 33.9935 137.782 31.4602 133.394C28.9268 129.006 26.8375 124.367 25.2495 119.606C23.7023 114.967 22.6123 110.154 22.0091 105.303C21.4167 100.538 21.2875 95.6875 21.6258 90.8848C21.9604 86.1271 22.7566 81.3753 23.9911 76.7612C25.2258 72.1476 26.909 67.6339 28.9951 63.3463C31.1006 59.0178 33.6342 54.8818 36.5262 51.0527C39.4709 47.1531 42.8178 43.5316 46.4744 40.2888C50.2269 36.9605 54.3526 33.9891 58.7371 31.4578ZM57.2705 28.9176C20.1913 50.3253 7.49806 97.7576 28.9196 134.861C50.341 171.964 97.7653 184.687 134.844 163.28C171.924 141.872 184.617 94.4396 163.195 57.3365C141.774 20.2334 94.3497 7.50993 57.2705 28.9176Z" fill="#FFD700"/>
<path d="M79.6571 119.77L75.5041 122.168L64.9227 103.841L60.713 106.271L58.8935 103.12L66.797 97.496L79.6573 119.771L79.6571 119.77Z" fill="#FFD700"/>
<path d="M92.1399 100.998C93.8418 103.945 94.5046 106.544 94.1288 108.794C93.7527 111.044 92.4931 112.788 90.3506 114.025C88.2081 115.262 86.0373 115.499 83.8959 114.702C81.7547 113.906 79.8329 112.033 78.1311 109.086L75.2958 104.175C73.6 101.238 72.9373 98.6391 73.3074 96.3785C73.6773 94.1184 74.9383 92.3668 77.0908 91.1241C79.2432 89.8814 81.3811 89.6706 83.5332 90.4746C85.6856 91.2789 87.6093 93.1494 89.3051 96.0867L92.1403 100.998L92.1399 100.998ZM84.8984 98.0126C83.8808 96.2501 82.8883 95.1006 81.9218 94.5648C80.955 94.0296 80.0072 94.0299 79.0781 94.5663C78.149 95.1027 77.6638 95.9262 77.6505 97.0205C77.6377 98.1146 78.1428 99.5486 79.1664 101.321L82.5107 107.114C83.5462 108.908 84.5434 110.071 85.5023 110.604C86.4611 111.137 87.4147 111.13 88.3628 110.583C89.3109 110.035 89.7631 109.231 89.7761 108.136C89.7889 107.042 89.2781 105.598 88.2425 103.805L84.8982 98.0122L84.8984 98.0126Z" fill="#FFD700"/>
<path d="M108.851 91.3532C110.553 94.3009 111.216 96.8998 110.84 99.1495C110.464 101.4 109.204 103.143 107.062 104.38C104.919 105.617 102.748 105.854 100.607 105.057C98.4658 104.261 96.544 102.389 94.8421 99.4412L92.0069 94.5304C90.3111 91.5932 89.6484 88.9946 90.0185 86.7339C90.3883 84.4739 91.6494 82.7223 93.8018 81.4796C95.9543 80.2369 98.0922 80.0261 100.244 80.83C102.397 81.6344 104.32 83.5049 106.016 86.4422L108.851 91.353L108.851 91.3532ZM101.609 88.3683C100.591 86.6058 99.599 85.4563 98.6324 84.9205C97.6661 84.3851 96.7179 84.3856 95.7888 84.922C94.8597 85.4584 94.3744 86.2819 94.3612 87.3763C94.3484 88.4703 94.8534 89.9043 95.877 91.6772L99.2213 97.4696C100.257 99.2633 101.254 100.427 102.213 100.96C103.172 101.493 104.125 101.486 105.073 100.939C106.022 100.391 106.474 99.5868 106.487 98.4921C106.5 97.398 105.988 95.9543 104.953 94.1606L101.608 88.3681L101.609 88.3683Z" fill="#FFD700"/>
<path d="M106.174 80.4722C105.414 79.1565 105.177 77.8319 105.463 76.4972C105.748 75.1631 106.597 74.0881 108.01 73.2723C109.423 72.4566 110.803 72.2413 112.093 72.6588C113.383 73.0766 114.412 73.9486 115.177 75.2744L115.857 76.4522C116.617 77.7679 116.853 79.0867 116.567 80.4075C116.28 81.729 115.431 82.7971 114.018 83.6129C112.605 84.4286 111.236 84.6411 109.939 84.2341C108.642 83.8274 107.614 82.9657 106.854 81.65L106.174 80.4722ZM109.613 80.057C109.955 80.6486 110.393 81.0584 110.93 81.2859C111.466 81.5137 112.018 81.4633 112.587 81.1347C113.156 80.8062 113.445 80.3708 113.511 79.7954C113.578 79.2201 113.44 78.6366 113.098 78.0449L112.418 76.8671C112.077 76.2759 111.635 75.8609 111.093 75.6232C110.551 75.3857 110 75.4278 109.441 75.7506C108.882 76.0734 108.572 76.5276 108.512 77.1134C108.451 77.6988 108.592 78.2877 108.934 78.879L109.614 80.0568L109.613 80.057ZM120.804 93.7901L118.122 93.8087L118.182 70.5607L120.864 70.5421L120.804 93.7901ZM123.307 87.286C122.553 85.9807 122.321 84.6597 122.611 83.3223C122.901 81.9856 123.752 80.9092 125.165 80.0934C126.578 79.2777 127.946 79.0693 129.241 79.4842C130.536 79.8992 131.564 80.7644 132.324 82.0801L133.004 83.2579C133.769 84.584 134.009 85.9074 133.722 87.2286C133.436 88.5501 132.586 89.6183 131.173 90.434C129.761 91.2497 128.388 91.461 127.083 91.0516C125.778 90.6421 124.746 89.7796 123.987 88.4639L123.307 87.286ZM126.746 86.8709C127.081 87.4521 127.532 87.8549 128.098 88.0792C128.663 88.3037 129.212 88.2624 129.743 87.9559C130.359 87.6001 130.689 87.1546 130.734 86.6187C130.779 86.0831 130.616 85.4937 130.245 84.8513L129.565 83.6734C129.229 83.0922 128.79 82.6827 128.248 82.4445C127.706 82.207 127.155 82.2492 126.596 82.572C126.037 82.8948 125.713 83.3574 125.652 83.9432C125.592 84.5289 125.73 85.1118 126.066 85.6934L126.746 86.8712L126.746 86.8709Z" fill="#FFD700"/>
</g>
<defs>
<clipPath id="clip0_1180_18316">
<rect width="192" height="192" fill="white"/>
</clipPath>
</defs>
</svg>