<svg xmlns:xlink="http://www.w3.org/1999/xlink" xmlns="http://www.w3.org/2000/svg" width="192" height="192" viewBox="0 0 192 192" fill="none">
<path fill-rule="evenodd" clip-rule="evenodd" d="M159.686 130.505L168.491 113.359C171.796 107.331 171.162 98.5927 166.174 93.8952C146.251 75.1304 123.627 62.3799 99.4424 56.3587C92.8153 54.7086 82.9721 58.9533 79.6792 64.9594L70.7637 81.2207C53.2431 113.178 64.9595 151.547 80.0289 161.09C97.3661 172.07 141.344 163.963 159.686 130.505ZM103.598 100.77C99.3482 95.9241 93.0222 92.7273 85.9125 92.6703C84.3136 92.6577 83.2189 91.062 83.7665 89.5708C86.4309 82.3105 94.7397 78.9201 101.485 82.0602C108.228 85.1986 111.045 93.7158 107.347 100.37C106.58 101.749 104.66 101.981 103.598 100.77ZM104.325 95.0132C104.742 91.4561 102.85 87.782 99.5388 86.2402C96.2702 84.7191 92.2838 85.6007 89.7976 88.3475C95.2385 89.1275 100.254 91.4897 104.325 95.0132ZM124.491 111.116C131.553 111.939 137.497 115.799 141.2 121.075C142.125 122.394 144.058 122.37 144.97 121.081C149.364 114.865 147.482 106.094 141.116 102.247C134.749 98.3976 126.123 100.873 122.691 107.803C121.986 109.227 122.902 110.931 124.491 111.116ZM138.731 106.192C141.857 108.082 143.341 111.939 142.544 115.43C138.875 111.488 134.144 108.599 128.819 107.237C131.587 104.775 135.645 104.328 138.731 106.192ZM99.7441 134.714C107.134 137.845 113.739 137.785 117.019 137.471C118.722 137.308 119.958 139.047 119.263 140.599C115.249 149.546 103.666 153.528 93.4964 149.143C83.4572 144.814 78.2959 133.856 81.9907 124.713C82.6307 123.131 84.7424 122.828 85.8011 124.166C89.417 128.734 94.2384 132.382 99.7441 134.714ZM85.2855 130.269C85.03 136.151 88.9734 142.344 95.2592 145.054C101.628 147.8 108.904 146.369 112.995 142.053C102.633 141.798 92.6185 137.596 85.2855 130.269Z" fill="#FFD700"/>
<path d="M50.7295 72.1642C47.0795 72.0239 43.9132 69.3683 42.9209 65.927C48.0389 67.6003 53.5774 67.8377 58.8962 66.4515C57.6667 69.9463 54.332 72.3019 50.7295 72.1642Z" fill="#112152"/>
<path fill-rule="evenodd" clip-rule="evenodd" d="M128.481 50.1584V64.5C118.54 59.3049 108.2 56.0156 97.5571 53.3659C90.9299 51.7159 81.0868 55.9605 77.7939 61.9666L68.8784 78.2279C64.9069 85.4719 62.1627 92.9051 60.5503 100.222C58.3739 99.5974 56.2679 98.7653 54.2691 97.7343C52.7528 96.9516 50.9539 98.0984 51.0233 99.8039C51.2508 105.358 54.2803 110.278 58.8387 113.478C58.5629 120.945 59.4877 128.073 61.5 134.5L58 132.5C31.6517 118.297 20 94.1927 20 68.6656V50.1198C20 41.248 25.9767 33.4788 34.5344 31.227C59.3395 24.6892 86.6182 24.1747 113.885 31.2457C122.479 33.4788 128.481 41.2563 128.481 50.1584ZM60.8058 60.962C54.228 63.6607 47.1577 63.161 41.3637 60.3378C39.916 59.6317 38.2356 60.5884 38.062 62.1572C37.2265 69.7239 43.1201 76.4874 50.5527 76.7716C57.9874 77.0568 64.3368 70.7152 63.984 62.9895C63.9119 61.4026 62.285 60.3548 60.8058 60.962Z" fill="#112152"/>
<path d="M59.7151 104.613C59.5363 105.73 59.3839 106.842 59.2574 107.95C57.9812 106.646 56.9716 105.142 56.3158 103.507C57.4348 103.928 58.5691 104.297 59.7151 104.613Z" fill="#112152"/>
</svg>