<svg xmlns:xlink="http://www.w3.org/1999/xlink" xmlns="http://www.w3.org/2000/svg" width="192" height="192" viewBox="0 0 192 192" fill="none">
<path d="M87.1229 44.3229L94.1572 67.126L88.9002 67.3555L81.5769 43.6508C81.4586 43.2386 81.4468 42.8031 81.5424 42.3851C81.638 41.967 81.838 41.58 82.1238 41.2602C82.4224 40.8804 82.8288 40.5998 83.2898 40.4553C84.699 40.0248 85.9314 39.1504 86.8032 37.9624C87.6749 36.7745 88.1395 35.3367 88.1276 33.8632C88.1157 32.3898 87.6279 30.9596 86.737 29.7859C85.8461 28.6123 84.5997 27.7579 83.1838 27.3503C81.7678 26.9426 80.258 27.0035 78.8794 27.5238C77.5008 28.044 76.3272 28.9959 75.5337 30.2374C74.7401 31.479 74.369 32.9438 74.4757 34.4134C74.5824 35.883 75.1611 37.2788 76.1257 38.3927C76.345 38.6462 76.5122 38.9404 76.6177 39.2585C76.7233 39.5766 76.7652 39.9124 76.741 40.2467C76.7168 40.5809 76.627 40.9072 76.4768 41.2068C76.3265 41.5063 76.1187 41.7734 75.8652 41.9927C75.6117 42.2119 75.3176 42.3791 74.9995 42.4847C74.6814 42.5903 74.3456 42.6322 74.0113 42.608C73.677 42.5838 73.3508 42.494 73.0512 42.3438C72.7516 42.1935 72.4846 41.9857 72.2653 41.7322C70.6542 39.8715 69.6583 37.5579 69.4142 35.1088C69.17 32.6597 69.6896 30.1951 70.9017 28.0529C72.1137 25.9108 73.9588 24.1962 76.1839 23.1442C78.409 22.0922 80.9051 21.7545 83.3298 22.1773C85.7545 22.6001 87.9889 23.7627 89.7267 25.5057C91.4644 27.2487 92.6203 29.4866 93.0358 31.9125C93.4513 34.3384 93.1061 36.8335 92.0474 39.0554C90.9888 41.2774 89.2686 43.1173 87.1229 44.3229Z" fill="#112152"/>
<path d="M122.049 52.2991L128.455 76.3381C129.988 81.8915 128.366 86.9692 125.185 90.5783L122.101 86.2656C122.936 85.0158 123.494 83.6014 123.736 82.1178C123.978 80.6342 123.899 79.116 123.504 77.6655L118.911 60.3377L117.022 64.2931C116.726 64.8961 116.203 65.3581 115.569 65.5791C114.934 65.8 114.238 65.7622 113.631 65.4738C113.023 65.1853 112.554 64.6695 112.325 64.0379C112.095 63.4062 112.123 62.7096 112.403 62.0986L117.277 51.8653C117.507 51.3997 117.872 51.0146 118.324 50.7606C118.777 50.5067 119.296 50.3959 119.812 50.4429C120.329 50.4898 120.82 50.6924 121.219 51.0238C121.618 51.3552 121.908 51.7998 122.049 52.2991Z" fill="#112152"/>
<path fill-rule="evenodd" clip-rule="evenodd" d="M134.452 121.636C133.019 112.846 130.508 104.266 126.975 96.0906C125.022 97.8318 122.742 99.1655 120.267 100.013C117.792 100.861 115.172 101.206 112.562 101.028C109.952 100.849 107.404 100.151 105.067 98.9749C102.73 97.7983 100.652 96.1669 98.9546 94.1763C98.8488 94.5062 98.6773 94.8113 98.4503 95.073C98.2233 95.3348 97.9455 95.5478 97.6339 95.6991C97.3222 95.8505 96.9831 95.9371 96.637 95.9537C96.2909 95.9702 95.9451 95.9165 95.6204 95.7956C95.2957 95.6747 94.9989 95.4892 94.7479 95.2504C94.4969 95.0115 94.297 94.7242 94.1602 94.4059C94.0234 94.0876 93.9526 93.7448 93.952 93.3984C93.9514 93.0519 94.0211 92.7089 94.1569 92.3901C94.7959 90.9574 96.9246 86.2549 98.2288 83.3736C98.5792 82.5996 98.8701 81.9569 99.0566 81.5445C99.1954 81.2391 99.3931 80.9641 99.6382 80.7352C99.8834 80.5062 100.171 80.3278 100.485 80.2103C100.8 80.0927 101.134 80.0382 101.469 80.0498C101.804 80.0615 102.134 80.1392 102.439 80.2784C102.744 80.4176 103.019 80.6156 103.248 80.861C103.477 81.1065 103.655 81.3946 103.772 81.7089C103.889 82.0233 103.943 82.3576 103.931 82.6928C103.919 83.0281 103.841 83.3576 103.701 83.6627L101.328 88.9196L102.604 90.5784C109.162 98.733 119.587 96.9295 125.185 90.5784L122.101 86.2657C120.978 84.3007 119.83 82.4633 118.732 80.779C115.59 75.84 111.863 71.2987 107.631 67.2537C107.136 66.8097 106.484 66.5803 105.819 66.6157L59.1189 68.6828C58.6278 68.7141 58.156 68.8856 57.7592 69.1767C57.3625 69.4679 57.0575 69.8666 56.8803 70.3257C56.7031 70.7849 56.6612 71.2851 56.7594 71.7673C56.8577 72.2495 57.092 72.6935 57.4347 73.0467C68.8624 84.9066 76.4486 99.9366 79.2027 116.174C85.7732 143.099 60.1871 164.025 59.9099 164.125C59.4972 164.453 59.1954 164.899 59.0456 165.404C58.8958 165.909 58.9052 166.447 59.0725 166.947C59.2399 167.446 59.5571 167.882 59.9809 168.194C60.4048 168.507 60.9146 168.681 61.4411 168.693L118.63 169.995C118.995 170.001 119.357 169.929 119.691 169.784C120.025 169.638 120.325 169.423 120.57 169.153C138.099 149.904 134.668 123.309 134.457 121.673C134.455 121.659 134.453 121.646 134.452 121.636ZM106.902 103.92C82.2382 104.678 82.2895 134.887 106.902 135.636C131.578 134.897 131.622 104.664 106.902 103.92Z" fill="#FFD700"/>
<path d="M119.261 120.631C119.348 121.259 119.032 121.906 118.312 122.573C117.619 123.223 116.53 123.836 115.044 124.412C113.586 124.972 111.827 125.427 109.767 125.775L109.971 127.242L107.135 127.637L106.928 126.152C103.958 126.455 101.529 126.424 99.6413 126.059C97.7515 125.683 96.7031 124.967 96.496 123.913L103.144 122.987C103.442 123.831 104.609 124.204 106.643 124.106L106.161 120.646C104.004 120.725 102.26 120.747 100.929 120.711C99.599 120.674 98.4274 120.481 97.4147 120.129C96.4019 119.778 95.8375 119.186 95.7215 118.353C95.5752 117.302 96.3717 116.318 98.1111 115.398C99.88 114.475 102.22 113.761 105.132 113.257L104.927 111.79L107.764 111.395L107.968 112.862C110.818 112.564 113.127 112.599 114.895 112.968C116.693 113.333 117.769 114.032 118.124 115.066L111.432 115.998C111.295 115.66 110.942 115.402 110.375 115.222C109.836 115.027 109.13 114.934 108.258 114.945L108.735 118.368C110.983 118.289 112.757 118.269 114.058 118.309C115.387 118.334 116.557 118.521 117.57 118.873C118.581 119.212 119.145 119.798 119.261 120.631ZM102.174 117.325C102.23 117.723 102.571 118.008 103.197 118.179C103.822 118.338 104.706 118.418 105.851 118.419L105.414 115.286C104.359 115.494 103.54 115.774 102.956 116.127C102.373 116.479 102.112 116.878 102.174 117.325ZM109.484 123.747C110.595 123.506 111.441 123.197 112.021 122.821C112.631 122.441 112.907 122.045 112.85 121.635C112.794 121.236 112.439 120.96 111.785 120.805C111.131 120.65 110.217 120.574 109.043 120.577L109.484 123.747Z" fill="#FFD700"/>
</svg>