<svg xmlns:xlink="http://www.w3.org/1999/xlink" xmlns="http://www.w3.org/2000/svg" width="192" height="192" viewBox="0 0 192 192" fill="none">
<path d="M144.938 57.75C151.151 57.75 156.188 52.7132 156.188 46.5C156.188 40.2868 151.151 35.25 144.938 35.25C138.724 35.25 133.688 40.2868 133.688 46.5C133.688 52.7132 138.724 57.75 144.938 57.75Z" fill="#F4F4F4"/>
<path d="M157.542 61.6133C154.124 64.4685 149.729 66.1909 144.938 66.1909C140.152 66.1909 135.761 64.4728 132.345 61.6231C131.051 62.5026 129.858 63.5173 128.775 64.6404C131.022 69.3778 132.281 74.6709 132.281 80.2534V86.4409H163.219C165.549 86.4409 167.438 84.552 167.438 82.2222V80.2534C167.438 72.4977 163.513 65.6588 157.542 61.6133Z" fill="#F4F4F4"/>
<path d="M46.5 57.75C52.7132 57.75 57.75 52.7132 57.75 46.5C57.75 40.2868 52.7132 35.25 46.5 35.25C40.2868 35.25 35.25 40.2868 35.25 46.5C35.25 52.7132 40.2868 57.75 46.5 57.75Z" fill="#F4F4F4"/>
<path d="M33.8961 61.6133C37.3133 64.4685 41.7086 66.1909 46.5 66.1909C51.2858 66.1909 55.6766 64.4728 59.0924 61.6231C60.3862 62.5026 61.5798 63.5173 62.6623 64.6404C60.4157 69.3778 59.1563 74.6709 59.1563 80.2534V86.4409H28.2188C25.8889 86.4409 24 84.552 24 82.2222V80.2534C24 72.4977 27.9246 65.6588 33.8961 61.6133Z" fill="#F4F4F4"/>
<path d="M95.7188 52.125C103.485 52.125 109.781 45.829 109.781 38.0625C109.781 30.296 103.485 24 95.7188 24C87.9523 24 81.6562 30.296 81.6562 38.0625C81.6562 45.829 87.9523 52.125 95.7188 52.125Z" fill="#FFD700"/>
<path d="M109.574 55.7695C105.752 58.7671 100.942 60.5612 95.7188 60.5612C90.4954 60.5612 85.686 58.7671 81.8633 55.7695C73.3431 60.6023 67.5938 69.7536 67.5938 80.2487V86.4362H123.844V80.2487C123.844 69.7536 118.094 60.6023 109.574 55.7695Z" fill="#FFD700"/>
<path d="M164.83 108.011L156.996 104.767C157.393 101.923 157.594 99.08 157.594 96.2801C157.594 95.8135 157.587 95.3447 157.576 94.875H136.473C136.489 95.3422 136.5 95.8104 136.5 96.2813C136.5 118.804 118.242 137.063 95.7188 137.063C73.196 137.063 54.9375 118.804 54.9375 96.2813C54.9375 95.8104 54.9485 95.3422 54.9643 94.875H33.8615C33.8503 95.3447 33.8438 95.8135 33.8438 96.2801C33.8438 99.08 34.0443 101.923 34.4414 104.767L26.6081 108.011C24.4534 108.904 23.4302 111.374 24.3226 113.529L33.0374 134.568C33.9298 136.723 36.4001 137.746 38.5547 136.854L46.3763 133.614C49.8165 138.161 53.8379 142.183 58.3851 145.623L55.144 153.448C54.2524 155.601 55.2745 158.069 57.4272 158.96L78.474 167.678C80.6267 168.57 83.0943 167.548 83.9859 165.395L87.2321 157.558C90.0767 157.955 92.9187 158.155 95.7188 158.155C98.5187 158.155 101.361 157.955 104.205 157.558L107.451 165.395C108.343 167.548 110.811 168.57 112.963 167.678L134.01 158.96C136.163 158.069 137.185 155.601 136.294 153.448L133.053 145.623C137.6 142.183 141.621 138.162 145.061 133.614L152.883 136.854C155.038 137.747 157.508 136.723 158.4 134.569L167.115 113.529C168.007 111.374 166.984 108.904 164.83 108.011Z" fill="#F4F4F4"/>
</svg>