<svg xmlns:xlink="http://www.w3.org/1999/xlink" width="24" height="24" viewBox="0 0 24 24" fill="none" xmlns="http://www.w3.org/2000/svg"><path d="M16.9149 13.375V19.7917C16.9149 20.0438 16.7043 20.25 16.4468 20.25H15.5106V22.5417C15.5106 22.7938 15.3 23 15.0426 23C14.7851 23 14.5745 22.7938 14.5745 22.5417V20.25H13.6383C13.3809 20.25 13.1702 20.0438 13.1702 19.7917V13.375C13.1702 13.1229 13.3809 12.9167 13.6383 12.9167H14.5745V10.625C14.5745 10.3729 14.7851 10.1667 15.0426 10.1667C15.3 10.1667 15.5106 10.3729 15.5106 10.625V12.9167H16.4468C16.7043 12.9167 16.9149 13.1229 16.9149 13.375Z" fill="#030E31"></path><path d="M23 7.875V16.125C23 16.3771 22.7894 16.5833 22.5319 16.5833H21.5957V18.875C21.5957 19.1271 21.3851 19.3333 21.1277 19.3333C20.8702 19.3333 20.6596 19.1271 20.6596 18.875V16.5833H19.7234C19.466 16.5833 19.2553 16.3771 19.2553 16.125V7.875C19.2553 7.62292 19.466 7.41667 19.7234 7.41667H20.6596V5.58333C20.6596 5.33125 20.8702 5.125 21.1277 5.125C21.3851 5.125 21.5957 5.33125 21.5957 5.58333V7.41667H22.5319C22.7894 7.41667 23 7.62292 23 7.875Z" fill="#030E31"></path><path d="M4.74468 16.125V19.7917C4.74468 20.0438 4.53404 20.25 4.2766 20.25H3.34043V22.5417C3.34043 22.7938 3.12979 23 2.87234 23C2.61489 23 2.40426 22.7938 2.40426 22.5417V20.25H1.46809C1.21064 20.25 1 20.0438 1 19.7917V16.125C1 15.8729 1.21064 15.6667 1.46809 15.6667H2.40426V13.375C2.40426 13.1229 2.61489 12.9167 2.87234 12.9167C3.12979 12.9167 3.34043 13.1229 3.34043 13.375V15.6667H4.2766C4.53404 15.6667 4.74468 15.8729 4.74468 16.125Z" fill="#030E31"></path><path d="M10.8298 3.75V13.375C10.8298 13.6271 10.6192 13.8333 10.3617 13.8333H9.42553V16.125C9.42553 16.3771 9.2149 16.5833 8.95745 16.5833C8.7 16.5833 8.48936 16.3771 8.48936 16.125V13.8333H7.55319C7.29574 13.8333 7.0851 13.6271 7.0851 13.375V3.75C7.0851 3.49792 7.29574 3.29167 7.55319 3.29167H8.48936V1.45833C8.48936 1.20625 8.7 1 8.95745 1C9.2149 1 9.42553 1.20625 9.42553 1.45833V3.29167H10.3617C10.6192 3.29167 10.8298 3.49792 10.8298 3.75Z" fill="#030E31"></path></svg>