<svg xmlns:xlink="http://www.w3.org/1999/xlink" width="24" height="24" viewBox="0 0 24 24" fill="none" xmlns="http://www.w3.org/2000/svg"><path d="M19.2859 16.0125C19.159 16.0223 19.0322 16.0321 18.9053 16.0321C18.0426 16.0309 17.1959 15.798 16.4535 15.3577C15.7111 14.9173 15.1 14.2856 14.684 13.5284C14.0455 13.5839 13.4256 13.7721 12.8637 14.0809C12.3561 14.9281 11.6719 15.6554 10.8579 16.213C10.5083 16.944 10.3517 17.7526 10.403 18.5616C10.4543 19.3705 10.7118 20.1528 11.151 20.8336C11.5901 21.5143 12.1961 22.0708 12.9112 22.4499C13.6262 22.829 14.4263 23.0179 15.2351 22.9987C16.0438 22.9794 16.8341 22.7526 17.5303 22.34C18.2266 21.9274 18.8056 21.3427 19.212 20.6418C19.6184 19.9409 19.8386 19.1473 19.8516 18.3368C19.8645 17.5263 19.6698 16.7261 19.2859 16.0125ZM17.1191 19.4796C17.1147 19.5286 17.098 19.5758 17.0703 19.6165C17.0711 19.6234 17.0693 19.6303 17.0655 19.6361L15.4306 22.0664C15.3967 22.1162 15.3512 22.1568 15.298 22.1849C15.2449 22.2131 15.1857 22.2278 15.1256 22.2278C15.0655 22.2278 15.0063 22.2131 14.9532 22.1849C14.9 22.1568 14.8545 22.1162 14.8206 22.0664L13.1857 19.6361C13.1819 19.6303 13.1801 19.6234 13.1809 19.6165C13.1533 19.5758 13.1365 19.5286 13.1321 19.4796C13.1272 19.4747 13.1272 19.4698 13.1272 19.46C13.1224 19.4106 13.1273 19.3608 13.1418 19.3133C13.1467 19.3084 13.1516 19.3035 13.1516 19.2987V19.284L14.7913 15.5186C14.8235 15.4577 14.8716 15.4068 14.9305 15.3712C14.9894 15.3357 15.0568 15.3169 15.1256 15.3169C15.1944 15.3169 15.2618 15.3357 15.3207 15.3712C15.3796 15.4068 15.4277 15.4577 15.4599 15.5186L17.0996 19.284V19.2987C17.0996 19.3035 17.1045 19.3084 17.1094 19.3133C17.1239 19.3608 17.1289 19.4106 17.124 19.46C17.124 19.4698 17.124 19.4747 17.1191 19.4796Z" fill="#030E31"></path><path d="M15.8503 20.1251L15.1232 21.2058L14.4009 20.1251L15.006 20.3353C15.0836 20.3614 15.1676 20.3614 15.2452 20.3353L15.8503 20.1251Z" fill="#030E31"></path><path d="M16.2651 19.2106L15.1232 19.6018L13.9812 19.2106L15.1232 16.5847L16.2651 19.2106Z" fill="#030E31"></path><path d="M18.9882 7.06858C18.6005 7.67545 18.0695 8.17721 17.4422 8.52947C16.8148 8.88172 16.1105 9.07362 15.3916 9.08818C14.9369 9.86365 14.7498 10.7675 14.8591 11.6602C14.9683 12.5529 15.3679 13.3847 15.9961 14.0271C16.6242 14.6695 17.446 15.0868 18.3345 15.2144C19.223 15.3421 20.1286 15.173 20.9116 14.7333C21.6946 14.2936 22.3113 13.6079 22.6665 12.7819C23.0217 11.9559 23.0955 11.0358 22.8767 10.1635C22.6578 9.2913 22.1584 8.51557 21.4555 7.95617C20.7527 7.39678 19.8856 7.08485 18.9882 7.06858ZM20.0082 13.5284C19.7983 13.5276 19.591 13.4813 19.4006 13.3927C19.2102 13.3041 19.0412 13.1752 18.9053 13.0149C18.7693 13.1752 18.6003 13.3041 18.41 13.3927C18.2196 13.4813 18.0123 13.5276 17.8024 13.5284C17.437 13.5273 17.085 13.3902 16.8149 13.1437C16.5447 12.8973 16.3755 12.559 16.3403 12.1946C16.305 11.8302 16.4061 11.4656 16.624 11.1717C16.8419 10.8778 17.161 10.6755 17.5193 10.6041C17.4415 10.3822 17.418 10.1448 17.4506 9.91188C17.4832 9.67895 17.5711 9.45725 17.7068 9.26535C17.8425 9.07344 18.0222 8.91693 18.2307 8.80891C18.4392 8.7009 18.6705 8.64453 18.9053 8.64453C19.14 8.64453 19.3713 8.7009 19.5798 8.80891C19.7884 8.91693 19.968 9.07344 20.1037 9.26535C20.2395 9.45725 20.3273 9.67895 20.36 9.91188C20.3926 10.1448 20.369 10.3822 20.2912 10.6041C20.6496 10.6755 20.9687 10.8778 21.1866 11.1717C21.4045 11.4656 21.5056 11.8302 21.4703 12.1946C21.435 12.559 21.2659 12.8973 20.9957 13.1437C20.7255 13.3902 20.3736 13.5273 20.0082 13.5284Z" fill="#030E31"></path><path d="M20.0082 12.7949C20.4152 12.7949 20.7451 12.4621 20.7451 12.0516C20.7451 11.6411 20.4152 11.3083 20.0082 11.3083C19.6012 11.3083 19.2713 11.6411 19.2713 12.0516C19.2713 12.4621 19.6012 12.7949 20.0082 12.7949Z" fill="#030E31"></path><path d="M18.5393 12.0516C18.5383 12.1974 18.4943 12.3397 18.4127 12.4605C18.3312 12.5812 18.2157 12.6751 18.081 12.7303C17.9463 12.7854 17.7983 12.7993 17.6556 12.7703C17.513 12.7412 17.3822 12.6705 17.2796 12.5671C17.177 12.4636 17.1073 12.332 17.0793 12.1889C17.0512 12.0458 17.0661 11.8976 17.122 11.763C17.178 11.6283 17.2724 11.5133 17.3935 11.4324C17.5146 11.3515 17.6568 11.3083 17.8024 11.3083C17.9984 11.3092 18.186 11.3879 18.3242 11.5273C18.4623 11.6666 18.5397 11.8552 18.5393 12.0516Z" fill="#030E31"></path><path d="M18.9053 10.8779C19.3123 10.8779 19.6422 10.5452 19.6422 10.1347C19.6422 9.72415 19.3123 9.39137 18.9053 9.39137C18.4983 9.39137 18.1684 9.72415 18.1684 10.1347C18.1684 10.5452 18.4983 10.8779 18.9053 10.8779Z" fill="#030E31"></path><path d="M15.3037 1C14.3323 1.00336 13.4019 1.39219 12.7159 2.08137C12.0299 2.77056 11.6444 3.70397 11.6436 4.67734C11.6457 5.0231 11.695 5.36696 11.79 5.69936C12.374 6.26912 12.8501 6.9401 13.1955 7.67984C13.8104 8.12097 14.5475 8.35861 15.3037 8.35956C16.2777 8.35956 17.2118 7.97187 17.9004 7.28178C18.5891 6.59168 18.976 5.65572 18.976 4.67978C18.976 3.70384 18.5891 2.76788 17.9004 2.07778C17.2118 1.38769 16.2777 1 15.3037 1ZM14.8889 4.31058H15.7234C16.0399 4.31058 16.3434 4.43655 16.5671 4.66077C16.7909 4.88499 16.9166 5.1891 16.9166 5.5062C16.9166 5.8233 16.7909 6.12741 16.5671 6.35163C16.3434 6.57586 16.0399 6.70183 15.7234 6.70183H15.6746V7.30819C15.6746 7.40546 15.6361 7.49875 15.5674 7.56753C15.4988 7.63631 15.4057 7.67495 15.3086 7.67495C15.2115 7.67495 15.1184 7.63631 15.0498 7.56753C14.9812 7.49875 14.9426 7.40546 14.9426 7.30819V6.70183H14.8889C14.574 6.7004 14.2724 6.57408 14.0502 6.35048C13.828 6.12689 13.7032 5.82421 13.703 5.50865C13.703 5.41138 13.7416 5.31809 13.8102 5.24931C13.8789 5.18053 13.972 5.14189 14.0691 5.14189C14.1661 5.14189 14.2592 5.18053 14.3279 5.24931C14.3965 5.31809 14.4351 5.41138 14.4351 5.50865C14.4347 5.62983 14.4822 5.74624 14.5673 5.83239C14.6523 5.91853 14.768 5.96741 14.8889 5.96831H15.7234C15.8457 5.96831 15.963 5.91963 16.0495 5.83296C16.136 5.7463 16.1846 5.62876 16.1846 5.5062C16.1846 5.38364 16.136 5.2661 16.0495 5.17944C15.963 5.09278 15.8457 5.04409 15.7234 5.04409H14.8889C14.5731 5.04409 14.2702 4.91838 14.0469 4.69462C13.8236 4.47085 13.6982 4.16736 13.6982 3.85091C13.6982 3.53446 13.8236 3.23097 14.0469 3.00721C14.2702 2.78344 14.5731 2.65773 14.8889 2.65773H14.9426V2.04648C14.9426 1.94921 14.9812 1.85592 15.0498 1.78714C15.1184 1.71836 15.2115 1.67972 15.3086 1.67972C15.4057 1.67972 15.4988 1.71836 15.5674 1.78714C15.6361 1.85592 15.6746 1.94921 15.6746 2.04648V2.65773H15.7234C15.8799 2.65754 16.0348 2.68827 16.1793 2.74817C16.3239 2.80806 16.4552 2.89594 16.5658 3.00678C16.6765 3.11761 16.7642 3.24922 16.8239 3.39407C16.8837 3.53892 16.9144 3.69417 16.9142 3.85091C16.9142 3.94818 16.8756 4.04147 16.807 4.11025C16.7383 4.17903 16.6452 4.21767 16.5482 4.21767C16.4511 4.21767 16.358 4.17903 16.2894 4.11025C16.2207 4.04147 16.1822 3.94818 16.1822 3.85091C16.1822 3.79053 16.1704 3.73073 16.1474 3.67493C16.1243 3.61913 16.0906 3.56843 16.0479 3.52574C16.0053 3.48304 15.9547 3.44918 15.899 3.4261C15.8434 3.40303 15.7837 3.39118 15.7234 3.39125H14.8889C14.7673 3.39125 14.6506 3.43967 14.5645 3.52588C14.4785 3.61208 14.4302 3.729 14.4302 3.85091C14.4302 3.97282 14.4785 4.08974 14.5645 4.17595C14.6506 4.26215 14.7673 4.31058 14.8889 4.31058Z" fill="#030E31"></path><path d="M7.07579 4.50129C5.87667 4.4979 4.70351 4.85114 3.70486 5.51628C2.70621 6.18142 1.927 7.12854 1.46588 8.23772C1.00476 9.34689 0.882479 10.5682 1.11452 11.7471C1.34656 12.9259 1.92249 14.0093 2.76938 14.86C3.61626 15.7106 4.69602 16.2903 5.87192 16.5257C7.04782 16.7611 8.26697 16.6415 9.37501 16.1821C10.483 15.7228 11.4301 14.9443 12.0963 13.9452C12.7625 12.9461 13.1179 11.7714 13.1174 10.5699C13.1179 8.96277 12.482 7.42112 11.3493 6.28335C10.2166 5.14558 8.67964 4.50466 7.07579 4.50129ZM9.76964 12.0662C9.76865 12.4906 9.62293 12.9019 9.35664 13.2318C9.09036 13.5618 8.7195 13.7907 8.30559 13.8805V14.5357C8.30559 14.633 8.26703 14.7263 8.19839 14.7951C8.12975 14.8638 8.03665 14.9025 7.93958 14.9025C7.84251 14.9025 7.74941 14.8638 7.68077 14.7951C7.61213 14.7263 7.57357 14.633 7.57357 14.5357V13.9196H6.82202V14.5357C6.82202 14.633 6.78346 14.7263 6.71482 14.7951C6.64618 14.8638 6.55309 14.9025 6.45601 14.9025C6.35894 14.9025 6.26584 14.8638 6.1972 14.7951C6.12856 14.7263 6.09 14.633 6.09 14.5357V13.9196H5.28478C5.1879 13.9189 5.09518 13.8801 5.02667 13.8114C4.95817 13.7428 4.9194 13.6499 4.91876 13.5528V7.60649C4.9187 7.55831 4.92812 7.51059 4.9465 7.46606C4.96487 7.42154 4.99182 7.38108 5.02582 7.34701C5.05982 7.31294 5.1002 7.28593 5.14463 7.26752C5.18907 7.24911 5.23669 7.23967 5.28478 7.23973H6.09V6.6627C6.09 6.56543 6.12856 6.47215 6.1972 6.40337C6.26584 6.33459 6.35894 6.29595 6.45601 6.29595C6.55309 6.29595 6.64618 6.33459 6.71482 6.40337C6.78346 6.47215 6.82202 6.56543 6.82202 6.6627V7.23973H7.57357V6.6627C7.57357 6.56543 7.61213 6.47215 7.68077 6.40337C7.74941 6.33459 7.84251 6.29595 7.93958 6.29595C8.03665 6.29595 8.12975 6.33459 8.19839 6.40337C8.26703 6.47215 8.30559 6.56543 8.30559 6.6627V7.27885C8.65356 7.35329 8.97272 7.5267 9.22483 7.77829C9.47693 8.02988 9.65129 8.34898 9.72701 8.69734C9.80272 9.04571 9.77657 9.40856 9.6517 9.74242C9.52683 10.0763 9.30854 10.367 9.02297 10.5797C9.25507 10.7514 9.44358 10.9754 9.57329 11.2337C9.703 11.4919 9.77026 11.7771 9.76964 12.0662Z" fill="#030E31"></path><path d="M9.03761 12.0662C9.03787 12.3625 8.92089 12.6467 8.7123 12.8566C8.50372 13.0666 8.22057 13.185 7.92494 13.1861H5.65079V10.9464H7.92494C8.22057 10.9474 8.50372 11.0659 8.7123 11.2758C8.92089 11.4858 9.03787 11.77 9.03761 12.0662Z" fill="#030E31"></path><path d="M9.03761 9.09307C9.03787 9.3893 8.92089 9.67354 8.7123 9.88347C8.50372 10.0934 8.22057 10.2119 7.92494 10.2129H5.65079V7.97324H7.92494C8.22057 7.97428 8.50372 8.09275 8.7123 8.30267C8.92089 8.5126 9.03787 8.79684 9.03761 9.09307Z" fill="#030E31"></path></svg>