<svg xmlns:xlink="http://www.w3.org/1999/xlink" width="26" height="24" viewBox="0 0 26 24" fill="none" xmlns="http://www.w3.org/2000/svg"><path d="M17.3595 8.70628C17.3534 9.76579 17.1441 10.7779 16.7686 11.7058C17.5245 11.8877 18.2123 12.3029 18.73 12.9051C18.9737 13.1886 18.9414 13.616 18.6579 13.8597C18.3744 14.1034 17.9471 14.0712 17.7033 13.7876C17.2994 13.3178 16.7336 13.0266 16.1247 12.9674C15.732 13.5952 15.2565 14.1661 14.7131 14.6643H16.2376C16.6114 14.6643 16.9145 14.9674 16.9145 15.3412C16.9145 15.7151 16.6114 16.0181 16.2376 16.0181H13.607C13.8995 17.0047 14.8138 17.7267 15.8941 17.7267C16.5894 17.7267 17.2488 17.4235 17.7034 16.8947C17.9471 16.6113 18.3745 16.579 18.6579 16.8227C18.9414 17.0664 18.9737 17.4938 18.73 17.7773C18.018 18.6055 16.9843 19.0805 15.8941 19.0805C14.1333 19.0805 12.6539 17.8569 12.259 16.2156C11.331 16.5911 10.3188 16.8005 9.25921 16.8066C9.93112 19.8511 12.6506 22.1358 15.8941 22.1358C19.6407 22.1358 22.6887 19.0877 22.6887 15.3412C22.6887 12.0977 20.404 9.37823 17.3595 8.70628Z" fill="#030E31"></path><path d="M16.0063 8.65885C16.0063 4.91229 12.9583 1.8643 9.21178 1.8643C5.46526 1.8643 2.41719 4.91233 2.41719 8.65885C2.41719 12.4054 5.46522 15.4534 9.21173 15.4534C12.9583 15.4534 16.0063 12.4054 16.0063 8.65885ZM8.53482 12.1892V12.0548H7.85226C7.47842 12.0548 7.17534 11.7517 7.17534 11.3779C7.17534 11.004 7.47842 10.7009 7.85226 10.7009H9.21173C9.5881 10.7009 9.89429 10.3947 9.89429 10.0184C9.89429 9.64201 9.5881 9.33582 9.21173 9.33582C8.08886 9.33582 7.17534 8.42229 7.17534 7.29942C7.17534 6.41383 7.74377 5.65884 8.53482 5.37914V5.12859C8.53482 4.75475 8.8379 4.45167 9.21173 4.45167C9.58558 4.45167 9.88865 4.75475 9.88865 5.12859V5.26302H10.5712C10.9451 5.26302 11.2481 5.5661 11.2481 5.93994C11.2481 6.31378 10.9451 6.61686 10.5712 6.61686H9.21173C8.83537 6.61686 8.52918 6.92305 8.52918 7.29942C8.52918 7.67579 8.83537 7.98198 9.21173 7.98198C10.3346 7.98198 11.2481 8.8955 11.2481 10.0184C11.2481 10.904 10.6797 11.659 9.88865 11.9387V12.1893C9.88865 12.5631 9.58558 12.8662 9.21173 12.8662C8.8379 12.8662 8.53482 12.563 8.53482 12.1892Z" fill="#030E31"></path><path d="M9.62348 21.675C7.18445 20.9372 4.96917 19.0953 3.63108 16.7475L4.07239 16.896C4.42678 17.0153 4.81059 16.8246 4.92982 16.4702C5.049 16.1158 4.85838 15.732 4.50404 15.6128L2.55013 14.9556C2.19574 14.8365 1.81193 15.0271 1.6927 15.3814L1.03551 17.3353C0.916322 17.6897 1.10694 18.0735 1.46129 18.1927C1.53286 18.2168 1.60561 18.2282 1.67718 18.2282C1.95986 18.2282 2.22359 18.0497 2.31867 17.7669L2.44318 17.3968C3.0719 18.5044 3.88222 19.5282 4.82774 20.4028C6.12634 21.6042 7.64914 22.4922 9.23145 22.9708C9.2968 22.9906 9.36278 23 9.42772 23C9.71829 23 9.98694 22.8114 10.0754 22.5189C10.1837 22.1612 9.9813 21.7833 9.62348 21.675Z" fill="#030E31"></path><path d="M23.6445 5.8074C23.2903 5.68831 22.9064 5.87888 22.7871 6.23323L22.6625 6.60377C22.0303 5.48997 21.2147 4.46078 20.2629 3.58318C18.9678 2.3891 17.4503 1.50599 15.8744 1.02921C15.5164 0.920861 15.1386 1.1233 15.0304 1.48112C14.9222 1.83899 15.1245 2.21684 15.4823 2.32506C17.9188 3.06213 20.1357 4.90529 21.4741 7.25235L21.0334 7.10415C20.6791 6.98488 20.2953 7.17559 20.176 7.52993C20.0568 7.88427 20.2475 8.26813 20.6018 8.38732L22.5557 9.04456C22.6273 9.06861 22.7 9.08003 22.7716 9.08003C23.0543 9.08003 23.318 8.9015 23.4132 8.61873L24.0703 6.66483C24.1895 6.31044 23.9989 5.92658 23.6445 5.8074Z" fill="#030E31"></path></svg>