<svg xmlns:xlink="http://www.w3.org/1999/xlink" width="21" height="24" viewBox="0 0 21 24" fill="none" xmlns="http://www.w3.org/2000/svg"><path d="M6.12832 4.86719H12.5388C12.8928 4.86719 13.1798 4.57861 13.1798 4.22266V1.64453C13.1798 1.28858 12.8928 1 12.5388 1H6.12832C5.77429 1 5.48727 1.28858 5.48727 1.64453V4.22266C5.48727 4.57861 5.77429 4.86719 6.12832 4.86719Z" fill="#030E31"></path><path d="M7.41041 9.99207V13.0313H8.69249V12.3867C8.69249 12.0308 8.97951 11.7422 9.33354 11.7422C9.68757 11.7422 9.97458 12.0308 9.97458 12.3867V13.0313H11.2567V9.99207L9.33354 9.02527L7.41041 9.99207Z" fill="#030E31"></path><path d="M15.6464 19.7773H13.531C13.177 19.7773 12.89 19.4888 12.89 19.1328V17.0059C12.89 16.835 12.9575 16.671 13.0778 16.5502L17.6672 11.9359V3.57812C17.6672 3.22217 17.3801 2.93359 17.0261 2.93359H14.4619V4.22266C14.4619 5.28884 13.5992 6.15625 12.5388 6.15625H6.12836C5.06794 6.15625 4.20522 5.28884 4.20522 4.22266V2.93359H1.64104C1.28702 2.93359 1 3.22217 1 3.57812V22.3555C1 22.7114 1.28702 23 1.64104 23H17.0261C17.3801 23 17.6672 22.7114 17.6672 22.3555V18.0126L16.0997 19.5885C15.9795 19.7095 15.8165 19.7773 15.6464 19.7773ZM11.043 19.7773H7.62409C7.27006 19.7773 6.98304 19.4888 6.98304 19.1328C6.98304 18.7769 7.27006 18.4883 7.62409 18.4883H11.043C11.397 18.4883 11.684 18.7769 11.684 19.1328C11.684 19.4888 11.397 19.7773 11.043 19.7773ZM11.043 17.1992H7.62409C7.27006 17.1992 6.98304 16.9106 6.98304 16.5547C6.98304 16.1987 7.27006 15.9102 7.62409 15.9102H11.043C11.397 15.9102 11.684 16.1987 11.684 16.5547C11.684 16.9106 11.397 17.1992 11.043 17.1992ZM12.5388 10.631V13.6758C12.5388 14.0317 12.2517 14.3203 11.8977 14.3203H6.76936C6.41533 14.3203 6.12832 14.0317 6.12832 13.6758V10.6306C5.82758 10.738 5.48761 10.606 5.34128 10.3117C5.18295 9.99327 5.31128 9.60612 5.62796 9.44693L9.04686 7.72818C9.22734 7.63747 9.43974 7.63747 9.62021 7.72818L13.0391 9.44693C13.3558 9.60612 13.4841 9.99327 13.3258 10.3117C13.1807 10.6036 12.8424 10.7393 12.5388 10.631Z" fill="#030E31"></path><path d="M14.1721 18.4883H15.3809L19.7 14.1456L18.4913 12.9303L14.1721 17.273V18.4883Z" fill="#030E31"></path></svg>