<svg xmlns:xlink="http://www.w3.org/1999/xlink" width="25" height="24" viewBox="0 0 25 24" fill="none" xmlns="http://www.w3.org/2000/svg"><path d="M23.169 1.33926C22.9232 1.30169 22.6937 1.46877 22.6549 1.71377C22.242 4.35892 21.69 5.7649 20.5605 5.96057C18.5224 6.31316 15.9358 2.81824 13.5521 3.44605C12.6584 3.68096 12.3541 4.3515 12.1088 4.89084C11.872 5.41225 11.6667 5.86302 10.9895 6.08896C9.1515 6.70304 6.821 4.72349 4.94403 5.48233C4.06713 5.83666 3.5789 6.65353 3.49003 7.91331C2.70651 8.1073 2.12491 8.81428 2.12491 9.65413C2.12491 10.4884 2.6992 11.192 3.47485 11.3916V13.9711C3.47485 14.2188 3.67633 14.4197 3.92483 14.4197C4.17333 14.4197 4.3748 14.2188 4.3748 13.9711V11.3916C5.15046 11.192 5.72474 10.4884 5.72474 9.65413C5.72474 8.82605 5.15889 8.12692 4.39168 7.92116C4.49799 6.62998 5.07958 6.39507 5.28207 6.31322C6.72533 5.7298 9.10695 7.66321 11.2752 6.94002C12.3248 6.58962 12.6595 5.85292 12.9289 5.26087C13.1741 4.72097 13.3232 4.43391 13.7822 4.31281C15.6365 3.8255 18.2391 7.27232 20.7141 6.84415C22.7428 6.49375 23.2287 3.87379 23.5447 1.85169C23.5824 1.60669 23.4148 1.37738 23.169 1.33926ZM4.82478 9.65413C4.82478 10.1486 4.42093 10.5512 3.92483 10.5512C3.42872 10.5512 3.02487 10.1486 3.02487 9.65413C3.02487 9.1611 3.42726 8.75709 3.92483 8.75709C4.42093 8.75709 4.82478 9.15964 4.82478 9.65413Z" fill="#030E31"></path><path d="M13.7681 17.1108C13.7681 16.1199 12.9622 15.3167 11.9682 15.3167H9.60581C9.35731 15.3167 9.15583 15.5175 9.15583 15.7652C9.15583 15.7594 9.16185 15.9801 9.13558 16.2137C8.97246 17.6804 7.83458 18.8583 6.3834 19.0887C6.09024 19.1346 5.82773 18.8854 5.8698 18.5804C5.89669 18.3852 6.05694 18.2365 6.25139 18.2013C6.43475 18.1682 6.59264 18.13 6.79513 18.0443C7.50863 17.7555 8.11435 17.0476 8.23337 16.1762C8.25688 16.0005 8.25216 16.1513 8.25587 14.2128L8.33124 14.2885C8.50674 14.4633 8.79242 14.4634 8.96796 14.2885C9.14143 14.1156 9.1452 13.8313 8.96796 13.6538L8.12425 12.8128C7.84296 12.5337 7.35591 12.7227 7.35591 13.144V15.3167H2.79991C1.80586 15.3167 1 16.1199 1 17.1108V21.5399C1 22.5307 1.80586 23.334 2.79991 23.334H12.0807C13.0126 23.334 13.7681 22.5809 13.7681 21.652V17.1108Z" fill="#030E31"></path></svg>