<svg xmlns:xlink="http://www.w3.org/1999/xlink" width="22" height="22" viewBox="0 0 22 22" fill="none" xmlns="http://www.w3.org/2000/svg"><path d="M17.4111 1.93288H19.3856V17.6055H17.4111V1.93288ZM13.4795 2.50013L13.2061 2.58506C12.8638 2.69323 12.4616 2.5426 12.3232 2.25591C12.2569 2.11711 12.2537 1.96373 12.3145 1.82345C12.3851 1.66119 12.5351 1.53422 12.7254 1.47486L15.808 0.514648L16.1833 3.26133C16.2044 3.40119 16.1651 3.544 16.0723 3.66231C15.9589 3.80767 15.7766 3.90189 15.5721 3.92133C15.5476 3.92386 15.5201 3.92513 15.4937 3.92513C15.1449 3.92513 14.8487 3.70288 14.8047 3.40879L14.7572 2.99323C11.1946 7.9261 2.99091 13.2131 2.63492 13.4408C2.51408 13.5181 2.36957 13.5593 2.21661 13.5593C2.01042 13.5593 1.81647 13.4833 1.68485 13.35C1.5638 13.2281 1.50718 13.0726 1.52471 12.9128C1.54309 12.747 1.6426 12.5945 1.79809 12.4956C1.88154 12.4419 10.0071 7.1892 13.4795 2.50013ZM15.8152 5.41393V17.6051H13.8411V5.41393H15.8152ZM12.3629 9.03652V17.6055H10.3882V9.03652H12.3629ZM8.79229 12.7998V17.6049H6.818V12.7998H8.79229ZM5.01759 14.6824V17.6051H3.04351V14.6824H5.01759ZM19.9998 19.4866H0V18.0217H20L19.9998 19.4866Z" fill="#030E31"></path></svg>