<svg xmlns:xlink="http://www.w3.org/1999/xlink" width="26" height="24" viewBox="0 0 26 24" fill="none" xmlns="http://www.w3.org/2000/svg"><path d="M23.4263 5.1945C22.5217 3.30812 19.9158 1.76471 16.8846 2.66332C15.5347 3.138 14.339 3.98036 13.4281 5.09846C12.7147 6.04723 12.15 7.10235 11.7539 8.22643L16.1825 10.2431L12.4222 13.8513L13.9749 15.7308L12.915 16.65L10.4847 13.7552L13.6847 10.6616L10.0121 9.00842C10.3362 7.67737 10.8599 6.4049 11.5648 5.23566C11.7812 4.86853 12.0202 4.5157 12.2805 4.17928H12.321C11.5723 3.47954 10.673 2.96743 9.69482 2.6839C6.67713 1.77843 4.07799 3.30812 3.17336 5.1945C1.90417 7.83543 2.43075 10.8056 4.73959 14.0228C6.54886 16.5402 9.13449 19.092 12.888 22.0553C13.0067 22.1493 13.1528 22.2004 13.3032 22.2004C13.4537 22.2004 13.5998 22.1493 13.7184 22.0553C17.4652 19.0989 20.0576 16.5677 21.8669 14.0228C24.1689 10.8056 24.6955 7.83543 23.4263 5.1945Z" fill="#030E31"></path></svg>