<svg xmlns:xlink="http://www.w3.org/1999/xlink" width="80" height="24" viewBox="0 0 80 24" fill="none" xmlns="http://www.w3.org/2000/svg"><g opacity="0.56" fill="none"><path d="M29.6475 9.08831V10.6267H26.496V19.2752H24.7631V10.6267H21.6251V9.08831H29.6475ZM30.7865 11.8993V13.3229H30.8141C30.867 13.113 30.9594 12.9153 31.0865 12.7405C31.367 12.3434 31.7516 12.0324 32.1976 11.8419C32.4215 11.7489 32.6611 11.7001 32.9033 11.6983C33.0849 11.6983 33.2176 11.7055 33.2877 11.7127C33.3578 11.7199 33.4274 11.7343 33.5044 11.7404V13.3076C33.3926 13.286 33.2808 13.2716 33.1619 13.2571C33.0483 13.243 32.9339 13.2358 32.8194 13.2355C32.5589 13.2359 32.3016 13.2927 32.0648 13.4019C31.8265 13.5138 31.6163 13.6784 31.4502 13.8834C31.2635 14.1189 31.1215 14.3869 31.031 14.674C30.9221 15.0252 30.8702 15.3917 30.8773 15.7595V19.2677H29.2975V11.8993H30.7865ZM40.7645 19.2763H39.2132V18.2472H39.1856C38.9887 18.6223 38.6878 18.9319 38.3192 19.1385C37.9649 19.354 37.5597 19.4706 37.1455 19.4763C36.2022 19.4763 35.5172 19.2389 35.0982 18.7574C34.6793 18.276 34.4692 17.5497 34.4692 16.5793V11.8993H36.0484V16.4212C36.0484 17.0682 36.1671 17.5283 36.4116 17.7943C36.5414 17.9311 36.6993 18.0379 36.8742 18.1074C37.0491 18.177 37.237 18.2075 37.4248 18.197C37.7102 18.2076 37.9944 18.1536 38.2563 18.0389C38.4676 17.9441 38.6523 17.7985 38.7942 17.6148C38.9386 17.4281 39.0412 17.2122 39.095 16.982C39.1586 16.7206 39.1889 16.4523 39.1853 16.1833V11.9063H40.7645V19.2763ZM43.4545 16.911C43.4585 17.1069 43.508 17.2992 43.5991 17.4726C43.6901 17.6459 43.8202 17.7955 43.9789 17.9094C44.3109 18.1057 44.6908 18.2053 45.0759 18.197C45.2442 18.1942 45.4121 18.1822 45.5791 18.1609C45.7613 18.1392 45.9399 18.0932 46.1101 18.0242C46.2699 17.9622 46.4117 17.8609 46.5224 17.7294C46.632 17.5858 46.6843 17.4063 46.6692 17.226C46.6686 17.1301 46.6485 17.0353 46.6101 16.9475C46.5716 16.8597 46.5157 16.7807 46.4457 16.7155C46.2919 16.5731 46.1114 16.463 45.9147 16.3918C45.673 16.3041 45.4252 16.2344 45.1734 16.1833C44.8938 16.1259 44.6145 16.061 44.328 15.9963C44.0395 15.931 43.7549 15.8495 43.4755 15.752C43.2117 15.6632 42.964 15.5321 42.7419 15.3638C42.5225 15.2025 42.3451 14.9905 42.2247 14.7456C42.0843 14.4549 42.0171 14.1339 42.029 13.811C42.0177 13.4537 42.1179 13.1018 42.3155 12.8045C42.5037 12.5351 42.7497 12.3115 43.0353 12.1503C43.3385 11.9822 43.6663 11.8633 44.0065 11.7981C44.3432 11.7342 44.685 11.7005 45.0276 11.6974C45.3851 11.6971 45.7415 11.7381 46.0896 11.8197C46.4165 11.8935 46.7269 12.0276 47.0051 12.2152C47.2787 12.3985 47.5099 12.6389 47.6829 12.9199C47.8738 13.2397 47.9908 13.5984 48.0254 13.9696H46.3764C46.3598 13.8067 46.304 13.6502 46.2139 13.5137C46.1238 13.3772 46.0021 13.2647 45.8592 13.1859C45.5669 13.0463 45.2463 12.9774 44.9228 12.9845C44.7895 12.9845 44.6565 12.9937 44.5245 13.0123C44.3767 13.0329 44.2315 13.0691 44.0912 13.1201C43.9616 13.1703 43.8447 13.2489 43.749 13.3501C43.6535 13.4589 43.6035 13.6006 43.6093 13.7455C43.6063 13.8358 43.6228 13.9256 43.6578 14.0088C43.6927 14.092 43.7453 14.1666 43.8119 14.2273C43.9666 14.3614 44.1443 14.4662 44.3363 14.5365C44.5778 14.6241 44.8254 14.6938 45.077 14.745C45.3566 14.8024 45.6431 14.8673 45.9365 14.9319C46.2221 14.9991 46.5043 15.0807 46.7818 15.1763C47.0484 15.2636 47.2987 15.3948 47.5226 15.5645C47.7595 15.7389 47.9498 15.9693 48.0766 16.2355C48.2033 16.5016 48.2627 16.7951 48.2492 17.0899C48.2606 17.4822 48.1581 17.8694 47.9542 18.2042C47.7618 18.5053 47.5038 18.7585 47.1997 18.9446C46.8792 19.1379 46.5301 19.2783 46.1655 19.3606C45.7965 19.4459 45.4192 19.4893 45.0406 19.4902C44.6162 19.4952 44.1931 19.442 43.7829 19.3321C43.4237 19.2368 43.0849 19.076 42.7836 18.8576C42.5056 18.645 42.2787 18.3723 42.1198 18.0597C41.9514 17.7044 41.8631 17.3162 41.8612 16.9226H43.4556L43.4545 16.911ZM48.6671 11.9002H49.8618V9.68485H51.441V11.8991H52.8668V13.114H51.4413V17.0538C51.4402 17.2026 51.4472 17.3514 51.4623 17.4995C51.4734 17.6105 51.5066 17.7181 51.56 17.8159C51.6125 17.9053 51.6939 17.9738 51.7907 18.01C51.9249 18.0587 52.0673 18.0806 52.2099 18.0747C52.3217 18.0747 52.4335 18.0747 52.5452 18.0674C52.6583 18.0612 52.7706 18.0443 52.8806 18.017V19.2752C52.7059 19.2969 52.5311 19.3113 52.3705 19.3326C52.2013 19.3528 52.0309 19.3621 51.8605 19.3604C51.5209 19.3695 51.1819 19.3283 50.8543 19.2381C50.6274 19.1742 50.4222 19.0496 50.2603 18.8775C50.1122 18.7107 50.0109 18.5072 49.967 18.2879C49.9124 18.0205 49.882 17.7486 49.8762 17.4756V13.1285H48.6814V11.8993L48.6671 11.9002ZM53.9845 11.9002H55.4798V12.8986H55.5074C55.7043 12.4948 56.032 12.1703 56.4366 11.9784C56.8414 11.7895 57.2829 11.6938 57.7291 11.698C58.2377 11.6848 58.7425 11.7906 59.2034 12.0072C59.6138 12.2011 59.973 12.4893 60.2521 12.8484C60.5365 13.222 60.7476 13.6466 60.8742 14.0994C61.0169 14.595 61.0875 15.1088 61.084 15.6247C61.0854 16.1104 61.0221 16.594 60.8955 17.0627C60.7803 17.505 60.5888 17.9235 60.3297 18.2993C60.0668 18.6749 59.7153 18.9792 59.3068 19.1849C58.8982 19.3907 58.4453 19.4914 57.9885 19.4782C57.7565 19.4781 57.525 19.4565 57.2969 19.4136C57.0683 19.3702 56.8456 19.3002 56.6331 19.2051C56.4208 19.1121 56.223 18.9886 56.0461 18.8384C55.8692 18.6903 55.716 18.5158 55.5918 18.3209H55.5642V22H53.9845V11.9002ZM59.5042 15.5953C59.5045 15.2677 59.4623 14.9414 59.3786 14.6247C59.302 14.3268 59.1743 14.0446 59.0014 13.7907C58.8394 13.5528 58.6269 13.3539 58.3793 13.2083C57.9907 13.0001 57.5419 12.935 57.1106 13.0243C56.6793 13.1136 56.2927 13.3517 56.0177 13.6973C55.657 14.2617 55.4811 14.9254 55.5146 15.5953C55.5102 15.945 55.5549 16.2935 55.6473 16.6306C55.7251 16.9274 55.8604 17.2059 56.0456 17.4501C56.2132 17.6741 56.428 17.8582 56.6745 17.9892C56.9501 18.1265 57.2543 18.1956 57.5619 18.1908C57.8694 18.186 58.1713 18.1074 58.4425 17.9615C58.688 17.8127 58.8978 17.6114 59.0571 17.3719C59.2233 17.1197 59.3421 16.839 59.4076 16.5438C59.472 16.2316 59.5048 15.9136 59.5053 15.5948L59.5042 15.5953ZM62.2917 9.08914H63.8706V10.6275H62.2917V9.08914ZM62.2917 11.9002H63.8706V19.2772H62.2917V11.9002ZM65.2834 9.08831H66.8623V19.2752H65.2834V9.08831ZM71.7047 19.4766C71.1798 19.4849 70.6588 19.3845 70.1741 19.1818C69.7431 18.9959 69.3552 18.722 69.0351 18.3775C68.7194 18.02 68.4793 17.6017 68.3294 17.1481C68.1629 16.6427 68.0804 16.1132 68.0852 15.5809C68.0809 15.0532 68.1634 14.5285 68.3294 14.0278C68.4793 13.5742 68.7194 13.1559 69.0351 12.7984C69.3518 12.45 69.7406 12.1755 70.1741 11.9942C71.1568 11.6012 72.2519 11.6012 73.2345 11.9942C73.6656 12.18 74.0535 12.4539 74.3735 12.7984C74.6893 13.1559 74.9293 13.5742 75.0792 14.0278C75.2454 14.5284 75.3281 15.0532 75.324 15.5809C75.3286 16.1133 75.2459 16.6428 75.0792 17.1481C74.9293 17.6017 74.6892 18.02 74.3735 18.3775C74.0568 18.7259 73.668 19.0004 73.2345 19.1818C72.7501 19.3844 72.2294 19.4848 71.7047 19.4766ZM71.7047 18.1898C72.0247 18.1963 72.3407 18.1168 72.6199 17.9596C72.8732 17.8107 73.0901 17.6068 73.2547 17.3628C73.4241 17.1078 73.5493 16.8258 73.6251 16.5288C73.7834 15.9086 73.7834 15.2582 73.6251 14.638C73.5539 14.3394 73.4283 14.0567 73.2547 13.804C73.0898 13.5621 72.8729 13.3606 72.6199 13.2144C72.3381 13.0634 72.0237 12.9843 71.7043 12.9843C71.385 12.9843 71.0705 13.0634 70.7887 13.2144C70.5373 13.3627 70.3208 13.5638 70.154 13.804C69.9833 14.0583 69.858 14.3405 69.7836 14.638C69.6253 15.2582 69.6253 15.9086 69.7836 16.5288C69.8564 16.8268 69.9819 17.1093 70.154 17.3628C70.3186 17.6068 70.5355 17.8107 70.7887 17.9596C71.0669 18.1201 71.3842 18.1998 71.7047 18.1898ZM75.7849 11.8993H76.9797V9.68485H78.5591V11.8991H79.9846V13.114H78.5591V17.0538C78.558 17.2026 78.565 17.3514 78.5801 17.4995C78.5914 17.6104 78.6246 17.718 78.6778 17.8159C78.7304 17.9052 78.8118 17.9737 78.9085 18.01C79.0428 18.0586 79.1852 18.0806 79.3278 18.0747C79.4395 18.0747 79.5516 18.0747 79.6631 18.0674C79.7764 18.0612 79.8888 18.0443 79.999 18.017V19.2752C79.824 19.2969 79.6496 19.3113 79.4887 19.3326C79.3193 19.3528 79.1489 19.3621 78.9784 19.3604C78.6388 19.3695 78.2997 19.3283 77.9721 19.2381C77.7453 19.1743 77.5401 19.0497 77.3785 18.8775C77.23 18.7109 77.1286 18.5073 77.0848 18.2879C77.0302 18.0205 76.9998 17.7486 76.994 17.4756V13.1285H75.7993V11.8993H75.7849Z" fill="#A0A6BA"></path><path d="M19.7875 9.08858H12.5484L10.3126 2L8.06968 9.08858L0.830566 9.08136L6.69306 13.4668L4.45012 20.5482L10.3126 16.1699L16.1679 20.5482L13.9325 13.4668L19.7875 9.08858Z" fill="#A0A6BA"></path><path d="M14.4358 15.0696L13.9313 13.4666L10.3126 16.1699L14.4358 15.0696Z" fill="#A0A6BA"></path></g></svg>