<svg xmlns:xlink="http://www.w3.org/1999/xlink" xmlns="http://www.w3.org/2000/svg" width="128" height="128" viewBox="0 0 128 128" fill="none">
<path fill-rule="evenodd" clip-rule="evenodd" d="M63.9319 16C63.9319 16 75.3026 30.6445 101.863 33.8961V66.8496C101.863 83.5314 94.5158 94.5087 63.9306 112C33.3454 94.5046 26 83.5205 26 66.8441V33.8906C52.5613 30.6445 63.9319 16 63.9319 16ZM49.853 47.541H37.5193V76.3391H44.1136V68.3988H49.853C52.1071 68.4518 54.347 68.0241 56.4271 67.1436C58.1792 66.3942 59.6715 65.1343 60.7144 63.5242C61.7409 61.8686 62.2645 59.9445 62.2205 57.9904C62.2962 56.0453 61.7816 54.1234 60.7458 52.4834C59.7101 50.8433 58.2029 49.5637 56.4271 48.8168C54.3505 47.9226 52.1091 47.4876 49.853 47.541ZM49.487 62.969H44.1136V52.9708H49.487C51.0962 52.8577 52.694 53.3161 54.0052 54.2671C54.5283 54.7257 54.9399 55.3002 55.2081 55.9459C55.4763 56.5916 55.594 57.2912 55.5519 57.9904C55.5907 58.6828 55.4714 59.375 55.2032 60.0131C54.9349 60.6513 54.525 61.2182 54.0052 61.67C52.6943 62.622 51.0965 63.0813 49.487 62.969ZM85.9317 61.3651C87.0899 60.78 88.0603 59.874 88.7298 58.7525C89.3993 57.631 89.7406 56.3402 89.7138 55.0301C89.7427 53.9543 89.5022 52.8887 89.0148 51.9324C88.5273 50.976 87.8087 50.1601 86.9259 49.5606C84.5286 48.0699 81.7346 47.3659 78.9267 47.5451H65.0085V76.3391H79.7439C82.7101 76.5326 85.6657 75.8236 88.2307 74.3031C89.1688 73.6676 89.9295 72.7981 90.4393 71.7786C90.9491 70.7591 91.191 69.6238 91.1416 68.4822C91.1931 66.8654 90.7049 65.2782 89.7557 63.9768C88.7829 62.7211 87.4447 61.807 85.9304 61.3637L85.9317 61.3651ZM71.5624 52.5606H78.1162C79.4051 52.4776 80.6905 52.7704 81.82 53.4043C82.2314 53.6765 82.5646 54.0537 82.7861 54.4978C83.0075 54.9419 83.1095 55.4372 83.0816 55.9339C83.108 56.4333 83.0056 56.931 82.7844 57.3781C82.5632 57.8252 82.2308 58.2064 81.82 58.484C80.6954 59.1325 79.4077 59.4329 78.1162 59.3482H71.5624V52.5606ZM79.2617 71.3209H71.5624V64.2024H79.2617C82.7619 64.2024 84.5121 65.3956 84.5121 67.7821C84.5462 68.3068 84.4415 68.8312 84.2089 69.3013C83.9762 69.7714 83.6239 70.1703 83.1883 70.4567C81.9827 71.1109 80.62 71.4098 79.2549 71.3195L79.2617 71.3209Z" fill="#112152"/>
</svg>