<svg xmlns:xlink="http://www.w3.org/1999/xlink" xmlns="http://www.w3.org/2000/svg" width="128" height="128" viewBox="0 0 128 128" fill="none">
<path d="M64.0152 26.373C52.4165 26.373 42.9805 35.7881 42.9805 47.3612C42.9805 58.9343 52.4165 68.3494 64.0152 68.3494C75.6139 68.3494 85.0499 58.9343 85.0499 47.3612C85.0499 35.7881 75.6139 26.373 64.0152 26.373Z" fill="#112152"/>
<path d="M29.8403 16.7539C22.6673 16.7539 16.832 22.5765 16.832 29.7334C16.832 36.8903 22.6676 42.7129 29.8403 42.7129C32.2313 42.7129 34.5228 42.077 36.5386 40.8633C37.5995 36.3735 39.7426 32.2391 42.8127 28.7624C42.313 22.0573 36.6855 16.7539 29.8403 16.7539Z" fill="#FFD700"/>
<path d="M91.4085 40.5375C93.4443 41.784 95.7641 42.4375 98.1882 42.4375C105.361 42.4375 111.196 36.6149 111.196 29.458C111.196 22.3011 105.361 16.4785 98.188 16.4785C91.255 16.4785 85.5715 21.9181 85.1992 28.7446C88.1979 32.1365 90.3191 36.1653 91.4085 40.5375Z" fill="#FFD700"/>
<path d="M78.86 71.3945C75.4111 73.5409 71.6313 74.8958 67.6134 75.4036V97.566H60.4173V75.4036C56.3994 74.8958 52.6196 73.5409 49.1707 71.3945C36.7424 77.1628 28.8652 89.4842 28.8652 103.287V112.478H99.1655V103.287C99.1655 89.4842 91.2884 77.1628 78.86 71.3945Z" fill="#112152"/>
<path d="M7 72.7107H34.418C37.0521 70.2251 39.9653 68.0235 43.1257 66.2404C38.8211 61.4989 36.2113 55.4082 35.8322 48.9638C33.9109 49.5586 31.8974 49.8785 29.8412 49.8785C26.2853 49.8785 22.8571 48.9719 19.8116 47.2266C11.9723 51.0327 7 58.8979 7 67.7187L7 72.7107Z" fill="#FFD700"/>
<path d="M93.326 72.4355H121.03V67.444C121.03 58.6235 116.058 50.7654 108.218 46.959C105.173 48.7043 101.745 49.618 98.1891 49.618C96.1382 49.618 94.1296 49.3142 92.2127 48.7218C91.8918 55.2662 89.2694 61.4335 84.9043 66.2418C87.949 67.9598 90.7661 70.2263 93.326 72.4355Z" fill="#FFD700"/>
</svg>