<svg xmlns:xlink="http://www.w3.org/1999/xlink" xmlns="http://www.w3.org/2000/svg" width="128" height="128" viewBox="0 0 128 128" fill="none">
<path d="M64.1484 33.7694C69.1189 33.7694 73.1483 29.74 73.1483 24.7695C73.1483 19.7989 69.1189 15.7695 64.1484 15.7695C59.1778 15.7695 55.1484 19.7989 55.1484 24.7695C55.1484 29.74 59.1778 33.7694 64.1484 33.7694Z" fill="#112152"/>
<path d="M78.7582 28.0723C77.2454 34.7538 71.2846 39.7686 64.1522 39.7686C57.0199 39.7686 51.059 34.7538 49.5463 28.0723C44.1813 29.2677 40.1523 34.0477 40.1523 39.7686V51.7686C40.1523 55.0763 42.8447 57.7687 46.1524 57.7687C49.46 57.7687 52.1524 55.0763 52.1524 51.7686V45.7686H76.1523V51.7686C76.1523 55.0763 78.8447 57.7687 82.1523 57.7687C85.4599 57.7687 88.1523 55.0763 88.1523 51.7686V39.7686C88.1521 34.0477 84.123 29.2677 78.7582 28.0723Z" fill="#FFD700"/>
<path d="M110.648 89.0902C106.343 86.6048 100.839 88.0794 98.3537 92.3843C95.8685 96.6887 97.3433 102.193 101.648 104.678C105.953 107.164 111.657 105.689 114.142 101.384C116.628 97.0795 114.953 91.5754 110.648 89.0902Z" fill="#112152"/>
<path d="M105.16 68.5992L94.7678 62.5992C91.9032 60.9454 88.2255 61.9309 86.5717 64.7955C84.9179 67.6601 85.9034 71.3378 88.768 72.9916L93.9642 75.9915L81.9642 96.7761L76.768 93.7762C73.9033 92.1224 70.2257 93.1078 68.5719 95.9725C66.9181 98.8371 67.9035 102.515 70.7682 104.169L81.1601 110.169C86.115 113.029 92.2691 111.93 95.9865 107.881C90.9565 103.23 89.5938 95.5609 93.16 89.3838C96.7262 83.2068 104.05 80.5523 110.592 82.5828C112.24 77.3392 110.115 71.4597 105.16 68.5992Z" fill="#FFD700"/>
<path d="M29.9466 92.3844C27.4612 88.0795 21.9571 86.6047 17.6523 89.0903C13.3478 91.5755 11.6727 97.0796 14.1583 101.384C16.6433 105.689 22.3478 107.164 26.6522 104.679C30.9571 102.193 32.4319 96.6888 29.9466 92.3844Z" fill="#112152"/>
<path d="M59.7323 95.9724C58.0785 93.1077 54.4007 92.1225 51.5362 93.7761L46.34 96.776L34.34 75.9914L39.5362 72.9915C42.4008 71.3377 43.3861 67.6599 41.7325 64.7954C40.0787 61.9308 36.4008 60.9455 33.5364 62.5991L23.1444 68.5992C18.1895 71.4596 16.0644 77.3391 17.712 82.5829C24.2547 80.5522 31.5782 83.2069 35.1444 89.3839C38.7106 95.561 37.3479 103.23 32.3179 107.881C36.0354 111.93 42.1894 113.029 47.1443 110.169L57.5362 104.168C60.4007 102.515 61.3861 98.8368 59.7323 95.9724Z" fill="#FFD700"/>
</svg>