<svg xmlns:xlink="http://www.w3.org/1999/xlink" xmlns="http://www.w3.org/2000/svg" width="128" height="128" viewBox="0 0 128 128" fill="none">
<path d="M37.9977 50.8176C37.6091 52.0142 37.9332 53.3276 38.8343 54.2056L49.2211 64.3308L46.7691 78.6273C46.5565 79.8671 47.0666 81.1201 48.0842 81.8595C48.6599 82.2779 49.3416 82.4907 50.0271 82.4907C50.553 82.4907 51.0809 82.3653 51.5643 82.1111L64.4042 75.3612L77.2436 82.1111C77.7268 82.3651 78.2549 82.4907 78.7813 82.4907H78.7925C80.6146 82.4872 82.091 81.0088 82.091 79.1858C82.091 78.9322 82.0621 78.685 82.0079 78.4475L79.5866 64.3308L89.974 54.2056C90.8747 53.3276 91.1992 52.0142 90.8102 50.8176C90.4215 49.6213 89.3875 48.7492 88.1427 48.5686L73.7878 46.483L67.3682 33.475C66.8114 32.3469 65.6624 31.6328 64.4046 31.6328C63.1468 31.6328 61.9978 32.3471 61.441 33.475L55.021 46.483L40.6665 48.5686C39.4208 48.7494 38.3868 49.6215 37.9977 50.8176Z" fill="#FFD700"/>
<path d="M118.524 57.2151C118.189 57.106 115.151 56.1504 111.682 56.1504C109.511 56.1504 107.607 56.5318 106.004 57.2814C105.972 56.727 105.932 56.174 105.878 55.6225C108.599 54.8527 112.308 53.3023 114.416 50.2924C117.819 45.4327 116.22 37.9485 116.026 37.111C115.646 35.4639 114.082 34.3698 112.405 34.5751C111.593 34.6745 104.692 35.6382 101.093 39.9202C100.847 39.4637 100.594 39.01 100.329 38.5621C100.312 38.5319 100.293 38.5028 100.275 38.4731C102.416 36.625 105.119 33.6539 105.757 30.0375C106.787 24.1936 102.174 18.0875 101.645 17.4104C100.603 16.0786 98.7252 15.7476 97.2908 16.6428C96.5973 17.0764 90.7452 20.87 89.2963 26.2759C88.001 25.3091 86.6511 24.4122 85.247 23.5998C83.6668 22.6859 81.6455 23.225 80.7312 24.805C79.8173 26.3847 80.3569 28.4066 81.9366 29.3206C84.9046 31.0382 87.5619 33.163 89.8577 35.5983C95.9083 41.9229 99.6254 50.4984 99.6254 59.9422C99.6254 79.395 83.8558 95.1643 64.4033 95.1643C44.9508 95.1643 29.1815 79.395 29.1815 59.9425C29.1815 50.5057 32.8928 41.9362 38.9353 35.6128C41.2344 33.1714 43.8963 31.0415 46.8707 29.3208C48.4509 28.4069 48.9905 26.3849 48.0766 24.805C47.1627 23.225 45.1409 22.6859 43.5612 23.5991C42.1566 24.4117 40.8063 25.3089 39.5105 26.2754C38.0626 20.8695 32.2096 17.076 31.5156 16.6426C30.0817 15.747 28.203 16.0781 27.162 17.4102C26.6327 18.0871 22.0196 24.1934 23.0498 30.0379C23.6879 33.6541 26.3908 36.6248 28.5317 38.4729C28.5141 38.5026 28.4952 38.5315 28.4775 38.5612C28.2134 39.0094 27.9602 39.4632 27.7137 39.9202C24.1144 35.6379 17.2138 34.6745 16.4017 34.5749C14.7239 34.3695 13.161 35.4637 12.7805 37.111C12.5868 37.9485 10.9877 45.4327 14.3908 50.292C16.4984 53.3021 20.2074 54.8525 22.9289 55.6223C22.8751 56.1738 22.835 56.727 22.8028 57.2812C21.2004 56.5318 19.2957 56.1502 17.1244 56.1502C13.656 56.1502 10.618 57.1058 10.2831 57.2146C8.67536 57.7377 7.72135 59.3899 8.07255 61.0439C8.25101 61.8844 9.9647 69.3424 15.1036 72.31C16.8499 73.318 19.0139 73.8291 21.5355 73.8291C22.8187 73.8291 24.0422 73.6983 25.0922 73.5282C25.2769 74.0521 25.4705 74.5718 25.6752 75.0861C25.6735 75.0861 25.6717 75.0859 25.6701 75.0859C20.0767 75.0859 14.8802 79.7832 14.3058 80.319C13.0695 81.4724 12.9034 83.373 13.9206 84.7236C14.4375 85.4101 19.1426 91.4463 25.0535 91.9632C25.3339 91.9877 25.6219 92 25.9099 92H25.9107C29.2703 92 32.4852 90.3057 34.6429 88.8359C35.032 89.2334 35.4281 89.6231 35.8326 90.005C30.7489 92.3627 28.0228 98.7997 27.7159 99.5596C27.0829 101.128 27.7357 102.92 29.2288 103.714C29.7078 103.969 34.0403 106.204 38.5466 106.205H38.5475C39.9322 106.205 41.2211 105.991 42.3783 105.57C45.8308 104.313 48.2879 101.132 49.736 98.7021C50.9234 99.15 52.1365 99.5451 53.3723 99.8846C51.4489 101.84 49.6869 104.33 48.1413 107.316C47.3021 108.937 47.936 110.931 49.5571 111.77C51.1781 112.609 53.1722 111.976 54.0115 110.354C56.9669 104.644 60.755 101.37 64.4042 101.37C68.0539 101.37 71.8419 104.644 74.7974 110.354C75.3852 111.49 76.5393 112.141 77.7352 112.141C78.2468 112.141 78.7663 112.021 79.2517 111.77C80.8726 110.931 81.5065 108.937 80.6675 107.316C79.1217 104.329 77.36 101.84 75.4366 99.8841C76.6724 99.5446 77.885 99.1496 79.0724 98.7017C80.5203 101.131 82.9781 104.313 86.4312 105.57C87.5875 105.991 88.8764 106.204 90.2616 106.204C94.7679 106.204 99.1004 103.969 99.5798 103.714C101.072 102.92 101.725 101.127 101.092 99.5589C100.785 98.7993 98.0589 92.3622 92.9755 90.0043C93.3801 89.6229 93.7764 89.233 94.1653 88.8357C96.323 90.3053 99.5384 91.9996 102.898 91.9996C103.186 91.9996 103.474 91.9872 103.755 91.9628C109.665 91.4457 114.37 85.4096 114.888 84.7231C115.904 83.3725 115.738 81.472 114.502 80.3186C113.928 79.7828 108.731 75.0854 103.138 75.0854C103.136 75.0854 103.135 75.0856 103.133 75.0856C103.338 74.5714 103.532 74.0517 103.716 73.5277C104.766 73.6978 105.99 73.8287 107.273 73.8287C109.794 73.8287 111.958 73.3175 113.706 72.3091C118.843 69.342 120.557 61.8842 120.735 61.0434C121.085 59.3901 120.131 57.7381 118.524 57.2151Z" fill="#112152"/>
</svg>