<svg xmlns:xlink="http://www.w3.org/1999/xlink" xmlns="http://www.w3.org/2000/svg" width="34" height="24" viewBox="0 0 34 24" fill="none">
<g opacity="0.56">
<path d="M33.402 16.0335C33.4715 16.0326 33.5398 16.0525 33.598 16.0907C33.6562 16.1289 33.7018 16.1837 33.729 16.248C33.7562 16.3123 33.7637 16.3833 33.7506 16.452C33.7375 16.5206 33.7044 16.5838 33.6555 16.6335C33.6065 16.6831 33.544 16.717 33.4759 16.7309C33.4077 16.7447 33.337 16.7378 33.2728 16.7111C33.2086 16.6844 33.1537 16.639 33.1151 16.5809C33.0766 16.5227 33.0562 16.4543 33.0564 16.3844C33.0553 16.3383 33.0635 16.2925 33.0805 16.2497C33.0974 16.2068 33.1228 16.1679 33.155 16.1351C33.1873 16.1024 33.2258 16.0765 33.2683 16.059C33.3107 16.0416 33.3562 16.0329 33.402 16.0335V15.9633C33.3193 15.9649 33.2388 15.9912 33.1708 16.0386C33.1028 16.0861 33.0503 16.1527 33.0198 16.2301C32.9894 16.3075 32.9823 16.3922 32.9996 16.4736C33.0168 16.555 33.0576 16.6295 33.1168 16.6877C33.176 16.7459 33.251 16.7852 33.3323 16.8007C33.4137 16.8161 33.4977 16.8071 33.574 16.7747C33.6503 16.7423 33.7153 16.688 33.7609 16.6185C33.8066 16.5491 33.8308 16.4676 33.8306 16.3844C33.8302 16.3284 33.8188 16.273 33.797 16.2214C33.7752 16.1699 33.7435 16.1231 33.7037 16.084C33.6638 16.0448 33.6166 16.014 33.5649 15.9933C33.5131 15.9726 33.4578 15.9624 33.402 15.9633V16.0335Z" fill="#A0A6BA"/>
<path d="M33.313 16.2048H33.4152C33.4663 16.2048 33.522 16.2161 33.522 16.2761C33.522 16.351 33.466 16.3554 33.4027 16.3554H33.314V16.4182H33.3996L33.5286 16.6293H33.612L33.4724 16.4146C33.4897 16.4146 33.5068 16.4112 33.5227 16.4044C33.5385 16.3976 33.5529 16.3876 33.5648 16.3751C33.5768 16.3626 33.5861 16.3478 33.5921 16.3316C33.5982 16.3153 33.601 16.2981 33.6002 16.2808C33.6002 16.1843 33.5427 16.1423 33.4269 16.1423H33.2404V16.6296H33.3147V16.2048H33.313Z" fill="#A0A6BA"/>
<path d="M23.3527 2.00075C24.6674 1.98577 25.972 2.23333 27.1909 2.72911C28.4099 3.22489 29.519 3.95902 30.4539 4.88899C31.3889 5.81897 32.1311 6.9263 32.6377 8.14687C33.1443 9.36745 33.4052 10.677 33.4052 11.9997C33.4052 13.3224 33.1443 14.6319 32.6377 15.8525C32.1311 17.0731 31.3889 18.1804 30.4539 19.1104C29.519 20.0404 28.4099 20.7745 27.1909 21.2703C25.972 21.766 24.6674 22.0136 23.3527 21.9986C21.0193 22.0032 18.7571 21.1913 16.9534 19.7021C15.4872 20.912 13.7112 21.6808 11.8298 21.92C9.94838 22.1593 8.03806 21.8592 6.31869 21.0544C4.59931 20.2497 3.14076 18.9728 2.11088 17.3709C1.08101 15.769 0.521675 13.9072 0.497253 11.9996C0.521838 10.0921 1.08124 8.23044 2.11109 6.62871C3.14095 5.02698 4.5994 3.7503 6.31863 2.94558C8.03786 2.14086 9.948 1.84079 11.8293 2.07992C13.7105 2.31904 15.4864 3.08763 16.9527 4.29725C18.7565 2.80782 21.0191 1.99593 23.3527 2.00075ZM8.67244 10.719C8.30802 10.7204 7.94434 10.7521 7.58509 10.8136L7.48311 10.8321L7.47265 10.8344L7.46373 10.8359L7.45583 10.8375C7.49636 10.8298 8.03686 10.7241 7.44945 10.839L7.30541 11.5797C7.69095 11.5219 8.07943 11.486 8.46899 11.4722C8.79303 11.4843 9.15277 11.4363 9.04492 11.9501C8.80502 11.9744 7.12541 11.7113 6.8618 13.145C6.8416 13.2818 6.85264 13.4214 6.89407 13.5532C6.93551 13.685 7.00625 13.8056 7.10093 13.9058C7.19562 14.0061 7.31175 14.0833 7.44052 14.1316C7.56929 14.1799 7.70732 14.1981 7.84411 14.1848C8.32418 14.1609 8.45599 14.1006 8.624 13.9814L8.74408 14.1724H9.61958L9.99206 12.3073C10.0877 11.8426 10.2437 10.719 8.67244 10.719ZM24.5063 10.719C24.1419 10.7204 23.7782 10.7521 23.4189 10.8136L23.344 10.8269C23.4753 10.8013 23.7407 10.75 23.3504 10.8269L23.2955 10.8372H23.3014L23.3414 10.8298L23.3221 10.8336H23.3154L23.3057 10.8359H23.3012L23.2825 10.84L23.1388 11.5807C23.5242 11.5229 23.9126 11.487 24.3021 11.4733L24.3954 11.4756C24.6909 11.4812 24.9762 11.4863 24.878 11.9511C24.6381 11.9755 22.959 11.7123 22.6951 13.146C22.6749 13.2829 22.6859 13.4227 22.7274 13.5546C22.7689 13.6866 22.8397 13.8073 22.9345 13.9076C23.0294 14.0079 23.1457 14.0851 23.2747 14.1333C23.4036 14.1816 23.5418 14.1996 23.6787 14.186C24.1588 14.1622 24.2906 14.1019 24.4586 13.9827L24.5787 14.1737H25.4539L25.8262 12.3073C25.922 11.8426 26.0778 10.719 24.5063 10.719ZM14.3104 9.87079H13.3747L12.7271 13.1211C12.5469 14.0529 13.2549 14.1848 13.4706 14.1848C13.7133 14.1935 13.9538 14.1356 14.1663 14.0173L14.2262 13.3248C13.6865 13.4084 13.6623 13.1694 13.7102 12.9065L13.9741 11.5215H14.4539L14.6217 10.7805H14.1184L14.3104 9.87079ZM16.146 10.731C14.6344 10.731 14.4424 12.225 14.4065 12.4399C14.3705 12.6549 14.3466 14.1727 15.9658 14.1727C16.3718 14.1976 16.7789 14.1449 17.1656 14.0175L17.3093 13.3127C16.9601 13.368 16.6071 13.3959 16.2536 13.3963H16.1172C15.7529 13.3915 15.2947 13.3309 15.3898 12.6436H17.4294C17.5373 12.0934 17.7894 10.731 16.146 10.731ZM11.7792 10.719H11.7321C11.4802 10.7218 10.5109 10.7687 10.352 11.5315C10.22 12.1647 10.454 12.4271 10.6758 12.5233C11.0358 12.6787 11.24 12.8223 11.4318 12.918C11.4866 12.9448 11.5307 12.9896 11.5569 13.045C11.583 13.1004 11.5897 13.1631 11.5757 13.2228C11.5617 13.2825 11.528 13.3357 11.48 13.3735C11.432 13.4113 11.3726 13.4316 11.3117 13.431C10.898 13.4725 10.4803 13.4443 10.0759 13.3474L9.94413 14.0522C10.3043 14.1455 10.6761 14.1858 11.0478 14.1717H11.1069C11.4249 14.1742 12.4018 14.1604 12.5472 13.2032C12.5912 13.0473 12.5833 12.8812 12.5249 12.7302C12.4664 12.5792 12.3606 12.4515 12.2234 12.3666C12.0086 12.2269 11.7841 12.103 11.5516 11.996C11.3596 11.9126 11.2158 11.59 11.5638 11.4943C11.8723 11.4632 12.1837 11.4792 12.4875 11.5417L12.4681 11.5364L12.4753 11.5384L12.4875 11.5417L12.7032 10.8493C12.4076 10.7416 12.0929 10.6971 11.7792 10.719ZM4.34239 10.0378H2.84278L2.03918 14.173H2.97459L3.55027 11.1855L3.80241 14.173H4.69014L5.99777 11.2571L5.44581 14.173H6.4164L7.19603 10.038H5.66201L4.52213 12.5477L4.34239 10.0378ZM18.8961 10.779H18.0931L17.4557 14.173H18.3913L18.6794 12.6195C18.955 11.6038 19.3992 11.6754 19.6268 11.6754L19.8667 10.7792C19.7036 10.7664 19.5397 10.7895 19.3864 10.8471C19.2332 10.9047 19.0943 10.9954 18.9795 11.1127L18.8961 10.779ZM21.9395 9.83488C21.4477 9.85202 20.975 10.0307 20.5937 10.3437C20.2125 10.6567 19.9436 11.0867 19.8282 11.5679C19.3489 13.312 20.4042 14.173 21.3758 14.173C21.7671 14.1912 22.1572 14.1176 22.5154 13.958L22.2393 13.1214C21.2799 13.444 20.5961 12.9539 20.7519 11.9621C20.7857 11.6709 20.9169 11.3999 21.124 11.1936C21.3311 10.9873 21.6017 10.858 21.8915 10.8269C22.1429 10.8051 22.3948 10.8635 22.6113 10.9939L23.2231 10.3845C22.9835 10.1216 22.7076 9.86335 21.9395 9.83488ZM31.8238 9.82334H30.8405L30.5889 11.1378C30.4086 11.0062 30.3008 10.7315 29.8572 10.7315C29.3414 10.7315 28.5375 10.6359 28.0817 12.1894C27.7773 13.2281 28.3935 14.173 29.0653 14.173C29.3566 14.1554 29.638 14.0606 29.8811 13.8983L30.0015 14.173H31.0088L31.8238 9.82334ZM27.2712 10.7428H26.4592L25.818 14.1704H26.7631L27.054 12.601C27.3324 11.5751 27.7679 11.6351 27.9988 11.6351L28.2538 10.742C28.0889 10.7293 27.9233 10.7529 27.7684 10.8113C27.6136 10.8697 27.4733 10.9614 27.3574 11.0801L27.2712 10.7428ZM23.9186 12.7269C24.0405 12.6606 24.1741 12.619 24.3119 12.6047C24.4497 12.5903 24.589 12.6035 24.7217 12.6433L24.6498 13.0139C24.5937 13.1723 24.4782 13.3022 24.3279 13.3759C24.1777 13.4496 24.0048 13.4612 23.8462 13.4081C23.5349 13.2886 23.6186 12.9303 23.9186 12.7269ZM8.08453 12.7269C8.2066 12.6603 8.34055 12.6187 8.47867 12.6043C8.6168 12.59 8.75638 12.6032 8.8894 12.6433L8.81751 13.0139C8.76132 13.1722 8.64577 13.3021 8.49558 13.3758C8.34539 13.4495 8.1725 13.4611 8.01391 13.4081C7.70083 13.2886 7.78471 12.9303 8.08453 12.7269ZM29.0413 12.3679C29.2432 11.6187 29.9051 11.3163 30.1929 11.6987C30.3198 11.9593 30.3414 12.2591 30.2531 12.5353C30.0848 12.9537 29.8694 13.2278 29.5211 13.2278C29.1968 13.2289 28.9093 12.8577 29.0413 12.3679ZM16.1937 11.4007C16.5654 11.4007 16.6735 11.6874 16.6136 12.0221H15.45V12.0191L15.4732 11.9393C15.5084 11.7912 15.5907 11.6588 15.7075 11.5621C15.8243 11.4653 15.9693 11.4096 16.1205 11.4032L16.1937 11.4007ZM15.476 11.917L15.465 11.9616L15.4602 11.9778L15.4643 11.9639L15.476 11.917ZM15.4903 11.8605L15.4852 11.8821C15.5053 11.8016 15.4987 11.828 15.4852 11.8782L15.4903 11.8605ZM12.4411 11.5312L12.4459 11.5328L12.4564 11.5353L12.4411 11.5312ZM12.4001 11.5202L12.4077 11.5225L12.4388 11.5307L12.4283 11.5282L12.4001 11.5202ZM12.3855 11.5164L12.3932 11.5179L12.3819 11.5153L12.3855 11.5164ZM7.5731 10.8146L7.45965 10.8369H7.46322L7.4826 10.8334H7.48846L7.5731 10.8146ZM7.65571 10.7985L7.62511 10.8046L7.6478 10.8003L7.65571 10.7985ZM7.71511 10.7869L7.70338 10.7892L7.71333 10.7874L7.71511 10.7869ZM23.5492 10.7869L23.5372 10.7892L23.5036 10.7959L23.5212 10.7926L23.5492 10.7869Z" fill="#A0A6BA"/>
</g>
</svg>