<svg xmlns:xlink="http://www.w3.org/1999/xlink" xmlns="http://www.w3.org/2000/svg" width="63" height="24" viewBox="0 0 63 24" fill="none">
<g opacity="0.56">
<path fill-rule="evenodd" clip-rule="evenodd" d="M60.1982 20.8643C60.1959 20.637 60.2614 20.4142 60.3863 20.2241C60.5112 20.034 60.6899 19.8852 60.8997 19.7966C61.1094 19.708 61.3409 19.6836 61.5646 19.7265C61.7883 19.7694 61.9942 19.8776 62.1561 20.0375C62.3181 20.1974 62.4288 20.4016 62.4742 20.6244C62.5196 20.8471 62.4976 21.0783 62.4111 21.2885C62.3246 21.4988 62.1774 21.6787 61.9883 21.8054C61.7991 21.932 61.5765 21.9998 61.3487 22C61.1985 22.0007 61.0496 21.972 60.9106 21.9153C60.7715 21.8586 60.645 21.7752 60.5382 21.6697C60.4315 21.5643 60.3466 21.4388 60.2884 21.3007C60.2303 21.1625 60.1999 21.0142 60.1992 20.8643H60.1982ZM61.3487 21.7268C61.5194 21.725 61.6857 21.6729 61.8267 21.577C61.9677 21.4811 62.0771 21.3457 62.1412 21.1879C62.2052 21.03 62.221 20.8568 62.1866 20.6901C62.1522 20.5233 62.0691 20.3704 61.9478 20.2507C61.8265 20.1309 61.6724 20.0497 61.5049 20.0171C61.3374 19.9846 61.164 20.0023 61.0065 20.0679C60.8491 20.1335 60.7146 20.2441 60.62 20.3858C60.5254 20.5276 60.475 20.694 60.475 20.8643C60.4766 21.0942 60.5695 21.314 60.7333 21.4757C60.897 21.6374 61.1184 21.7276 61.3487 21.7268ZM61.1931 21.362H60.9588V20.3646H61.3842C61.4732 20.3565 61.5626 20.3738 61.642 20.4147C61.6819 20.4429 61.7143 20.4804 61.7366 20.5238C61.7589 20.5673 61.7703 20.6154 61.7699 20.6642C61.7711 20.7199 61.7551 20.7747 61.724 20.8209C61.6929 20.8672 61.6482 20.9028 61.5961 20.9228L61.7806 21.3623H61.5188L61.3658 20.9669H61.1931V21.362ZM61.1931 20.7962H61.3226C61.3714 20.8017 61.4208 20.7954 61.4666 20.7778C61.4852 20.7647 61.5003 20.7473 61.5106 20.727C61.5208 20.7067 61.526 20.6843 61.5255 20.6616C61.5247 20.6415 61.5191 20.622 61.5092 20.6046C61.4993 20.5872 61.4854 20.5723 61.4686 20.5614C61.4206 20.5432 61.369 20.5367 61.3179 20.5423H61.1931V20.7962Z" fill="#A0A6BA"/>
<path fill-rule="evenodd" clip-rule="evenodd" d="M55.2791 2.00318L59.0776 21.452H54.7208L54.1647 18.5637H48.1322L47.1433 21.452H42.198L49.2737 3.45184C49.4346 3.00754 49.7347 2.62675 50.1294 2.36584C50.5241 2.10494 50.9925 1.97778 51.4653 2.00318H55.2791ZM51.9935 7.29311L49.4996 14.5728H53.3958L51.9935 7.29311Z" fill="#A0A6BA"/>
<path fill-rule="evenodd" clip-rule="evenodd" d="M42.4643 6.8589L43.1362 2.82391C41.7805 2.31985 40.3505 2.0431 38.9042 2.00488C36.5693 2.00488 31.0245 3.06574 31.0245 8.22506C31.0245 13.0797 37.5328 13.1405 37.5328 15.6881C37.5328 18.2357 31.6957 17.7821 29.7682 16.1741L29.0696 20.3918C30.7431 21.1219 32.5545 21.484 34.3807 21.4537C37.5903 21.4537 42.4355 19.7245 42.4355 15.0214C42.4355 10.1363 35.869 9.68039 35.869 7.55668C35.869 5.43296 40.4521 5.70519 42.4643 6.8589Z" fill="#A0A6BA"/>
<path fill-rule="evenodd" clip-rule="evenodd" d="M26.1827 21.4537H21.5671L24.4517 2.00488H29.0689L26.1827 21.4537Z" fill="#A0A6BA"/>
<path fill-rule="evenodd" clip-rule="evenodd" d="M11.407 12.5012L11.9426 15.3822L16.4638 2.00488H21.5681L14.0224 21.4537H9.08116L4.96203 4.55682C3.59106 3.67225 2.10707 2.97569 0.549998 2.48588L0.535604 2.47953C2.92821 3.23452 5.1413 4.46862 7.03951 6.10635C9.01742 7.82586 10.5198 10.0233 11.4027 12.4882L11.4057 12.4982L11.407 12.5012ZM0.161351 2.37231C0.109129 2.36028 0.0669505 2.34959 0.0381618 2.34258C0.0652767 2.34926 0.106786 2.35928 0.161351 2.37231ZM0.472001 2.45982C0.4142 2.44268 0.361198 2.42731 0.312993 2.41373C0.357627 2.42597 0.406055 2.43989 0.458276 2.45548L0.472001 2.45982ZM0.0137248 2.3369L0.0267802 2.33891L0 2.3339L0.0137248 2.3369Z" fill="#A0A6BA"/>
<path fill-rule="evenodd" clip-rule="evenodd" d="M11.253 12.1926L9.6797 3.70473C9.6797 3.70473 9.48922 2.00488 7.45962 2.00488H0.0863661L0 2.32421C2.55997 3.01135 4.93298 4.26244 6.94443 5.98543C8.89539 7.64701 10.3801 9.78596 11.253 12.1926Z" fill="#A0A6BA"/>
</g>
</svg>