<svg xmlns:xlink="http://www.w3.org/1999/xlink" width="48" height="48" viewBox="0 0 48 48" fill="none" xmlns="http://www.w3.org/2000/svg"><path d="M23.9998 42.4008C20.692 42.4073 17.4441 41.5183 14.6006 39.8281C11.7572 38.1379 9.42431 35.7096 7.8494 32.8008H4.4502C4.78146 33.0928 5.13717 33.3559 5.5134 33.5872C6.21338 33.978 6.82768 34.5055 7.31979 35.1384C7.72269 35.8409 7.97981 36.6174 8.0758 37.4216C8.12469 38.086 8.34884 38.7256 8.72539 39.2752C9.27469 39.6517 9.91402 39.8759 10.5782 39.9248C11.3821 40.0204 12.1584 40.2772 12.8606 40.68C13.4927 41.1706 14.0202 41.783 14.4118 42.4808C14.7124 43.0805 15.1675 43.5892 15.7302 43.9544C16.3768 44.0922 17.0484 44.0549 17.6758 43.8464C18.4583 43.6257 19.2774 43.5653 20.0838 43.6688C20.8492 43.8779 21.5645 44.2392 22.187 44.7312C22.7018 45.1792 23.3282 45.4797 23.9998 45.6008C24.6711 45.4807 25.2975 45.1813 25.8126 44.7344C26.4363 44.2419 27.153 43.8806 27.9198 43.672C28.7257 43.5716 29.5436 43.633 30.3254 43.8528C30.9536 44.0621 31.6261 44.101 32.2742 43.9656C32.8348 43.5971 33.2884 43.0875 33.5894 42.488C33.9808 41.7875 34.5092 41.1729 35.143 40.6808C35.845 40.2774 36.6214 40.0202 37.4254 39.9248C38.0896 39.8759 38.7289 39.6517 39.2782 39.2752C39.6548 38.7256 39.8789 38.086 39.9278 37.4216C40.0236 36.618 40.2805 35.842 40.683 35.14C41.1725 34.5083 41.7834 33.9809 42.4798 33.5888C42.8577 33.3571 43.215 33.0935 43.5478 32.8008H40.1494C38.5749 35.7098 36.2423 38.1384 33.3989 39.8286C30.5555 41.5188 27.3076 42.4076 23.9998 42.4008Z" fill="#112152"></path><path fill-rule="evenodd" clip-rule="evenodd" d="M15.7987 9.32729C18.3047 7.92619 21.1291 7.19368 24.0002 7.20024C26.8713 7.19368 29.6958 7.92619 32.2018 9.32729C34.7078 10.7284 36.811 12.7509 38.309 15.2002H32.1473C30.3342 12.6578 27.3607 11 24 11C20.6393 11 17.6658 12.6578 15.8527 15.2002H9.69141C11.1894 12.7509 13.2926 10.7284 15.7987 9.32729Z" fill="#112152"></path><path fill-rule="evenodd" clip-rule="evenodd" d="M32.2013 38.8729C29.6953 40.274 26.8709 41.0065 23.9998 41C21.1287 41.0065 18.3042 40.274 15.7982 38.8729C13.2922 37.4718 11.189 35.4493 9.69099 33L15.8527 33C17.6658 35.5424 20.6393 37.2002 24 37.2002C27.3607 37.2002 30.3342 35.5424 32.1473 33L38.3086 33C36.8106 35.4493 34.7074 37.4718 32.2013 38.8729Z" fill="#112152"></path><path d="M24.0001 5.60039C27.3079 5.59354 30.5559 6.48238 33.3992 8.1726C36.2426 9.86281 38.5753 12.2913 40.1497 15.2004H43.5498C43.2185 14.9083 42.8628 14.6452 42.4866 14.414C41.7866 14.0232 41.1723 13.4957 40.6801 12.8628C40.2773 12.1603 40.0201 11.3837 39.9241 10.5796C39.8753 9.91517 39.6511 9.27558 39.2745 8.72599C38.7253 8.34943 38.0859 8.12527 37.4217 8.07639C36.6179 7.98081 35.8416 7.72394 35.1393 7.32119C34.5072 6.83052 33.9798 6.21821 33.5882 5.52039C33.2875 4.9207 32.8324 4.41202 32.2698 4.04679C31.6233 3.90771 30.9513 3.94501 30.3241 4.15479C29.5417 4.37585 28.7226 4.43626 27.9161 4.33239C27.1508 4.1233 26.4354 3.76196 25.8129 3.26999C25.2982 2.82192 24.6718 2.52144 24.0001 2.40039C23.3288 2.52052 22.7025 2.81988 22.1873 3.26679C21.5649 3.75876 20.8495 4.1201 20.0841 4.32919C19.2787 4.42863 18.4616 4.36718 17.6801 4.14839C17.052 3.93905 16.3795 3.90013 15.7313 4.03559C15.1708 4.40407 14.7172 4.9137 14.4161 5.51319C14.0243 6.21385 13.4954 6.82846 12.8609 7.32039C12.1589 7.72381 11.3826 7.98097 10.5785 8.07639C9.91437 8.12527 9.27504 8.34943 8.72575 8.72599C8.34919 9.27558 8.12504 9.91517 8.07615 10.5796C7.98031 11.3831 7.72346 12.1591 7.32095 12.8612C6.83028 13.4933 6.21797 14.0208 5.52015 14.4124C5.14227 14.644 4.78496 14.9077 4.45215 15.2004H7.84975C9.42467 12.2915 11.7576 9.86324 14.601 8.17307C17.4444 6.48291 20.6923 5.59391 24.0001 5.60039Z" fill="#112152"></path><path fill-rule="evenodd" clip-rule="evenodd" d="M1.59375 17.625H46.3125V30.375H1.59375V17.625ZM21.6674 25.7303C21.835 25.2364 21.9188 24.6984 21.9188 24.1163C21.9188 23.5343 21.835 23.0007 21.6674 22.5156C21.5081 22.0217 21.2818 21.5984 20.9885 21.2456C20.7035 20.8841 20.3599 20.6018 19.9575 20.399C19.5636 20.1961 19.1362 20.0947 18.6752 20.0947C18.2058 20.0947 17.7742 20.1961 17.3802 20.399C16.9863 20.6018 16.6427 20.8841 16.3493 21.2456C16.0643 21.5984 15.838 22.0217 15.6704 22.5156C15.5112 23.0007 15.4315 23.5343 15.4315 24.1163C15.4315 24.6984 15.5112 25.2364 15.6704 25.7303C15.838 26.2153 16.0643 26.6387 16.3493 27.0003C16.6427 27.353 16.9863 27.6308 17.3802 27.8337C17.7742 28.0277 18.2058 28.1247 18.6752 28.1247C19.1362 28.1247 19.5636 28.0277 19.9575 27.8337C20.3599 27.6308 20.7035 27.353 20.9885 27.0003C21.2818 26.6387 21.5081 26.2153 21.6674 25.7303ZM20.1084 23.1506C20.1838 23.4417 20.2216 23.7636 20.2216 24.1163C20.2216 24.4691 20.1838 24.791 20.1084 25.0821C20.033 25.3731 19.924 25.6244 19.7815 25.8361C19.6474 26.0478 19.484 26.2109 19.2912 26.3256C19.1068 26.4402 18.9015 26.4976 18.6752 26.4976C18.4405 26.4976 18.2268 26.4402 18.034 26.3256C17.8496 26.2109 17.6862 26.0478 17.5437 25.8361C17.4096 25.6244 17.3048 25.3731 17.2294 25.0821C17.1539 24.791 17.1162 24.4691 17.1162 24.1163C17.1162 23.7636 17.1539 23.4417 17.2294 23.1506C17.3048 22.8508 17.4096 22.595 17.5437 22.3833C17.6862 22.1717 17.8496 22.0085 18.034 21.8939C18.2268 21.7792 18.4405 21.7219 18.6752 21.7219C18.9015 21.7219 19.1068 21.7792 19.2912 21.8939C19.484 22.0085 19.6474 22.1717 19.7815 22.3833C19.924 22.595 20.033 22.8508 20.1084 23.1506ZM14.512 27.9924V26.3917H12.9153V20.4387H11.1929C11.151 20.5181 11.0505 20.6283 10.8912 20.7694C10.7403 20.9017 10.5601 21.0384 10.3506 21.1795C10.1411 21.3206 9.92735 21.4441 9.70943 21.5499C9.49151 21.6469 9.30712 21.6954 9.15625 21.6954V23.3491C9.3155 23.3491 9.4957 23.3182 9.69685 23.2565C9.90639 23.1947 10.1075 23.1153 10.3003 23.0183C10.4931 22.9213 10.6691 22.8199 10.8284 22.7141C10.996 22.5994 11.1175 22.4892 11.1929 22.3833V26.3917H9.40769V27.9924H14.512ZM29.6414 24.1163C29.6414 24.6984 29.5576 25.2364 29.3899 25.7303C29.2307 26.2153 29.0044 26.6387 28.711 27.0003C28.4261 27.353 28.0824 27.6308 27.6801 27.8337C27.2862 28.0277 26.8587 28.1247 26.3977 28.1247C25.9284 28.1247 25.4967 28.0277 25.1028 27.8337C24.7089 27.6308 24.3652 27.353 24.0719 27.0003C23.7869 26.6387 23.5606 26.2153 23.393 25.7303C23.2337 25.2364 23.1541 24.6984 23.1541 24.1163C23.1541 23.5343 23.2337 23.0007 23.393 22.5156C23.5606 22.0217 23.7869 21.5984 24.0719 21.2456C24.3652 20.8841 24.7089 20.6018 25.1028 20.399C25.4967 20.1961 25.9284 20.0947 26.3977 20.0947C26.8587 20.0947 27.2862 20.1961 27.6801 20.399C28.0824 20.6018 28.4261 20.8841 28.711 21.2456C29.0044 21.5984 29.2307 22.0217 29.3899 22.5156C29.5576 23.0007 29.6414 23.5343 29.6414 24.1163ZM27.9441 24.1163C27.9441 23.7636 27.9064 23.4417 27.831 23.1506C27.7555 22.8508 27.6466 22.595 27.5041 22.3833C27.37 22.1717 27.2066 22.0085 27.0138 21.8939C26.8294 21.7792 26.6241 21.7219 26.3977 21.7219C26.1631 21.7219 25.9493 21.7792 25.7566 21.8939C25.5722 22.0085 25.4087 22.1717 25.2663 22.3833C25.1321 22.595 25.0274 22.8508 24.9519 23.1506C24.8765 23.4417 24.8388 23.7636 24.8388 24.1163C24.8388 24.4691 24.8765 24.791 24.9519 25.0821C25.0274 25.3731 25.1321 25.6244 25.2663 25.8361C25.4087 26.0478 25.5722 26.2109 25.7566 26.3256C25.9493 26.4402 26.1631 26.4976 26.3977 26.4976C26.6241 26.4976 26.8294 26.4402 27.0138 26.3256C27.2066 26.2109 27.37 26.0478 27.5041 25.8361C27.6466 25.6244 27.7555 25.3731 27.831 25.0821C27.9064 24.791 27.9441 24.4691 27.9441 24.1163ZM32.3794 23.1198C32.5943 23.2091 32.8272 23.2537 33.078 23.2537C33.3216 23.2537 33.5508 23.2091 33.7658 23.1198C33.9879 23.0306 34.1777 22.9117 34.3354 22.763C34.493 22.6069 34.6184 22.4285 34.7115 22.2278C34.8047 22.0196 34.8512 21.7966 34.8512 21.5588C34.8512 21.3283 34.8047 21.109 34.7115 20.9009C34.6184 20.6927 34.493 20.5143 34.3354 20.3656C34.1777 20.217 33.9879 20.098 33.7658 20.0088C33.5508 19.9196 33.3216 19.875 33.078 19.875C32.8272 19.875 32.5943 19.9196 32.3794 20.0088C32.1645 20.098 31.9782 20.217 31.8205 20.3656C31.6629 20.5143 31.5375 20.6927 31.4444 20.9009C31.3513 21.109 31.3047 21.3283 31.3047 21.5588C31.3047 21.7966 31.3513 22.0196 31.4444 22.2278C31.5375 22.4285 31.6629 22.6069 31.8205 22.763C31.9782 22.9117 32.1645 23.0306 32.3794 23.1198ZM33.3681 22.4285C33.2822 22.4805 33.1854 22.5066 33.078 22.5066C32.8702 22.5066 32.6911 22.4136 32.5406 22.2278C32.3901 22.0419 32.3149 21.8189 32.3149 21.5588C32.3149 21.4324 32.3328 21.3134 32.3687 21.2019C32.4116 21.0904 32.469 20.9938 32.5406 20.912C32.6123 20.8228 32.6911 20.7522 32.777 20.7002C32.8702 20.6481 32.9705 20.6221 33.078 20.6221C33.2857 20.6221 33.4649 20.715 33.6153 20.9009C33.7658 21.0793 33.841 21.2986 33.841 21.5588C33.841 21.6851 33.8195 21.8078 33.7765 21.9267C33.7407 22.0382 33.687 22.1386 33.6153 22.2278C33.5437 22.3096 33.4613 22.3765 33.3681 22.4285ZM36.5278 27.8812C36.7427 27.9704 36.9756 28.015 37.2263 28.015C37.4771 28.015 37.71 27.9704 37.9249 27.8812C38.1398 27.792 38.3261 27.673 38.4837 27.5244C38.6485 27.3757 38.7739 27.201 38.8599 27.0003C38.953 26.7921 38.9996 26.5691 38.9996 26.3312C38.9996 26.0934 38.953 25.8741 38.8599 25.6734C38.7739 25.4652 38.6485 25.2868 38.4837 25.1381C38.3261 24.982 38.1398 24.8594 37.9249 24.7702C37.71 24.6809 37.4771 24.6363 37.2263 24.6363C36.9756 24.6363 36.7427 24.6809 36.5278 24.7702C36.3128 24.8594 36.1266 24.982 35.9689 25.1381C35.8113 25.2868 35.6859 25.4652 35.5928 25.6734C35.4996 25.8741 35.4531 26.0934 35.4531 26.3312C35.4531 26.5691 35.4996 26.7921 35.5928 27.0003C35.6859 27.201 35.8113 27.3757 35.9689 27.5244C36.1266 27.673 36.3128 27.792 36.5278 27.8812ZM37.5165 27.1898C37.4305 27.2419 37.3338 27.2679 37.2263 27.2679C37.0186 27.2679 36.8394 27.1787 36.689 27.0003C36.5385 26.8144 36.4633 26.5914 36.4633 26.3312C36.4633 26.2049 36.4812 26.0859 36.517 25.9744C36.56 25.8555 36.6173 25.7551 36.689 25.6734C36.7606 25.5842 36.8394 25.5135 36.9254 25.4615C37.0186 25.4095 37.1189 25.3834 37.2263 25.3834C37.3266 25.3834 37.4234 25.4095 37.5165 25.4615C37.6096 25.5061 37.6885 25.573 37.7529 25.6622C37.8246 25.744 37.8819 25.8443 37.9249 25.9633C37.9679 26.0748 37.9894 26.1974 37.9894 26.3312C37.9894 26.4576 37.9679 26.5766 37.9249 26.6881C37.8891 26.7996 37.8353 26.8999 37.7637 26.9891C37.692 27.0709 37.6096 27.1378 37.5165 27.1898ZM34.9372 23.7108L31.9065 27.3794L32.5621 27.9815L35.4531 24.1011L38.387 20.4994L37.7314 19.8973L34.9372 23.7108Z" fill="#112152"></path></svg>