<svg xmlns:xlink="http://www.w3.org/1999/xlink" class="stamp" width="128" height="128" viewBox="0 0 64 64" fill="none" xmlns="http://www.w3.org/2000/svg"><path d="M59.3589 16.9141L57.7072 16.4057C57.3622 16.2995 57.147 15.9563 57.2017 15.5995L57.4634 13.8893C57.5242 13.492 57.2515 13.1203 56.8543 13.0593L55.1463 12.7968C54.7894 12.742 54.5267 12.4339 54.5288 12.0728L54.5389 10.3424C54.5412 9.94043 54.2173 9.61249 53.8154 9.60995L52.0877 9.59898C51.7266 9.59666 51.4219 9.32999 51.3713 8.97253L51.1294 7.25897C51.0731 6.86092 50.705 6.58363 50.307 6.63961L48.5961 6.88041C48.2387 6.93071 47.8984 6.71132 47.7963 6.36482L47.3076 4.70472C47.194 4.31911 46.7896 4.09831 46.404 4.21165L44.7465 4.69903C44.4003 4.80078 44.0316 4.63326 43.8804 4.3055L43.1552 2.73409C42.9869 2.36903 42.5545 2.20946 42.1896 2.37774L40.6208 3.10131C40.2931 3.25252 39.904 3.14045 39.7066 2.83807L38.7605 1.38901C38.5407 1.0524 38.0898 0.957412 37.7534 1.17714L36.3069 2.12152C36.0047 2.31878 35.6035 2.26465 35.3642 1.99421L34.2174 0.698215C33.951 0.397068 33.4911 0.368916 33.1902 0.635386L31.8966 1.78058C31.6263 2.01976 31.2216 2.02468 30.9454 1.79188L29.6222 0.676671C29.3149 0.417532 28.8558 0.4566 28.5969 0.76399L27.484 2.0854C27.2515 2.36146 26.8517 2.42516 26.5448 2.23513L25.0735 1.3243C24.7316 1.1127 24.2833 1.21823 24.0718 1.56005L23.1631 3.02967C22.9734 3.33664 22.5872 3.45789 22.2557 3.31464L20.6677 2.62785C20.2987 2.46821 19.8705 2.63793 19.7111 3.00694L19.0261 4.5933C18.883 4.9247 18.5186 5.10105 18.17 5.00737L16.499 4.55898C16.1107 4.4548 15.7119 4.68509 15.6079 5.07346L15.1611 6.74286C15.0678 7.09169 14.733 7.31902 14.3745 7.27725L12.6563 7.07694C12.257 7.03048 11.8959 7.31644 11.8497 7.71578L11.6507 9.43263C11.6091 9.79124 11.311 10.0651 10.9502 10.076L9.22123 10.1282C8.81948 10.1404 8.50392 10.4759 8.51621 10.8778L8.56925 12.6054C8.58037 12.9662 8.3253 13.2806 7.96999 13.3439L6.26724 13.6472C5.87159 13.7177 5.60834 14.0957 5.67895 14.4915L5.98289 16.1931C6.04629 16.5486 5.83977 16.8968 5.49749 17.0112L3.85719 17.5595C3.47612 17.6868 3.27054 18.0992 3.39798 18.4805L3.94636 20.1199C4.06093 20.4624 3.9073 20.837 3.58527 21L2.04236 21.7813C1.68384 21.9628 1.54066 22.4008 1.72226 22.7595L2.5034 24.3017C2.66659 24.6238 2.56909 25.0168 2.27426 25.225L0.861532 26.2228C0.533351 26.4547 0.455246 26.9088 0.687306 27.2373L1.68449 28.6493C1.89282 28.9443 1.85355 29.3474 1.5922 29.5962L0.339982 30.7892C0.0490483 31.0664 0.0380412 31.5271 0.315193 31.8183L1.50717 33.0702C1.75611 33.3317 1.77593 33.7362 1.55376 34.0207L0.488584 35.3835C0.24111 35.7002 0.297178 36.1576 0.613941 36.4053L1.97534 37.4702C2.25979 37.6926 2.33819 38.09 2.15983 38.4037L1.30459 39.9073C1.10584 40.2566 1.22791 40.701 1.57717 40.9L3.07893 41.7555C3.39269 41.9342 3.52817 42.3158 3.39722 42.6523L2.76991 44.2644C2.62413 44.6389 2.80969 45.0609 3.18414 45.2069L4.79445 45.8347C5.1308 45.9657 5.32038 46.3237 5.23987 46.6756L4.85393 48.3621C4.7643 48.7539 5.00916 49.1444 5.401 49.2344L7.08534 49.621C7.43714 49.7017 7.67687 50.0283 7.64838 50.3882L7.5121 52.1131C7.48048 52.5138 7.77952 52.8646 8.18019 52.8965L9.90264 53.0336C10.2624 53.0623 10.547 53.3504 10.5714 53.7107L10.6877 55.4371C10.7147 55.8382 11.0616 56.1415 11.4625 56.1148L13.1863 55.9996C13.5465 55.9754 13.87 56.2192 13.9464 56.5722L14.3127 58.2634C14.3977 58.6564 14.7852 58.906 15.178 58.8212L16.8667 58.4562C17.2195 58.3799 17.5749 58.5739 17.702 58.9121L18.3105 60.5322C18.452 60.9086 18.8714 61.0993 19.2476 60.9581L20.865 60.351C21.2029 60.2242 21.5827 60.3644 21.7576 60.6804L22.5954 62.1947C22.7899 62.5465 23.2329 62.6741 23.5845 62.4795L25.0961 61.6432C25.4119 61.4684 25.8082 61.552 26.027 61.8392L27.0762 63.2154C27.3199 63.5351 27.7767 63.5968 28.0961 63.353L29.4699 62.3055C29.7568 62.0865 30.161 62.1114 30.4194 62.3636L31.6577 63.5725C31.9455 63.8534 32.4062 63.8479 32.6867 63.5602L33.893 62.3236C34.1451 62.0652 34.5485 62.0308 34.8407 62.2428L36.2416 63.2586C36.5671 63.4946 37.0221 63.4222 37.2577 63.0967L38.2712 61.6975C38.483 61.4052 38.8769 61.3125 39.197 61.4797L40.7308 62.2807C41.0872 62.4668 41.5267 62.3288 41.7125 61.9723L42.5114 60.4403C42.6784 60.1202 43.0546 59.9711 43.3955 60.0899L45.0294 60.6589C45.409 60.7911 45.8236 60.5906 45.9557 60.2108L46.5231 58.5785C46.6416 58.2375 46.9921 58.0351 47.3467 58.103L49.0459 58.4281C49.4407 58.5037 49.8218 58.2448 49.8971 57.85L50.2209 56.1524C50.2885 55.7977 50.6059 55.5464 50.9664 55.5619L52.6946 55.6362C53.0961 55.6533 53.4353 55.3418 53.4525 54.9402L53.5256 53.2133C53.5408 52.8526 53.8182 52.5577 54.1771 52.5205L55.8976 52.3423C56.2972 52.3008 56.5875 51.9431 56.5459 51.5433L56.3669 49.8241C56.3296 49.4649 56.561 49.1328 56.9107 49.0437L58.5867 48.6167C58.976 48.5174 59.2112 48.1212 59.1119 47.7317L58.6846 46.0568C58.5954 45.7069 58.776 45.3446 59.109 45.2054L60.7049 44.5389C61.0756 44.384 61.2506 43.9577 61.0956 43.5868L60.4291 41.9918C60.2898 41.6586 60.4158 41.2738 60.725 41.0875L62.2068 40.1955C62.551 39.9882 62.6619 39.541 62.4547 39.1965L61.5633 37.7155C61.3771 37.406 61.4456 37.007 61.7244 36.7777L63.0603 35.6795C63.3706 35.4243 63.4154 34.9657 63.16 34.655L62.0625 33.3195C61.8333 33.0405 61.8429 32.6356 62.0855 32.3684L63.2472 31.0871C63.5171 30.7894 63.4945 30.3291 63.1968 30.0588L61.9167 28.8972C61.6491 28.6546 61.6001 28.2526 61.8008 27.9527L62.7636 26.5157C62.9874 26.1818 62.898 25.7296 62.5641 25.5058L61.1286 24.543C60.8286 24.3419 60.7214 23.9513 60.8766 23.6253L61.6199 22.0633C61.7927 21.7004 61.6384 21.266 61.2755 21.093L59.7153 20.3494C59.3894 20.1942 59.2265 19.8233 59.3324 19.4782L59.8404 17.8245C59.9585 17.4403 59.7427 17.0328 59.3586 16.9145L59.3589 16.9141Z" fill="#F4F4F4"></path><path class="changeToYellow" d="M58.5405 17.3632L56.9378 16.8699C56.603 16.7668 56.3941 16.4338 56.4472 16.0876L56.7012 14.4281C56.7601 14.0426 56.4956 13.6819 56.1101 13.6227L54.4528 13.3681C54.1065 13.3148 53.8516 13.0159 53.8537 12.6655L53.8634 10.9864C53.8657 10.5964 53.5514 10.2782 53.1614 10.2757L51.4849 10.2651C51.1346 10.2628 50.8389 10.0041 50.7898 9.65721L50.5551 7.99448C50.5005 7.60824 50.1433 7.33918 49.7571 7.3935L48.097 7.62715C47.7502 7.67596 47.4199 7.46308 47.3209 7.12685L46.8467 5.51601C46.7365 5.14184 46.344 4.92758 45.9699 5.03757L44.3616 5.51048C44.0256 5.60922 43.6678 5.44667 43.5211 5.12863L42.8175 3.60384C42.6541 3.2496 42.2345 3.09477 41.8805 3.25805L40.3582 3.96016C40.0402 4.10689 39.6627 3.99814 39.4712 3.70474L38.5532 2.29866C38.3399 1.97204 37.9023 1.87987 37.5759 2.09308L36.1723 3.00944C35.879 3.20084 35.4897 3.14832 35.2576 2.88591L34.1448 1.62836C33.8863 1.33614 33.44 1.30883 33.148 1.56739L31.8928 2.67861C31.6306 2.9107 31.2379 2.91548 30.9698 2.68958L29.6859 1.60745C29.3877 1.356 28.9422 1.39391 28.691 1.69218L27.6111 2.97439C27.3855 3.24226 26.9976 3.30408 26.6998 3.11968L25.2722 2.23587C24.9404 2.03055 24.5053 2.13294 24.3002 2.46463L23.4185 3.89065C23.2343 4.18851 22.8596 4.30617 22.5379 4.16716L20.997 3.50075C20.639 3.34584 20.2235 3.51053 20.0689 3.86859L19.4042 5.40789C19.2653 5.72946 18.9117 5.90058 18.5734 5.80968L16.9521 5.37459C16.5753 5.2735 16.1882 5.49696 16.0874 5.87381L15.6538 7.49368C15.5633 7.83217 15.2384 8.05276 14.8905 8.01222L13.2233 7.81785C12.8358 7.77277 12.4855 8.05025 12.4406 8.43774L12.2475 10.1037C12.2072 10.4516 11.918 10.7173 11.5678 10.728L9.89015 10.7786C9.50032 10.7904 9.19412 11.116 9.20605 11.506L9.25752 13.1823C9.26831 13.5324 9.0208 13.8374 8.67603 13.8989L7.0238 14.1932C6.63988 14.2616 6.38444 14.6284 6.45295 15.0125L6.74788 16.6636C6.8094 17.0085 6.609 17.3464 6.27688 17.4575L4.68523 17.9895C4.31548 18.1129 4.11599 18.5131 4.23965 18.8832L4.77176 20.4739C4.88293 20.8062 4.73386 21.1698 4.42139 21.3279L2.92424 22.086C2.57636 22.2622 2.43743 22.6871 2.61364 23.0352L3.37161 24.5316C3.52996 24.8442 3.43536 25.2255 3.14927 25.4276L1.77845 26.3958C1.46 26.6208 1.38422 27.0614 1.60939 27.3801L2.57699 28.7503C2.77914 29.0365 2.74104 29.4276 2.48744 29.6691L1.27237 30.8267C0.990069 31.0957 0.979388 31.5427 1.24832 31.8252L2.40493 33.04C2.64649 33.2938 2.66572 33.6862 2.45014 33.9623L1.41657 35.2847C1.17643 35.592 1.23084 36.0358 1.5382 36.2761L2.85922 37.3095C3.13523 37.5253 3.2113 37.9109 3.03824 38.2153L2.20836 39.6742C2.01551 40.0132 2.13395 40.4445 2.47285 40.6375L3.93007 41.4676C4.23452 41.6411 4.36598 42.0113 4.23891 42.3378L3.63021 43.9021C3.48876 44.2655 3.66881 44.675 4.03215 44.8167L5.5947 45.4258C5.92107 45.553 6.10502 45.9004 6.0269 46.2418L5.65241 47.8783C5.56544 48.2585 5.80303 48.6373 6.18325 48.7247L7.81762 49.0998C8.15899 49.1781 8.3916 49.495 8.36396 49.8442L8.23172 51.518C8.20104 51.9068 8.49121 52.2472 8.87999 52.2781L10.5513 52.4111C10.9005 52.439 11.1766 52.7186 11.2003 53.0682L11.3131 54.7433C11.3393 55.1325 11.6759 55.4269 12.0649 55.401L13.7376 55.2892C14.0871 55.2657 14.401 55.5023 14.4751 55.8448L14.8305 57.4859C14.913 57.8671 15.289 58.1093 15.6702 58.0271L17.3088 57.6729C17.6512 57.5989 17.996 57.7871 18.1193 58.1152L18.7098 59.6873C18.8471 60.0526 19.254 60.2376 19.6191 60.1006L21.1885 59.5115C21.5164 59.3885 21.8849 59.5245 22.0546 59.8311L22.8675 61.3005C23.0563 61.6419 23.4861 61.7657 23.8273 61.5768L25.2941 60.7654C25.6005 60.5958 25.985 60.6768 26.1974 60.9555L27.2154 62.2909C27.4519 62.6011 27.8951 62.661 28.2051 62.4245L29.5381 61.408C29.8165 61.1955 30.2087 61.2196 30.4595 61.4644L31.6611 62.6374C31.9403 62.91 32.3873 62.9047 32.6595 62.6255L33.83 61.4255C34.0747 61.1748 34.466 61.1414 34.7496 61.3472L36.109 62.3329C36.4248 62.5618 36.8662 62.4916 37.0949 62.1757L38.0783 60.8181C38.2839 60.5344 38.6661 60.4445 38.9766 60.6067L40.465 61.3839C40.8108 61.5645 41.2372 61.4306 41.4175 61.0847L42.1928 59.5981C42.3548 59.2875 42.7198 59.1429 43.0506 59.2581L44.636 59.8103C45.0044 59.9385 45.4067 59.7439 45.5348 59.3754L46.0854 57.7916C46.2004 57.4606 46.5405 57.2643 46.8846 57.3302L48.5334 57.6456C48.9164 57.719 49.2862 57.4678 49.3593 57.0847L49.6735 55.4374C49.7391 55.0933 50.0471 54.8494 50.3969 54.8645L52.0738 54.9365C52.4635 54.9532 52.7926 54.6509 52.8092 54.2612L52.8802 52.5856C52.8949 52.2355 53.1641 51.9494 53.5124 51.9133L55.1818 51.7403C55.5696 51.7001 55.8512 51.353 55.8109 50.9651L55.6372 49.2969C55.601 48.9483 55.8256 48.6261 56.1648 48.5396L57.7912 48.1253C58.1689 48.029 58.3971 47.6445 58.3007 47.2666L57.8862 45.6414C57.7996 45.3018 57.9748 44.9503 58.298 44.8152L59.8465 44.1685C60.2062 44.0181 60.376 43.6045 60.2256 43.2446L59.5789 41.6969C59.4437 41.3736 59.566 41.0002 59.8661 40.8195L61.3038 39.9539C61.6379 39.7527 61.7455 39.3188 61.5444 38.9846L60.6794 37.5475C60.4988 37.2472 60.5653 36.86 60.8357 36.6376L62.1321 35.5719C62.4332 35.3243 62.4766 34.8792 62.2288 34.5778L61.1638 33.2819C60.9414 33.0112 60.9507 32.6183 61.1861 32.359L62.3134 31.1157C62.5753 30.8268 62.5534 30.3802 62.2645 30.1179L61.0223 28.9908C60.7628 28.7553 60.7151 28.3653 60.9099 28.0743L61.8442 26.6799C62.0613 26.356 61.9745 25.9171 61.6506 25.7L60.2576 24.7658C59.9666 24.5706 59.8625 24.1916 60.0131 23.8753L60.7344 22.3596C60.902 22.0075 60.7523 21.586 60.4002 21.4181L58.8863 20.6966C58.5701 20.546 58.4119 20.1861 58.5148 19.8513L59.0077 18.2465C59.1222 17.8737 58.9128 17.4784 58.5401 17.3636L58.5405 17.3632Z" fill="#112152"></path><path class="changeToBlue" d="M48.8349 18.9841L50.5209 20.502L52.4854 19.3678L51.5627 21.4401L53.2484 22.9579L50.9924 22.7208L50.0697 24.7931L49.5982 22.5743L47.3422 22.3372L49.3067 21.203L48.8349 18.9841Z" fill="#F4F4F4"></path><path class="changeToBlue" d="M11.9181 40.2984L13.604 41.8163L15.5685 40.6821L14.6459 42.7545L16.3315 44.2723L14.0755 44.0352L13.1529 46.1075L12.6812 43.8888L10.4252 43.6516L12.3899 42.5173L11.9181 40.2984Z" fill="#F4F4F4"></path><path class="changeToBlue" d="M23.5798 51.5283L25.3506 52.2738L24.4294 54.4637C24.2957 54.4766 24.1462 54.475 23.9803 54.4593C23.8143 54.4436 23.6443 54.4201 23.4704 54.3886C23.2962 54.3572 23.1278 54.3182 22.9652 54.2719C22.8024 54.2254 22.6623 54.1776 22.5452 54.1282C22.4028 54.0683 22.258 53.9912 22.1102 53.8972C21.9625 53.8029 21.8248 53.691 21.6974 53.5609C21.5698 53.4309 21.4591 53.2809 21.3655 53.111C21.2717 52.9412 21.2058 52.7496 21.1673 52.5365C21.1288 52.3234 21.1272 52.0874 21.1619 51.8288C21.1969 51.5702 21.2785 51.2882 21.4068 50.9828C21.6021 50.5186 21.8288 50.167 22.0869 49.9286C22.3448 49.6901 22.6195 49.535 22.911 49.4631C23.2024 49.3914 23.5021 49.3845 23.8102 49.4428C24.1183 49.5011 24.4231 49.5937 24.7244 49.7207C24.8667 49.7806 25.0099 49.8532 25.154 49.9384C25.2979 50.0238 25.4285 50.1057 25.5456 50.1846C25.6627 50.2635 25.794 50.3582 25.9399 50.4687L25.6257 51.2154C25.4918 51.1 25.3689 51.0027 25.2569 50.9235C25.1447 50.8443 25.0166 50.7596 24.8723 50.6692C24.728 50.5788 24.5783 50.5011 24.4235 50.436C24.2059 50.3444 23.9975 50.2861 23.7984 50.2614C23.5993 50.2367 23.411 50.2571 23.2331 50.3225C23.0552 50.3879 22.89 50.5055 22.7374 50.6751C22.5846 50.8448 22.4467 51.076 22.3237 51.3688C22.2127 51.6323 22.1477 51.8721 22.1284 52.088C22.109 52.3039 22.1256 52.4956 22.1785 52.6631C22.2312 52.8305 22.3175 52.974 22.4373 53.0934C22.557 53.2127 22.6985 53.3068 22.8619 53.3756C23.0335 53.4478 23.1788 53.5005 23.2982 53.5334C23.4173 53.5663 23.5168 53.5873 23.5969 53.5965C23.6851 53.6089 23.7615 53.6092 23.8259 53.5968L24.2297 52.6368L23.2816 52.2376L23.5798 51.5286L23.5798 51.5283Z" fill="#F4F4F4"></path><path class="changeToBlue" d="M28.2179 55.6834C27.9212 55.6407 27.6602 55.5562 27.4351 55.43C27.21 55.3038 27.0258 55.1476 26.8828 54.962C26.7395 54.7764 26.6386 54.5683 26.58 54.3372C26.5212 54.1065 26.51 53.8653 26.546 53.6136L26.9746 50.6214L27.9187 50.7569L27.4747 53.857C27.4568 53.9829 27.4529 54.1049 27.4635 54.2234C27.4741 54.3418 27.5103 54.4491 27.5722 54.5451C27.6342 54.6411 27.7245 54.7229 27.8434 54.7905C27.9621 54.858 28.1227 54.9063 28.3252 54.9354C28.5274 54.9645 28.6953 54.9611 28.829 54.9252C28.9626 54.8894 29.0719 54.8318 29.1567 54.7523C29.2413 54.6728 29.3058 54.5766 29.3494 54.4636C29.393 54.3507 29.4238 54.2313 29.442 54.1055L29.8813 51.039L30.8254 51.1745L30.3968 54.1668C30.3607 54.4185 30.2832 54.6469 30.1644 54.8523C30.0455 55.0578 29.8913 55.2291 29.7018 55.3671C29.5122 55.5049 29.293 55.6031 29.0437 55.6611C28.7945 55.7192 28.5192 55.7268 28.2181 55.6835L28.2179 55.6834Z" fill="#F4F4F4"></path><path class="changeToBlue" d="M34.9561 54.4851L33.1628 54.6913L32.8855 55.854L31.8568 55.9723L33.0502 51.0442L34.2344 50.9082L36.5194 55.4363L35.4907 55.5545L34.9557 54.4851L34.9561 54.4851ZM34.5465 53.6686C34.4394 53.4525 34.3456 53.2645 34.2653 53.1047C34.1852 52.9448 34.1005 52.7764 34.0117 52.5993C33.9226 52.4223 33.8454 52.2688 33.7803 52.1392L33.5746 52.9716C33.55 53.075 33.5251 53.1773 33.5003 53.2782C33.4753 53.3794 33.4537 53.4687 33.4353 53.5462C33.4168 53.6238 33.3969 53.7094 33.3758 53.8031L34.5465 53.6686Z" fill="#F4F4F4"></path><path class="changeToBlue" d="M41.2911 53.8628L40.2826 54.2186L39.2742 52.8775C39.2274 52.8267 39.1785 52.7838 39.1275 52.7488C39.0796 52.7223 39.0272 52.7 38.9701 52.6815C38.9131 52.6632 38.8481 52.6668 38.7754 52.6924L38.2487 52.8783L38.8952 54.7083L38.0024 55.0233L36.4168 50.5353L37.695 50.0843C37.9262 50.0027 38.1525 49.9446 38.3737 49.9097C38.5951 49.875 38.8011 49.8793 38.9922 49.9225C39.1833 49.9659 39.3538 50.0561 39.5034 50.1935C39.6531 50.3309 39.7748 50.5322 39.8686 50.7977C39.917 50.9348 39.9381 51.0595 39.9323 51.1724C39.9264 51.2852 39.9048 51.3879 39.8678 51.4804C39.8306 51.573 39.7836 51.6545 39.7268 51.7252C39.6698 51.7958 39.6148 51.8549 39.5618 51.9025C39.5088 51.9501 39.4454 51.9989 39.3715 52.0491C39.4784 52.0113 39.5772 52.0043 39.6674 52.0276C39.7576 52.0511 39.8358 52.0851 39.9019 52.129C39.9681 52.1731 40.0356 52.2383 40.1047 52.3247L41.2912 53.8629L41.2911 53.8628ZM38.3517 52.0043C38.4544 51.9681 38.5514 51.9254 38.6423 51.8764C38.7334 51.8274 38.8088 51.7683 38.8687 51.6991C38.9285 51.6299 38.968 51.5473 38.9871 51.4516C39.0062 51.3558 38.9939 51.2457 38.95 51.1217C38.9062 50.9976 38.85 50.9032 38.7813 50.8382C38.7126 50.7736 38.6339 50.7314 38.5453 50.712C38.4565 50.6927 38.3604 50.6931 38.2566 50.7127C38.1528 50.7325 38.0431 50.7628 37.9276 50.8035L37.5615 50.9326L37.9857 52.1333L38.3518 52.004L38.3517 52.0043Z" fill="#F4F4F4"></path><path class="changeToBlue" d="M44.5505 50.6553L43.0339 51.6335L43.2998 52.7991L42.4299 53.3601L41.3196 48.4116L42.3213 47.7656L46.3734 50.8166L45.5035 51.3776L44.5508 50.655L44.5505 50.6553ZM43.822 50.1041C43.6302 49.9576 43.463 49.8305 43.3204 49.7225C43.1779 49.6147 43.0275 49.5009 42.8693 49.3814C42.7111 49.2619 42.5741 49.1584 42.4582 49.0711L42.6421 49.9088C42.6657 50.0126 42.6887 50.1152 42.7111 50.2168C42.7334 50.3187 42.7535 50.4082 42.7712 50.4859C42.7889 50.5637 42.809 50.6494 42.8316 50.7428L43.8217 50.1042L43.822 50.1041Z" fill="#F4F4F4"></path><path class="changeToBlue" d="M50.2708 46.8392L49.4196 47.7589L45.6066 46.6147L48.2308 49.0434L47.6155 49.7081L44.1217 46.4746L44.9728 45.5549L48.7809 46.6944L46.1618 44.2703L46.7771 43.6056L50.2709 46.8391L50.2708 46.8392Z" fill="#F4F4F4"></path><path class="changeToBlue" d="M48.8983 40.0014L49.5419 40.3712L48.8636 41.5523L52.3474 43.5542L51.8758 44.3751L48.392 42.3733L47.7101 43.5602L47.0665 43.1904L48.8983 40.0014Z" fill="#F4F4F4"></path><path class="changeToBlue" d="M53.1968 39.802L53.783 38.0446L54.5 38.2842L53.612 40.946L49.0969 39.438L49.9848 36.7762L50.6524 37.1643L50.1157 38.773L51.2203 39.1418L51.7569 37.5331L52.4739 37.7726L51.9372 39.3813L53.1968 39.802Z" fill="#F4F4F4"></path><path class="changeToBlue" d="M54.2716 35.3832L54.4963 33.5442L55.2465 33.6362L54.9061 36.4217L50.1816 35.8421L50.5222 33.0565L51.2533 33.3041L51.0474 34.9875L52.2032 35.1294L52.4091 33.4459L53.1593 33.538L52.9534 35.2214L54.2714 35.3831L54.2716 35.3832Z" fill="#F4F4F4"></path><path class="changeToBlue" d="M8.4607 27.9126L13.1397 28.2231L13.0808 29.1135L9.2987 28.8624L12.9944 30.4188L12.9387 31.2624L9.07036 32.3167L12.8524 32.5678L12.7935 33.4582L8.11448 33.1477L8.20836 31.7283L11.8019 30.7633L8.36673 29.3317L8.46061 27.9124L8.4607 27.9126Z" fill="#F4F4F4"></path><path class="changeToBlue" d="M9.72228 23.6489C9.80715 23.4276 9.93001 23.2041 10.0906 22.9784C10.2514 22.7528 10.4566 22.5668 10.7067 22.4208C10.9567 22.2749 11.2556 22.1884 11.6037 22.1615C11.9517 22.1348 12.3534 22.2085 12.8085 22.3833C13.2678 22.5596 13.6169 22.774 13.8555 23.026C14.0941 23.2782 14.2555 23.5413 14.3396 23.8155C14.4238 24.0897 14.4492 24.3639 14.4158 24.6386C14.3824 24.9133 14.3233 25.1612 14.2384 25.3825C14.1536 25.6039 14.0319 25.8277 13.8733 26.0543C13.7146 26.2808 13.5121 26.4689 13.2654 26.6184C13.0188 26.7681 12.7226 26.8568 12.3766 26.8845C12.0307 26.9123 11.6281 26.8379 11.1686 26.6617C10.7135 26.4871 10.3655 26.2733 10.1248 26.0203C9.88397 25.7675 9.71995 25.502 9.63226 25.2241C9.5448 24.9462 9.51664 24.6696 9.54792 24.3941C9.57928 24.1188 9.63735 23.8704 9.72213 23.649L9.72228 23.6489ZM13.5557 25.1202C13.6229 24.9448 13.6541 24.7699 13.649 24.5954C13.644 24.421 13.5987 24.2552 13.5128 24.0976C13.427 23.9402 13.2967 23.7931 13.1215 23.6565C12.9464 23.5199 12.7232 23.3994 12.4516 23.2952C12.1885 23.1941 11.9462 23.136 11.7246 23.1204C11.503 23.1048 11.3067 23.1265 11.1356 23.1854C10.9645 23.2444 10.8179 23.3366 10.6955 23.462C10.5732 23.5875 10.4784 23.7379 10.4113 23.9133C10.3441 24.0887 10.3139 24.264 10.3211 24.4393C10.3282 24.6145 10.3762 24.7826 10.4654 24.9437C10.5546 25.1049 10.6855 25.2534 10.8586 25.3892C11.0318 25.5252 11.252 25.6443 11.5191 25.7469C11.7906 25.851 12.036 25.9106 12.2556 25.9253C12.4752 25.9402 12.6697 25.9167 12.8393 25.8548C13.0092 25.793 13.1541 25.699 13.2744 25.5728C13.3947 25.4464 13.4884 25.2956 13.5557 25.1202Z" fill="#F4F4F4"></path><path class="changeToBlue" d="M17.6377 19.474L16.9154 20.4746L13.0512 19.8084L15.9063 21.872L15.384 22.5954L11.5827 19.8477L12.305 18.8471L16.1637 19.5094L13.314 17.4495L13.8363 16.7262L17.6377 19.4739L17.6377 19.474Z" fill="#F4F4F4"></path><path class="changeToBlue" d="M18.571 17.5998L19.9409 16.3952L20.4326 16.9547L18.3575 18.7793L15.2615 15.255L17.3366 13.4305L17.7124 14.0919L16.4584 15.1946L17.2158 16.0568L18.4699 14.9541L18.9614 15.5137L17.7073 16.6164L18.5711 17.5995L18.571 17.5998Z" fill="#F4F4F4"></path><path class="changeToBlue" d="M21.3179 14.2522L18.5393 12.6328L19.3835 12.1637L21.3294 13.2783L21.4057 11.0399L22.2557 10.5676L22.1151 13.8091L22.9949 15.3934L22.1977 15.8364L21.3179 14.2522Z" fill="#F4F4F4"></path><path class="changeToBlue" d="M29.8745 11.8314C29.9217 12.0867 29.9076 12.3123 29.8324 12.5081C29.7573 12.7041 29.6417 12.8722 29.4857 13.0124C29.3297 13.1527 29.1419 13.2682 28.9223 13.3587C28.7027 13.4494 28.4741 13.5165 28.2367 13.5604L26.898 13.8077L26.0455 9.19432L27.4765 8.92998C27.7007 8.88853 27.9168 8.87139 28.1251 8.87839C28.3333 8.88547 28.5214 8.92585 28.6896 8.99944C28.8577 9.07302 29.0023 9.18513 29.1233 9.33563C29.2443 9.48628 29.3294 9.68203 29.3784 9.92327L29.3796 9.92988C29.4194 10.1455 29.4024 10.3239 29.3285 10.4649C29.2545 10.6059 29.1661 10.718 29.0632 10.8005C28.9408 10.9006 28.798 10.9769 28.6351 11.0296C28.8369 11.0152 29.022 11.0332 29.1906 11.0841C29.3347 11.1257 29.4736 11.2014 29.6075 11.3108C29.7413 11.4204 29.8294 11.5895 29.8717 11.8182L29.8741 11.8314L29.8745 11.8314ZM28.319 12.7876C28.4157 12.7697 28.5068 12.7404 28.5926 12.6996C28.6782 12.6589 28.7513 12.6054 28.812 12.5397C28.8726 12.4739 28.9149 12.3955 28.939 12.3046C28.9631 12.2137 28.9642 12.1088 28.9422 11.99C28.9202 11.8711 28.8804 11.7727 28.8228 11.6947C28.7652 11.6167 28.6951 11.5578 28.613 11.5185C28.5307 11.4791 28.4389 11.4563 28.3379 11.4499C28.2368 11.4436 28.1334 11.4502 28.0278 11.4696L27.4476 11.5768L27.6928 12.9033L28.3191 12.7876L28.319 12.7876ZM27.3207 10.8904L27.9075 10.782C27.9866 10.7674 28.0639 10.7428 28.1395 10.7085C28.2149 10.6741 28.2792 10.6281 28.3322 10.5705C28.3852 10.5129 28.4236 10.4443 28.4476 10.3648C28.4715 10.2854 28.4742 10.195 28.4555 10.0937C28.436 9.98802 28.4008 9.90252 28.3501 9.83675C28.2992 9.77107 28.239 9.72192 28.1695 9.68929C28.0998 9.65674 28.0203 9.63839 27.9309 9.63448C27.8415 9.63057 27.7506 9.63705 27.6583 9.65422L27.1111 9.75533L27.3208 10.8905L27.3207 10.8904Z" fill="#F4F4F4"></path><path class="changeToBlue" d="M33.6572 12.1771L31.8821 12.0929L31.428 13.18L30.4098 13.1318L32.3522 8.5273L33.5244 8.58285L35.025 13.3507L34.0068 13.3025L33.6571 12.1772L33.6572 12.1771ZM33.3889 11.3178C33.3191 11.0905 33.2579 10.8928 33.2054 10.7244C33.153 10.5563 33.0976 10.3789 33.0392 10.1925C32.9808 10.006 32.9302 9.84471 32.8875 9.70824L32.5554 10.4853C32.515 10.5821 32.4746 10.6775 32.4344 10.7719C32.3941 10.8663 32.3589 10.9496 32.3287 11.0222C32.2983 11.0947 32.2654 11.1749 32.23 11.2628L33.3889 11.3178Z" fill="#F4F4F4"></path><path class="changeToBlue" d="M38.7835 9.50395C38.947 9.55021 39.0973 9.60551 39.2348 9.66985C39.3721 9.73427 39.4925 9.79751 39.596 9.85917C39.7154 9.93009 39.8234 10.0001 39.9201 10.0694L39.7214 10.7733C39.5675 10.66 39.4026 10.5576 39.2262 10.4659C39.05 10.3743 38.8716 10.3064 38.6914 10.2625C38.5109 10.2185 38.3332 10.2021 38.1583 10.2129C37.9833 10.224 37.8179 10.2749 37.6623 10.3657C37.5066 10.4566 37.3647 10.5931 37.2367 10.7754C37.1085 10.9578 37.0032 11.1954 36.9207 11.4881C36.8369 11.7852 36.8018 12.045 36.8159 12.2674C36.8298 12.4898 36.8789 12.6816 36.9636 12.8426C37.0481 13.0038 37.1622 13.1348 37.3057 13.2358C37.4489 13.3367 37.6097 13.4135 37.7877 13.4662C37.9656 13.5187 38.1544 13.55 38.3536 13.5599C38.5529 13.5698 38.7488 13.5623 38.9416 13.5378L38.7411 14.2482C38.6201 14.2652 38.4903 14.2727 38.3515 14.2707C38.2299 14.2734 38.0936 14.2664 37.9429 14.2494C37.792 14.2323 37.6349 14.2006 37.4714 14.1545C37.3251 14.1131 37.1742 14.0553 37.0185 13.9812C36.8629 13.9069 36.7149 13.8142 36.5746 13.7024C36.4341 13.5908 36.3081 13.4574 36.1962 13.3025C36.0841 13.1477 35.9966 12.9684 35.9334 12.7645C35.87 12.5607 35.8396 12.3311 35.8418 12.0761C35.8441 11.821 35.8895 11.5364 35.9782 11.2221C36.0658 10.9121 36.1751 10.6479 36.3065 10.4291C36.4378 10.2107 36.5837 10.0309 36.7442 9.89044C36.9046 9.74979 37.0729 9.64288 37.2494 9.56937C37.4256 9.49604 37.6032 9.44739 37.7818 9.42354C37.9604 9.39969 38.1353 9.39682 38.3068 9.41491C38.4783 9.43309 38.6369 9.46289 38.7834 9.50419L38.7835 9.50395Z" fill="#F4F4F4"></path><path class="changeToBlue" d="M42.6051 16.471L41.6838 15.9751L41.419 13.5922L41.0114 13.3728L40.0774 15.1106L39.2919 14.6878L41.5127 10.5563L42.2981 10.979L41.3641 12.7168L41.7775 12.9392L43.8455 11.8118L44.7786 12.314L42.24 13.6226L42.6051 16.471Z" fill="#F4F4F4"></path><path fill-rule="evenodd" clip-rule="evenodd" class="changeToBlue" d="M23.75 18.1626C16.0658 22.599 13.4349 32.4292 17.8747 40.1191C22.3144 47.8089 32.143 50.4456 39.8272 46.0091C47.5114 41.5726 50.1424 31.7425 45.7026 24.0526C41.2629 16.3627 31.4342 13.7261 23.75 18.1626ZM16.9677 40.6427C12.2391 32.4525 15.0408 21.9816 23.2264 17.2556C31.4121 12.5297 41.8809 15.3388 46.6095 23.529C51.3382 31.7192 48.5365 42.19 40.3508 46.916C32.1652 51.642 21.6963 48.8329 16.9677 40.6427Z" fill="#FFD700"></path><path class="changeToBlue" d="M18.761 9.52176C20.2915 8.63812 21.9099 7.90948 23.571 7.356C25.1895 6.81665 26.8685 6.43708 28.5614 6.22726C30.2238 6.02131 31.9165 5.97719 33.5924 6.09625C35.2527 6.21412 36.911 6.49293 38.5212 6.92492C40.1315 7.3569 41.7069 7.94582 43.2038 8.67496C44.7145 9.41105 46.1586 10.2966 47.4955 11.3073C48.8569 12.3364 50.1215 13.5059 51.2539 14.7834C52.4162 16.0944 53.4539 17.5358 54.3382 19.0675C55.2226 20.5992 55.9519 22.2184 56.5062 23.8807C57.0463 25.5001 57.4268 27.18 57.6374 28.8735C57.8441 30.5366 57.8892 32.2299 57.7712 33.9065C57.6543 35.5672 57.3764 37.226 56.9455 38.8367C56.5145 40.4472 55.9267 42.0229 55.1987 43.5195C54.4637 45.0305 53.5793 46.4743 52.5698 47.8109C51.5418 49.1722 50.3735 50.4364 49.0971 51.5684C47.7872 52.7302 46.347 53.7674 44.8165 54.6511C43.2859 55.5347 41.6676 56.2634 40.0064 56.8168C38.3879 57.356 36.709 57.7358 35.016 57.9456C33.3537 58.1515 31.661 58.1956 29.9851 58.0766C28.3247 57.9587 26.6665 57.6799 25.0562 57.2479C23.446 56.8159 21.8706 56.227 20.3737 55.4979C18.8629 54.7618 17.4189 53.8763 16.082 52.8655C14.7205 51.8363 13.456 50.6669 12.3236 49.3895C11.1613 48.0784 10.1236 46.6371 9.23927 45.1054C8.35493 43.5736 7.62561 41.9544 7.07128 40.2922C6.53117 38.6728 6.15068 36.9929 5.94011 35.2993C5.73333 33.6363 5.68824 31.9429 5.80631 30.2664C5.92313 28.6056 6.20105 26.9469 6.63199 25.3362C7.06301 23.7257 7.65058 22.15 8.37879 20.6533C9.11376 19.1424 9.99818 17.6986 11.0077 16.3619C12.0356 15.0006 13.204 13.7365 14.4804 12.6045C15.7903 11.4426 17.2305 10.4054 18.761 9.52176ZM18.2491 8.63504C5.30558 16.108 0.874645 32.6655 8.3524 45.6174C15.8302 58.5693 32.3849 63.0107 45.3284 55.5378C58.2719 48.0649 62.7028 31.5073 55.2251 18.5554C47.7473 5.60359 31.1926 1.16211 18.2491 8.63504Z" fill="#FFD700"></path><path class="changeToBlue" d="M26.0637 40.3518L24.614 41.1888L20.9202 34.791L19.4507 35.6394L18.8156 34.5394L21.5745 32.5763L26.0637 40.3519L26.0637 40.3518Z" fill="#FFD700"></path><path class="changeToBlue" d="M30.4211 33.7981C31.0151 34.8271 31.2465 35.7343 31.1153 36.5196C30.984 37.3052 30.5443 37.9138 29.7964 38.3456C29.0485 38.7774 28.2907 38.8601 27.5432 38.582C26.7958 38.3039 26.1249 37.6504 25.5309 36.6215L24.5412 34.9072C23.9492 33.8819 23.7179 32.9748 23.847 32.1856C23.9762 31.3967 24.4164 30.7853 25.1677 30.3515C25.9191 29.9177 26.6654 29.8441 27.4167 30.1247C28.168 30.4055 28.8395 31.0585 29.4315 32.0838L30.4212 33.798L30.4211 33.7981ZM27.8932 32.7561C27.538 32.1408 27.1915 31.7396 26.8541 31.5525C26.5167 31.3657 26.1858 31.3658 25.8615 31.5531C25.5371 31.7403 25.3678 32.0278 25.3631 32.4098C25.3587 32.7917 25.535 33.2922 25.8923 33.9111L27.0597 35.9331C27.4212 36.5593 27.7693 36.9653 28.104 37.1514C28.4387 37.3375 28.7716 37.3352 29.1025 37.1441C29.4335 36.953 29.5913 36.6722 29.5959 36.2901C29.6004 35.9081 29.422 35.4041 29.0605 34.778L27.8931 32.7559L27.8932 32.7561Z" fill="#FFD700"></path><path class="changeToBlue" d="M36.2545 30.4309C36.8486 31.4599 37.08 32.3671 36.9488 33.1524C36.8175 33.938 36.3778 34.5466 35.6299 34.9784C34.882 35.4102 34.1242 35.4929 33.3767 35.2148C32.6293 34.9368 31.9584 34.2832 31.3644 33.2543L30.3746 31.54C29.7827 30.5147 29.5514 29.6076 29.6805 28.8184C29.8097 28.0295 30.2499 27.4181 31.0012 26.9843C31.7526 26.5505 32.4989 26.4769 33.2501 26.7575C34.0015 27.0383 34.673 27.6913 35.265 28.7166L36.2547 30.4309L36.2545 30.4309ZM33.7266 29.389C33.3713 28.7737 33.0249 28.3725 32.6875 28.1854C32.3502 27.9985 32.0191 27.9987 31.6948 28.186C31.3705 28.3732 31.2011 28.6607 31.1965 29.0427C31.192 29.4246 31.3683 29.9251 31.7256 30.544L32.893 32.566C33.2545 33.1922 33.6026 33.5982 33.9373 33.7843C34.2721 33.9704 34.6049 33.9681 34.9359 33.777C35.2669 33.5859 35.4247 33.3051 35.4292 32.923C35.4337 32.541 35.2553 32.0371 34.8937 31.4109L33.7263 29.3889L33.7266 29.389Z" fill="#FFD700"></path><path class="changeToBlue" d="M35.3202 26.6329C35.055 26.1736 34.9722 25.7112 35.0719 25.2453C35.1715 24.7796 35.4678 24.4043 35.961 24.1196C36.4542 23.8348 36.9359 23.7597 37.3864 23.9054C37.8368 24.0513 38.1957 24.3557 38.4629 24.8184L38.7003 25.2296C38.9654 25.6889 39.048 26.1492 38.9481 26.6103C38.848 27.0716 38.5515 27.4445 38.0583 27.7292C37.5651 28.014 37.0873 28.0882 36.6345 27.9461C36.1817 27.8041 35.8227 27.5033 35.5576 27.044L35.3202 26.6329ZM36.5207 26.488C36.64 26.6945 36.793 26.8375 36.9803 26.917C37.1674 26.9965 37.3602 26.9789 37.5589 26.8642C37.7575 26.7495 37.8583 26.5975 37.8815 26.3967C37.9046 26.1958 37.8565 25.9921 37.7373 25.7856L37.4999 25.3744C37.3807 25.1681 37.2264 25.0232 37.0373 24.9402C36.848 24.8573 36.6558 24.872 36.4607 24.9847C36.2655 25.0974 36.1573 25.2559 36.1363 25.4604C36.1152 25.6648 36.1643 25.8703 36.2835 26.0767L36.5209 26.4879L36.5207 26.488ZM40.4271 31.2819L39.4908 31.2884L39.5119 23.173L40.4482 23.1665L40.4271 31.2819ZM41.3008 29.0115C41.0377 28.5558 40.9567 28.0947 41.058 27.6278C41.1592 27.1612 41.4564 26.7854 41.9496 26.5007C42.4428 26.2159 42.9203 26.1432 43.3724 26.288C43.8245 26.4329 44.1832 26.7349 44.4484 27.1942L44.6858 27.6053C44.953 28.0682 45.0366 28.5302 44.9367 28.9914C44.8366 29.4527 44.5401 29.8256 44.0469 30.1103C43.5537 30.3951 43.0745 30.4688 42.619 30.3259C42.1636 30.183 41.8033 29.8819 41.5381 29.4226L41.3008 29.0115ZM42.5013 28.8665C42.6184 29.0694 42.7757 29.21 42.9733 29.2883C43.1707 29.3667 43.3621 29.3523 43.5475 29.2453C43.7626 29.1211 43.8779 28.9656 43.8936 28.7785C43.9091 28.5915 43.8522 28.3858 43.7227 28.1615L43.4853 27.7504C43.3682 27.5475 43.2149 27.4045 43.0257 27.3214C42.8365 27.2385 42.6443 27.2532 42.4491 27.3659C42.2539 27.4786 42.1407 27.64 42.1197 27.8445C42.0986 28.049 42.1468 28.2525 42.264 28.4555L42.5014 28.8667L42.5013 28.8665Z" fill="#FFD700"></path></svg>